<svg width="1024" height="1024" viewBox="0 0 1024 1024" fill="none" xmlns="http://www.w3.org/2000/svg">
<rect width="1024" height="1023.53" rx="264" fill="url(#paint0_linear_570_93)"/>
<rect x="7.5" y="7.5" width="1009" height="1008.53" rx="256.5" stroke="white" stroke-opacity="0.25" stroke-width="15"/>
<path fill-rule="evenodd" clip-rule="evenodd" d="M860.137 608.137C860.602 608.642 861.059 609.157 861.511 609.673C865.425 614.168 868.967 619.229 872.051 624.827C880.083 639.392 884.574 657.233 883.941 677.691C883.39 695.438 879.013 715.094 869.744 736.15C863.616 750.063 854.727 763.22 844.106 774.72L844.142 774.752C833.376 786.403 820.777 796.316 807.432 803.549C801.377 806.83 794.971 809.621 788.311 811.831C781.671 814.033 775.095 815.563 768.698 816.324C761.578 817.174 754.382 817.157 747.217 816.174C742.271 815.496 737.426 814.371 732.725 812.772C715.314 836.005 690.914 855.944 662.18 871.924C627.311 891.314 585.807 905.022 542.667 911.751C519.605 915.347 496.036 916.973 472.74 916.428C450.006 915.896 427.497 913.311 405.929 908.495C370.245 900.525 337.255 885.628 310.081 864.976C286.807 847.292 267.777 825.402 254.885 800.014C246.006 799.959 237.391 798.769 229.121 796.601C216.303 793.242 204.427 787.535 193.787 780.081C181.843 771.708 171.477 761.108 163.127 749.167C154.624 737.012 148.172 723.426 144.24 709.364C140.844 697.223 139.577 685.165 140.122 673.656C140.707 661.357 143.368 649.668 147.719 639.133C150.801 631.676 154.782 624.726 159.52 618.476C164.337 612.125 169.884 606.568 176.03 601.986C181.889 597.621 188.281 594.111 195.097 591.61C193.229 585.733 192.031 578.121 192.031 567.688C192.031 559.316 191.851 554.177 191.691 549.5C191.126 533.119 190.705 520.899 195.364 507.431C188.851 493.074 184.881 476.199 183.488 458.934C181.746 437.338 183.992 414.665 190.3 395.244C197.161 374.119 208.995 356.459 226.033 346.964C227.879 345.935 229.771 345.007 231.714 344.183C231.457 341.374 231.267 338.534 231.147 335.667C230.803 327.405 231.066 319.158 231.967 311.069C234.264 290.454 240.655 270.119 251.62 252.083C260.863 236.88 273.287 223.405 289.162 212.865C304.418 179.71 332.029 149.59 367.76 130.056C401.09 111.833 441.486 102.748 485.486 108.933C494.882 110.232 501.446 118.905 500.146 128.299C499.454 133.298 496.678 137.495 492.814 140.133C477.279 150.774 465.027 159.875 455.914 169.893C467.808 164.24 480.386 160.128 494.235 156.434C503.409 154.022 512.803 159.501 515.216 168.675C516.468 173.439 515.592 178.261 513.176 182.135C511.265 185.264 509.428 188.356 507.691 191.424C535.195 184.553 568.823 183.799 602.799 190.159C649.972 198.998 698.609 221.482 733.176 260.255C740.565 253.054 749.097 248.112 758.213 244.851C773.142 239.513 789.295 239.043 804.143 240.456C813.576 241.348 820.502 249.719 819.612 259.152C819.373 261.679 818.595 264.027 817.405 266.091C810.885 278.696 806.102 290.997 804.192 303.546C802.765 312.933 802.984 322.617 805.358 332.904C816.209 335.782 826.575 340.406 835.998 346.569C851.855 356.941 865.063 371.707 873.419 389.859C881.729 407.909 885.212 429.147 881.688 452.526C879.027 470.174 872.365 489.036 860.734 508.613C865.633 523.949 865.067 538.766 864.338 557.776C864.091 564.211 863.82 571.25 863.82 581.299C863.82 587.216 863.486 592.286 862.867 596.752C862.252 601.181 861.327 604.902 860.137 608.137Z" fill="white"/>
<path fill-rule="evenodd" clip-rule="evenodd" d="M273.574 471.099C286.998 463.034 302.592 455.872 319.839 449.62C329.667 446.06 340.033 442.798 350.844 439.841C361.858 436.828 373.323 434.134 385.14 431.758L385.298 431.726L385.454 431.768C399.258 435.536 413.986 436.463 428.197 434.551C442.088 432.679 455.484 428.089 467.03 420.785L467.178 420.694L467.346 420.68C477.281 419.929 487.333 419.362 497.458 418.984C507.63 418.605 517.802 418.413 527.925 418.413C566.333 418.413 604.707 421.113 640.703 426.508C675.373 431.707 707.841 439.412 736.011 449.62C749.878 454.647 762.677 460.264 774.136 466.461C785.214 472.451 795.046 478.992 803.386 486.071C832.612 510.882 831.837 530.084 830.621 560.097C830.358 566.565 830.076 573.545 830.076 581.299C830.064 583.191 830.028 585.073 829.983 586.963L828.767 585.004C819.245 569.657 804.948 555.968 786.979 543.963C767.88 531.205 744.636 520.351 718.568 511.43C690.289 501.752 658.577 494.294 625.212 489.111C590.832 483.77 554.686 480.844 518.725 480.391C482.601 479.935 446.622 481.975 412.755 486.569C380.153 490.993 349.51 497.787 322.588 507.002C300.178 514.67 280.257 524.053 263.777 535.188C248.202 545.71 235.705 557.798 227.095 571.479L225.907 573.369L225.83 571.133L225.79 569.479L225.774 567.688C225.774 561.811 225.559 556.547 225.359 551.654C224.501 530.577 223.914 516.194 241.396 496.763C249.835 487.385 260.711 478.826 273.574 471.099Z" fill="white"/>
<path fill-rule="evenodd" clip-rule="evenodd" d="M235.444 544.92C242.341 538.116 249.983 532.043 257.994 526.629C276.704 513.988 297.93 504.521 319.245 497.229C348.93 487.071 380.308 480.55 411.367 476.335C446.892 471.516 483.017 469.61 518.855 470.063C554.926 470.518 591.152 473.37 626.798 478.905C658.906 483.894 691.147 491.129 721.914 501.657C746.475 510.062 771.082 520.922 792.715 535.376C802.559 541.951 812.006 549.441 820.371 557.941C821.524 528.756 821.071 514.63 796.702 493.946C788.311 486.822 778.89 480.775 769.223 475.545C757.46 469.185 745.056 463.886 732.492 459.333C702.558 448.483 670.62 441.438 639.171 436.722C608.363 432.104 577.056 429.617 545.851 428.937C528.282 470.235 298.703 444.249 235.511 533.817C235.294 537.242 235.321 540.891 235.444 544.92Z" fill="#DCCBE5"/>
<path fill-rule="evenodd" clip-rule="evenodd" d="M494.918 546.667C495.825 567.496 503.981 577.937 506.139 580.349C509.105 576.763 512.321 573.586 515.733 570.797C531.028 558.3 550.313 553.641 569.357 555.011C588.377 556.381 607.168 563.768 621.509 575.369C625.109 578.279 628.432 581.462 631.413 584.887C630.887 580.659 630.096 576.676 629.06 572.936C623.664 553.44 611.594 540.393 595.776 532.733C579.907 525.046 560.254 522.763 539.764 524.811C530.696 525.72 521.463 527.475 512.323 529.986L504.414 549.041L494.918 546.667Z" fill="#E8BD98"/>
<path fill-rule="evenodd" clip-rule="evenodd" d="M753.916 684.55C748.355 698.99 749.27 716.217 761.04 730.499C760.036 723.385 760.383 715.94 761.87 708.692C763.578 700.366 766.796 692.291 771.204 685.279L771.414 684.943L771.809 684.959C776.288 685.127 780.477 686.58 783.942 688.948C786.856 690.937 789.263 693.578 790.908 696.644C792.555 699.717 793.436 703.216 793.296 706.924C793.175 710.162 792.274 713.556 790.424 716.954C797.354 712.457 801.551 707.34 803.636 702.208C805.445 697.747 805.662 693.271 804.688 689.177C803.717 685.076 801.551 681.354 798.611 678.42C794.907 674.724 789.967 672.27 784.614 671.859L782.831 671.723L784.245 670.63C789.437 666.619 795.3 663.824 801.642 662.727C806.528 661.883 811.695 662.045 817.056 663.436C804.569 653.543 791.365 652.535 780.062 657.004C774.236 659.307 768.905 663.063 764.432 667.803C759.949 672.555 756.323 678.292 753.916 684.55Z" fill="#E8BD98"/>
<path fill-rule="evenodd" clip-rule="evenodd" d="M515.74 598.268C501.77 613.093 493.419 633.533 493.419 655.107C493.419 676.09 501.594 692.66 514.71 704.224C529.014 716.834 549.206 723.519 571.108 723.519C592.874 723.519 611.451 716.954 624.422 704.805C636.889 693.127 644.195 676.271 644.195 655.107V654.954L656.054 630.445L639.159 626.486L639.032 626.136C633.513 611.14 623.823 598.035 611.2 588.857C599.328 580.226 584.854 575.065 568.809 575.065C547.575 575.065 529.087 584.103 515.74 598.268Z" fill="#E8BD98"/>
<path fill-rule="evenodd" clip-rule="evenodd" d="M431.172 742.49C436.276 747.768 445.128 750.82 457.099 748.566C451.681 747.633 447.306 745.378 444.134 742.33C441.313 739.618 439.443 736.277 438.64 732.679C437.834 729.08 438.095 725.227 439.528 721.495C441.275 716.95 444.758 712.574 450.173 709.053C437.867 710.906 430.569 716.674 427.638 723.294C426.185 726.577 425.805 730.068 426.418 733.391C427.031 736.714 428.644 739.876 431.172 742.49Z" fill="#E8BD98"/>
<path fill-rule="evenodd" clip-rule="evenodd" d="M270.086 590.513C275.568 560.886 287.343 542.19 289.632 538.772L289.197 538.391L290.087 537.928C295.851 534.922 301.878 532.089 308.112 529.442C314.424 526.762 320.961 524.267 327.662 521.974C353.791 513.031 383.586 506.441 415.326 502.149C448.262 497.698 483.308 495.723 518.539 496.166C545.733 496.51 573.006 498.295 599.478 501.493C625.504 504.638 650.78 509.151 674.469 515.008L675.149 515.176L674.969 515.852C672.801 523.943 669.424 538.15 667.728 553.558C666.034 568.925 666.007 585.49 670.52 598.339C673.696 607.375 677.671 612.506 681.993 614.932C686.258 617.32 690.906 617.082 695.478 615.38L696.676 614.934L696.387 616.177C694.076 626.094 692.772 637.53 694.07 649.511C695.365 661.48 699.259 674.006 707.332 686.118L715.668 698.624L721.252 684.659C728.252 667.161 739.964 647.457 755.4 633.473C767.575 622.443 782.072 614.963 798.414 614.904C802.95 614.888 807.392 615.461 811.644 616.588C815.928 617.725 820.023 619.425 823.829 621.651C827.662 623.892 831.218 626.679 834.398 629.975C837.5 633.193 840.241 636.893 842.528 641.04C847.976 650.922 850.918 663.361 850.261 677.989C849.666 691.162 846.146 706.116 838.901 722.574C834.214 733.221 827.45 743.245 819.393 751.966C811.168 760.866 801.59 768.415 791.485 773.892C787.054 776.292 782.529 778.288 777.99 779.807C773.562 781.291 769.121 782.325 764.746 782.845C760.407 783.363 756.116 783.375 751.951 782.825C747.94 782.295 744.046 781.24 740.344 779.609C735.698 777.563 731.278 774.582 727.21 770.559C723.545 766.936 720.161 762.463 717.149 757.07C714.828 759.565 713.531 762.532 713.158 765.705C712.727 769.375 713.527 773.337 715.397 777.183L715.548 777.498L715.381 777.808C701.671 803.027 677.715 824.658 647.736 841.627C616.075 859.546 577.675 872.272 537.527 878.536C516.44 881.825 494.897 883.316 473.616 882.826C453.016 882.353 432.652 880.023 413.179 875.674C358.05 863.361 318.261 835.878 293.67 798.493C268.59 760.369 259.329 711.963 265.723 658.86C264.296 662.895 263.011 666.888 261.861 670.843C260.143 676.756 258.726 682.605 257.599 688.381L257.129 690.787L256.277 688.486C253.618 681.296 249.655 674.7 244.774 669.262C239.269 663.128 232.597 658.461 225.317 656.067C218.061 653.683 210.193 653.553 202.267 656.484C198.234 657.975 194.182 660.258 190.187 663.437C195.552 662.045 200.723 661.883 205.611 662.727C211.954 663.824 217.814 666.619 223.008 670.63L224.422 671.723L222.639 671.859C217.284 672.267 212.346 674.724 208.643 678.418C205.7 681.354 203.536 685.076 202.563 689.176C201.591 693.273 201.806 697.749 203.617 702.208C205.702 707.34 209.899 712.457 216.827 716.954C214.979 713.555 214.079 710.162 213.955 706.923C213.817 703.218 214.698 699.715 216.345 696.644C217.989 693.576 220.397 690.937 223.309 688.948C226.774 686.58 230.963 685.127 235.444 684.959L235.638 684.951L235.808 685.05C241.23 688.167 245.618 695.294 248.767 703.807C252.116 712.869 254.083 723.537 254.399 732.579L254.545 732.322L254.717 734.557C255.126 739.859 255.796 745.056 256.712 750.136C257.643 755.303 258.831 760.365 260.26 765.315L260.499 766.143L259.639 766.191C251.198 766.675 243.098 765.663 235.48 763.431C227.401 761.063 219.863 757.321 213.032 752.532C204.33 746.435 196.746 738.655 190.608 729.857C184.342 720.872 179.578 710.819 176.664 700.403C174.276 691.858 173.367 683.437 173.721 675.449C174.098 667.003 175.887 659.036 178.827 651.918C180.789 647.172 183.262 642.813 186.162 638.957C189.06 635.102 192.389 631.744 196.066 629.006C199.705 626.294 203.7 624.179 207.962 622.781C212.073 621.433 216.442 620.747 220.988 620.83C240.014 621.18 253.286 633.118 266.396 644.909L268.716 646.992L268.734 646.945L268.726 647.002L269.131 647.364C265.99 625.663 267.129 606.487 270.086 590.513Z" fill="#F6B18B"/>
<path fill-rule="evenodd" clip-rule="evenodd" d="M263.713 664.801L269.131 647.364L268.726 647.002L268.734 646.945L268.716 646.992L266.396 644.909C253.286 633.118 240.014 621.18 220.988 620.83C216.442 620.747 212.073 621.433 207.962 622.781C203.7 624.179 199.705 626.294 196.066 629.006C192.389 631.744 189.06 635.102 186.162 638.957C183.262 642.813 180.789 647.172 178.827 651.918C175.887 659.036 174.098 667.003 173.721 675.449C173.367 683.437 174.276 691.858 176.664 700.403C179.578 710.819 184.342 720.872 190.608 729.857C196.746 738.655 204.33 746.435 213.032 752.532C219.863 757.321 227.401 761.063 235.48 763.431C243.098 765.663 251.198 766.675 259.639 766.191L260.499 766.143L260.26 765.315C160.935 743.085 166.956 624.902 217.545 631.959C241.866 635.353 263.707 664.824 263.707 664.824L263.713 664.801ZM600.8 862.742C580.768 869.789 559.406 875.122 537.527 878.536C516.44 881.825 494.897 883.316 473.616 882.826C453.016 882.353 432.652 880.023 413.179 875.674C358.05 863.361 318.261 835.878 293.67 798.493C271.401 764.641 261.604 722.681 264.164 676.526C264.504 674.101 264.875 671.966 265.275 670.207C265.275 670.207 272.442 807.056 386.557 855.418C500.673 903.779 609.872 858.664 609.872 858.664C609.872 858.664 606.571 860.24 600.8 862.742ZM728.983 668.191C735.775 655.629 744.69 643.175 755.4 633.473C767.575 622.443 782.072 614.963 798.414 614.904C802.95 614.888 807.392 615.461 811.644 616.588C815.928 617.725 820.023 619.425 823.829 621.651C827.662 623.892 831.218 626.679 834.398 629.975C837.5 633.193 840.241 636.893 842.528 641.04C847.976 650.922 850.918 663.361 850.261 677.989C849.666 691.162 846.146 706.116 838.901 722.574C837.47 725.824 835.843 729.015 834.048 732.13L833.145 732.318C871.351 623.337 786.682 587.408 728.641 670.288L728.983 668.191ZM270.086 590.513C275.568 560.886 287.343 542.19 289.632 538.772L289.197 538.391L290.087 537.928C294.884 535.424 299.866 533.042 304.995 530.788C304.995 530.788 267.358 584.435 269.131 647.364C265.99 625.663 267.129 606.487 270.086 590.513Z" fill="#FDE5D9"/>
<path fill-rule="evenodd" clip-rule="evenodd" d="M438.425 731.553L428.776 740.671C437.537 752.729 450.969 756.882 464.537 753.348C478.104 749.814 483.617 735.115 466.233 738.368C448.85 741.618 438.425 731.553 438.425 731.553ZM197.859 662.254C200.51 662.126 203.097 662.292 205.61 662.727C211.953 663.824 217.814 666.619 223.007 670.63L224.422 671.723L222.639 671.859C217.284 672.268 212.345 674.724 208.642 678.418C205.699 681.354 203.536 685.076 202.562 689.177C201.591 693.273 201.805 697.75 203.617 702.208C205.701 707.34 209.899 712.457 216.826 716.954L216.662 716.648C217.917 718.204 218.903 719.028 218.903 719.028C183.261 705.734 181.286 667.762 197.859 662.254ZM436.806 655.107C436.806 655.107 436.622 611.464 409.183 580.914C409.183 580.914 419.059 578.757 423.362 581.392C423.362 581.392 407.39 558.569 384.759 550.083C362.131 541.595 286.895 552.52 289.86 625.908L436.806 655.107ZM289.196 538.391L290.087 537.928C295.851 534.923 301.878 532.089 308.111 529.442C314.423 526.762 320.96 524.267 327.661 521.974C353.791 513.031 383.586 506.441 415.325 502.149C448.261 497.698 483.308 495.723 518.538 496.166C545.733 496.51 573.006 498.295 599.477 501.493C625.504 504.638 650.779 509.151 674.468 515.008L675.148 515.176L674.968 515.852C672.801 523.943 669.423 538.151 667.727 553.558C666.033 568.925 666.007 585.49 670.52 598.339C673.695 607.376 677.67 612.506 681.993 614.932C686.257 617.321 690.906 617.082 695.477 615.38L696.676 614.935L696.386 616.177C694.075 626.094 692.772 637.531 694.069 649.512C695.364 661.481 699.258 674.006 707.331 686.119L715.218 697.95L715.819 700.089C715.819 700.089 714.845 718.484 720.358 732.687C720.358 732.687 734.033 645.97 791.277 639.929C832.003 635.63 838.823 673.951 830.853 707.557C817.537 763.728 738.852 801.554 717.307 755.93C717.307 755.93 717.317 756.532 717.45 757.604L717.149 757.07C714.827 759.565 713.53 762.532 713.158 765.706C712.727 769.375 713.526 773.337 715.396 777.183L715.548 777.498L715.38 777.808C701.67 803.027 677.714 824.658 647.735 841.627C637.054 847.673 625.603 853.127 613.579 857.939C703.091 808.238 663.029 692.396 609.311 710.823C568.905 724.687 528.886 714.636 528.886 714.636C491.907 700.476 467.269 639.985 506.175 581.392C506.175 581.392 508.832 545.313 558.118 546.902C607.407 548.492 632.346 587.058 632.346 587.058C632.346 587.058 631.891 532.751 528.085 510.262C424.279 487.771 289.196 538.391 289.196 538.391Z" fill="#D46D6F"/>
<path fill-rule="evenodd" clip-rule="evenodd" d="M413.798 598.268C400.449 584.103 381.963 575.065 360.729 575.065C344.682 575.065 330.208 580.226 318.336 588.859C305.713 598.038 296.025 611.144 290.506 626.144L290.379 626.493L273.484 630.445L285.342 654.954V655.107C285.342 676.271 292.65 693.127 305.116 704.805C318.087 716.954 336.664 723.519 358.428 723.519C380.332 723.519 400.524 716.834 414.826 704.224C427.944 692.66 436.117 676.09 436.117 655.107C436.117 633.533 427.766 613.093 413.798 598.268Z" fill="#E8BD98"/>
<path fill-rule="evenodd" clip-rule="evenodd" d="M423.397 580.349C425.554 577.937 433.712 567.496 434.617 546.667L425.123 549.041L417.214 529.986C408.075 527.475 398.842 525.72 389.773 524.813C369.284 522.763 349.63 525.046 333.76 532.733C317.943 540.393 305.871 553.44 300.476 572.936C299.442 576.676 298.65 580.659 298.124 584.887C301.103 581.462 304.428 578.279 308.029 575.369C322.367 563.768 341.159 556.381 360.179 555.011C379.225 553.641 398.51 558.3 413.804 570.797C417.216 573.586 420.432 576.763 423.397 580.349Z" fill="#E8BD98"/>
<path fill-rule="evenodd" clip-rule="evenodd" d="M407.022 698.828C394.618 710.073 377.219 716.215 358.428 716.215C339.756 716.215 323.948 710.202 312.866 699.411C302 688.83 295.691 673.672 295.691 655.107C295.691 636.861 302.51 621.146 314.058 609.994C325.595 598.849 341.849 592.268 360.729 592.268C379.607 592.268 395.863 598.849 407.403 609.994C418.949 621.146 425.767 636.861 425.767 655.107C425.767 673.52 418.556 688.371 407.022 698.828ZM616.67 699.411C605.588 710.202 589.782 716.215 571.108 716.215C552.319 716.215 534.92 710.073 522.516 698.828C510.982 688.371 503.769 673.52 503.769 655.107C503.769 636.861 510.587 621.146 522.135 609.994C533.673 598.849 549.929 592.268 568.809 592.268C587.687 592.268 603.941 598.849 615.48 609.994C627.026 621.146 633.847 636.861 633.847 655.107C633.847 673.672 627.536 688.83 616.67 699.411Z" fill="white"/>
<path fill-rule="evenodd" clip-rule="evenodd" d="M294.58 428.064C299.016 431.072 303.738 433.618 308.723 435.632L310.346 436.289L308.713 436.913C292.164 443.235 277.082 450.456 263.867 458.576C251.179 466.371 240.216 474.997 231.332 484.448C230.368 485.472 229.431 486.494 228.523 487.514C227.622 488.518 226.768 489.506 225.954 490.471L225.195 491.374L224.785 490.267C222.283 483.509 220.439 475.689 219.31 467.369C216.871 449.389 217.768 429.052 222.53 412.001C227.322 394.839 236.043 380.976 249.236 376.09C251.264 375.34 253.401 374.801 255.65 374.496L256.209 374.421L256.391 374.957C259.22 383.233 262.822 391.089 267.137 398.3C271.345 405.329 276.24 411.75 281.767 417.352C285.732 421.37 290.01 424.966 294.58 428.064Z" fill="#935C29"/>
<path fill-rule="evenodd" clip-rule="evenodd" d="M244.616 571.865C248.853 566.978 253.792 562.272 259.319 557.784L261.217 556.241L260.399 558.545C258.013 565.266 255.917 573.146 254.54 582.236C253.162 591.333 252.506 601.636 253.004 613.186L253.079 614.926L251.837 613.704C247.959 609.891 244.318 605.167 241.363 600.697C237.585 594.978 234.911 589.633 234.284 587.097L234.221 586.844L234.345 586.609C237.046 581.537 240.503 576.613 244.616 571.865Z" fill="#3B2015"/>
<path fill-rule="evenodd" clip-rule="evenodd" d="M711.425 623.586C714.475 605.722 721.168 589.181 725.038 580.623C718.41 588.299 710.116 593.644 702.85 596.196C699.792 597.271 696.902 597.853 694.383 597.912C691.798 597.971 689.59 597.477 687.963 596.394C686.787 595.613 685.917 594.532 685.429 593.142C682.412 584.549 681.888 573.675 682.61 562.744C683.723 545.861 687.803 528.821 690.222 519.894L690.404 519.22L691.072 519.41C694.941 520.507 698.748 521.64 702.48 522.804C706.198 523.961 709.871 525.164 713.494 526.402C740.194 535.54 763.614 546.651 782.087 559.662C799.415 571.867 812.4 585.757 819.668 601.27L820.334 602.69L818.84 602.217C815.582 601.185 812.228 600.403 808.806 599.885C805.392 599.369 801.917 599.114 798.414 599.126C780.994 599.191 765.589 605.558 752.386 615.463C736.331 627.504 723.518 644.78 714.271 662.333L713.53 663.739L713.012 662.235C708.906 650.327 709.203 636.596 711.425 623.586Z" fill="#5F2E15"/>
<path fill-rule="evenodd" clip-rule="evenodd" d="M394.907 416.78C369.366 410.473 343.421 391.674 321.845 354.703C322.61 368.754 326.206 380.972 331.891 391.352C338.513 403.449 347.977 413.062 359.101 420.188L360.447 421.052L358.895 421.434C357.074 421.882 355.335 422.321 353.684 422.746C352.079 423.159 350.361 423.612 348.533 424.106L348.47 424.118C337.592 426.014 327.572 425.229 318.548 422.325C308.83 419.198 300.269 413.616 293.028 406.278C287.889 401.073 283.382 394.979 279.561 388.24C275.647 381.334 272.451 373.745 270.039 365.735C267.608 357.666 265.971 349.178 265.192 340.532C264.425 332.005 264.49 323.331 265.445 314.76C266.783 302.761 269.871 290.948 274.864 280.011C279.541 269.765 285.892 260.285 294.039 252.143L295.565 250.619L295.201 252.746C292.659 267.628 293.04 282.569 296.774 296.803C300.038 309.239 305.863 321.142 314.535 331.999C313.644 328.877 312.853 325.77 312.155 322.682C302.912 281.744 310.238 243.68 329.556 212.895C348.869 182.125 380.168 158.634 418.875 146.825C423.259 145.49 427.74 144.3 432.303 143.269L434.396 142.798L432.969 144.397C416.005 163.408 406.344 185.576 401.482 207.943C395.381 236.025 396.84 264.432 400.92 287.323C406.84 270.499 413.162 255.347 422.415 241.737C432.129 227.448 445.059 214.874 464.116 203.877L465.719 202.952L465.106 204.697C461.776 214.196 459.71 223.346 458.66 232.091C457.504 241.694 457.571 250.812 458.528 259.376L458.53 259.435C458.591 261.659 458.828 263.946 459.251 266.29C459.665 268.593 460.26 270.963 461.046 273.389L461.06 273.432C465.28 290.323 473.67 307.104 484.862 319.35C494.253 329.627 505.614 336.707 518.124 337.953C513.831 333.689 500.324 319.549 489.343 300.298C482.713 288.675 476.998 275.18 474.771 260.852L474.763 260.749C474.703 251.439 480.298 243.554 489.958 237.47C501.972 229.903 520.324 225.109 541.869 223.834C563.37 222.563 588.079 224.789 612.863 231.253C665.3 244.93 718.092 277.589 741.643 336.225C741.006 324.916 741.36 312.401 745.145 301.547C749.476 289.131 758.269 278.914 775.128 275.168L776.303 274.907L775.929 276.049C773.059 284.844 770.082 297.327 769.75 311.911C769.507 322.558 770.675 334.337 774.32 346.62L774.563 347.443L773.705 347.5C763.513 348.16 753.284 350.722 743.513 355.403C734.331 359.801 725.544 366.077 717.554 374.409L716.617 375.386L716.382 374.05C705.737 313.633 648.81 295.696 632.306 291.727C654.677 304.427 670.097 319.17 680.722 333.408C700.442 359.839 703.658 384.566 704.178 391.324L704.194 391.546L704.073 391.741C702.944 393.524 701.837 395.376 700.758 397.29C700.341 398.029 699.93 398.776 699.525 399.528L700.835 398.322C702.241 397.039 703.666 395.774 705.105 394.53L705.188 394.459L705.277 394.42C709.645 392.49 714.275 391.095 718.976 390.28C728.689 388.598 738.713 389.391 747.383 393.024C756.085 396.673 763.426 403.177 767.724 412.9C768.663 415.023 769.457 417.3 770.086 419.734C771.054 407.751 767.492 398.249 761.104 391.334C754.661 384.354 745.327 379.982 734.861 378.325C733.459 378.104 732.014 377.928 730.535 377.803L728.322 377.614L730.251 376.52C750.081 365.269 768.149 362.12 783.709 364.751C797.91 367.151 810.01 374.366 819.439 384.629C828.85 394.87 835.606 408.154 839.143 422.721C844.421 444.447 842.547 469.043 831.663 490.68L831.192 491.613L830.522 490.811C828.383 488.249 825.972 485.636 823.268 482.951C820.556 480.259 817.545 477.49 814.206 474.625C805.056 466.774 794.38 459.575 782.423 453.03C770.036 446.248 756.265 440.163 741.392 434.773C719.057 426.678 694.164 420.109 667.691 415.065C640.28 409.846 611.173 406.26 581.447 404.313L579.387 404.177L581.115 403.05C598.64 391.629 603.539 376.6 604.833 370.719C593.778 383.718 579.543 391.461 565.924 396.058C551.642 400.876 538.034 402.234 529.492 402.572L524.242 402.578L520.538 402.607C515.098 402.651 509.648 402.754 504.202 402.91C498.784 403.066 493.356 403.277 487.928 403.54L486.443 403.613L487.353 402.435C492.615 395.63 496.817 387.77 499.632 378.855C501.828 371.903 503.182 364.31 503.538 356.081C496.878 376.56 480.924 395.414 460.303 407.091C450.791 412.477 440.283 416.342 429.237 418.138C418.183 419.935 406.587 419.663 394.907 416.78Z" fill="#5F2E15"/>
<path fill-rule="evenodd" clip-rule="evenodd" d="M707.748 524.484C709.677 525.113 711.594 525.753 713.494 526.402C740.194 535.54 763.614 546.651 782.088 559.662C799.416 571.867 812.401 585.757 819.668 601.27L820.334 602.69L818.84 602.217C815.582 601.185 812.229 600.403 808.806 599.885C805.392 599.369 801.917 599.114 798.414 599.126C780.995 599.191 765.589 605.558 752.386 615.463C744.724 621.21 737.8 628.152 731.648 635.745C726.916 602.251 744.125 555.458 744.125 555.458C744.125 555.458 706.985 590.901 699.821 578.835C694.166 569.311 703.545 537.475 707.748 524.484Z" fill="#3B2015"/>
<path fill-rule="evenodd" clip-rule="evenodd" d="M604.404 371.219C610.643 358.643 606.417 345.782 606.417 345.782C579.82 389.235 513.629 389.098 495.987 388.246C493.589 393.398 490.683 398.128 487.354 402.435L486.443 403.613L487.928 403.54C493.356 403.277 498.784 403.066 504.202 402.91C509.648 402.754 515.098 402.651 520.538 402.607L524.242 402.578L529.492 402.572C538.034 402.234 551.643 400.876 565.925 396.058C579.369 391.522 593.41 383.917 604.404 371.219ZM768.437 445.939C750.617 401.081 697.042 402.821 697.042 402.821C687.747 369.519 648.092 354.879 648.092 354.879C664.491 380.891 663.926 402.38 663.926 402.38C647.09 386.011 612.71 381.664 601.319 380.65C598.015 387.47 592 395.956 581.116 403.05L579.387 404.177L581.447 404.313C611.173 406.26 640.28 409.846 667.691 415.065C694.165 420.109 719.058 426.678 741.393 434.773C750.882 438.212 759.921 441.934 768.437 445.939ZM765.519 408.619C766.322 409.971 767.061 411.396 767.725 412.9C768.664 415.023 769.457 417.3 770.086 419.734C771.017 408.19 767.745 398.95 761.795 392.105C773.725 394.857 793.065 401.738 801.012 418.2C809.361 435.494 810.723 459.219 810.794 471.783C802.437 465.03 792.923 458.778 782.424 453.03C779.133 451.229 775.745 449.476 772.266 447.774C772.608 438.469 771.964 422.738 765.519 408.619ZM294.58 428.064C299.016 431.072 303.738 433.618 308.723 435.631L310.346 436.289L308.712 436.913C292.164 443.235 277.082 450.456 263.866 458.576C260.499 460.644 257.255 462.773 254.136 464.957C249.991 435.239 263.397 413.033 270.531 403.614C273.913 408.587 277.667 413.195 281.767 417.352C285.732 421.37 290.01 424.966 294.58 428.064ZM394.907 416.779C369.395 410.481 343.482 391.716 321.918 354.826C321.622 353.869 321.325 352.916 321.046 351.938C362.795 409.35 462.06 404.234 504.317 350.872C504.317 350.872 504.032 353.12 503.368 356.599C496.607 376.878 480.75 395.513 460.303 407.091C450.791 412.477 440.284 416.342 429.237 418.138C418.183 419.935 406.587 419.663 394.907 416.779Z" fill="#3B2015"/>
<path fill-rule="evenodd" clip-rule="evenodd" d="M233.56 482.139C232.803 482.904 232.06 483.673 231.332 484.448C230.368 485.472 229.431 486.494 228.523 487.514C227.622 488.518 226.768 489.506 225.954 490.471L225.195 491.374L224.785 490.267C222.283 483.509 220.439 475.689 219.31 467.369C216.871 449.389 217.768 429.052 222.53 412.001C227.322 394.839 236.043 380.976 249.236 376.09C251.264 375.34 253.401 374.801 255.65 374.496L256.209 374.421L256.391 374.957C257.718 378.839 259.216 382.632 260.877 386.305C246.954 394.509 216.879 420.074 233.56 482.139Z" fill="#B0895C"/>
<path fill-rule="evenodd" clip-rule="evenodd" d="M746.1 381.344C742.576 379.958 738.8 378.948 734.861 378.325C733.459 378.104 732.014 377.928 730.535 377.803L728.322 377.614L730.251 376.52C750.081 365.269 768.149 362.12 783.709 364.751C797.91 367.151 810.01 374.366 819.439 384.629C828.85 394.87 835.606 408.154 839.143 422.722C844.421 444.447 842.547 469.043 831.663 490.68L831.499 491.003L830.71 491.038V491.036C830.716 490.997 839.473 429.297 811.595 397.029C789.12 371.015 757.52 377.75 746.1 381.344ZM634.822 293.182C630.531 291.114 627.924 290.094 627.924 290.094C686.334 334.764 697.042 402.821 697.042 402.821C740.318 384.157 770.281 423.899 770.281 423.899C770.054 421.109 769.59 418.474 768.945 415.982C768.57 414.92 768.164 413.894 767.724 412.9C763.426 403.177 756.085 396.673 747.383 393.024C738.713 389.391 728.689 388.598 718.976 390.28C714.275 391.095 709.645 392.49 705.277 394.42L705.188 394.459L705.105 394.53C703.666 395.774 702.241 397.039 700.835 398.322L699.525 399.528C699.93 398.776 700.341 398.029 700.758 397.29C701.837 395.376 702.944 393.524 704.073 391.741L704.194 391.546L704.178 391.324C703.658 384.566 700.442 359.839 680.722 333.408C670.502 319.711 655.841 305.546 634.822 293.182ZM480.268 281.226C477.797 274.717 475.864 267.885 474.771 260.852L474.763 260.749C474.703 251.439 480.298 243.554 489.958 237.471C501.972 229.903 520.324 225.109 541.869 223.834C563.37 222.563 588.079 224.789 612.863 231.253C665.3 244.93 718.092 277.589 741.643 336.225C741.006 324.916 741.36 312.401 745.145 301.547C749.476 289.131 758.269 278.914 775.128 275.168L776.303 274.907L775.929 276.049C773.059 284.844 770.082 297.327 769.75 311.911C769.507 322.558 770.675 334.337 774.32 346.62L774.563 347.443L773.705 347.5C770.297 347.72 766.886 348.154 763.491 348.807C761.157 337.686 757.654 315.107 761.904 294.049C761.904 294.049 746.361 302.972 742.637 340.692C742.637 340.692 682.456 259.049 604.853 242.524C527.249 226.002 488.422 245.291 480.268 281.226ZM314.407 331.55C315.468 333.76 316.14 335.021 316.14 335.021C303.883 216.004 395.352 175.732 395.352 175.732C356.549 278.147 410.41 350.242 410.41 350.242C406.182 281.906 442.214 237.436 442.214 237.436C429.492 334.974 519.961 338.783 519.961 338.783C519.237 338.514 518.524 338.223 517.818 337.921C505.43 336.591 494.176 329.545 484.862 319.351C473.67 307.104 465.28 290.323 461.06 273.432L461.046 273.389C460.26 270.963 459.665 268.593 459.251 266.29C458.828 263.946 458.591 261.659 458.53 259.435L458.528 259.376C457.571 250.812 457.504 241.694 458.66 232.091C459.71 223.346 461.776 214.197 465.106 204.697L465.719 202.952L464.116 203.877C445.059 214.875 432.129 227.449 422.415 241.737C413.162 255.347 406.84 270.499 400.92 287.323C396.84 264.432 395.381 236.026 401.482 207.943C406.344 185.576 416.005 163.409 432.969 144.397L434.396 142.798L432.303 143.269C427.74 144.3 423.259 145.49 418.875 146.825C380.168 158.634 348.869 182.125 329.556 212.895C310.238 243.68 302.912 281.744 312.155 322.682C312.819 325.622 313.569 328.579 314.407 331.55ZM359.701 420.572L360.447 421.052L358.895 421.434C357.074 421.882 355.335 422.321 353.684 422.746C352.079 423.159 350.361 423.612 348.533 424.106L348.47 424.118C337.592 426.014 327.572 425.229 318.548 422.325C308.83 419.198 300.269 413.616 293.028 406.278C287.889 401.073 283.382 394.979 279.561 388.24C275.647 381.334 272.451 373.745 270.039 365.735C267.608 357.666 265.971 349.178 265.192 340.532C264.425 332.006 264.49 323.331 265.445 314.76C266.783 302.761 269.871 290.948 274.864 280.011C279.541 269.765 285.892 260.285 294.039 252.143L295.565 250.619L295.201 252.746C293.461 262.94 293.09 273.161 294.23 283.165C286.294 295.052 275.244 318.764 280.332 354.098C287.964 407.11 344.627 424.041 358.731 420.769C359.063 420.69 359.385 420.629 359.701 420.572Z" fill="#B0895C"/>
<path fill-rule="evenodd" clip-rule="evenodd" d="M359.47 702.87C386.494 702.87 408.534 680.83 408.534 653.804C408.534 626.78 386.494 604.738 359.47 604.738C332.444 604.738 310.402 626.78 310.402 653.804C310.402 680.83 332.444 702.87 359.47 702.87Z" fill="#4A389B"/>
<path fill-rule="evenodd" clip-rule="evenodd" d="M404.466 673.389C396.903 690.739 379.605 702.87 359.468 702.87C339.331 702.87 322.033 690.739 314.472 673.389C320.036 653.778 338.074 639.413 359.468 639.413C380.862 639.413 398.9 653.778 404.466 673.389Z" fill="#7042A4"/>
<path fill-rule="evenodd" clip-rule="evenodd" d="M359.47 681.656C374.808 681.656 387.319 669.145 387.319 653.804C387.319 638.466 374.808 625.954 359.47 625.954C344.129 625.954 331.618 638.466 331.618 653.804C331.618 669.145 344.129 681.656 359.47 681.656Z" fill="#100F0D"/>
<path fill-rule="evenodd" clip-rule="evenodd" d="M330.534 656.984C343.757 656.984 354.542 646.201 354.542 632.977C354.542 619.753 343.757 608.97 330.534 608.97C317.312 608.97 306.527 619.753 306.527 632.977C306.527 646.201 317.312 656.984 330.534 656.984Z" fill="white"/>
<path fill-rule="evenodd" clip-rule="evenodd" d="M390.936 677.977C404.16 677.977 414.943 673.65 414.943 668.345C414.943 663.041 404.16 658.714 390.936 658.714C377.713 658.714 366.928 663.041 366.928 668.345C366.928 673.65 377.713 677.977 390.936 677.977Z" fill="white"/>
<path fill-rule="evenodd" clip-rule="evenodd" d="M567.536 702.87C594.562 702.87 616.602 680.83 616.602 653.804C616.602 626.78 594.562 604.738 567.536 604.738C540.512 604.738 518.47 626.78 518.47 653.804C518.47 680.83 540.512 702.87 567.536 702.87Z" fill="#4A389B"/>
<path fill-rule="evenodd" clip-rule="evenodd" d="M612.531 673.389C604.97 690.739 587.672 702.87 567.535 702.87C547.398 702.87 530.101 690.739 522.54 673.389C528.103 653.778 546.141 639.413 567.535 639.413C588.929 639.413 606.968 653.778 612.531 673.389Z" fill="#7042A4"/>
<path fill-rule="evenodd" clip-rule="evenodd" d="M567.536 681.656C582.877 681.656 595.388 669.145 595.388 653.804C595.388 638.466 582.877 625.954 567.536 625.954C552.197 625.954 539.686 638.466 539.686 653.804C539.686 669.145 552.197 681.656 567.536 681.656Z" fill="#100F0D"/>
<path fill-rule="evenodd" clip-rule="evenodd" d="M538.601 656.984C551.825 656.984 562.608 646.201 562.608 632.977C562.608 619.753 551.825 608.97 538.601 608.97C525.38 608.97 514.595 619.753 514.595 632.977C514.595 646.201 525.38 656.984 538.601 656.984Z" fill="white"/>
<path fill-rule="evenodd" clip-rule="evenodd" d="M599.005 677.977C612.228 677.977 623.011 673.65 623.011 668.345C623.011 663.041 612.228 658.714 599.005 658.714C585.781 658.714 574.996 663.041 574.996 668.345C574.996 673.65 585.781 677.977 599.005 677.977Z" fill="white"/>
<path fill-rule="evenodd" clip-rule="evenodd" d="M387.134 748.155C407.299 796.603 513.959 800.264 540.299 751.579L530.995 746.358L536.375 736.761L565.042 752.854L559.663 762.451L549.89 756.965C520.046 811.802 408.135 812.982 382.036 750.272L387.134 748.155Z" fill="#100F0D"/>
<path fill-rule="evenodd" clip-rule="evenodd" d="M458.115 261.671C455.889 244.659 457.115 225.423 464.458 204.472C426.546 226.352 413.018 254.483 400.713 289.997C392.853 248.632 393.223 187.907 432.455 143.939C343.504 164.026 288.243 243.572 316.14 335.021C245.862 252.738 344.542 106.47 483.132 125.948C443.04 153.397 422.791 172.036 415.884 224.115C440.423 193.159 465.306 181.925 498.606 173.044C483.46 197.801 472.161 221.634 474.7 254.343C478.23 299.784 519.832 338.666 519.961 338.783C487.756 337.093 462.774 297.283 458.115 261.671Z" fill="#100F0D"/>
<path fill-rule="evenodd" clip-rule="evenodd" d="M504.317 350.872C505.169 464.275 324.13 464.663 321.045 351.938C385.025 464.91 488.918 413.232 504.317 350.872Z" fill="#100F0D"/>
<path fill-rule="evenodd" clip-rule="evenodd" d="M838.518 511.379L824.395 501.562C875.77 427.579 803.309 300.545 697.042 402.821C757.985 281.041 932.763 375.661 838.518 511.379Z" fill="#100F0D"/>
<path fill-rule="evenodd" clip-rule="evenodd" d="M460.392 273.6C431.692 184.889 651.801 168.747 733.772 288.756C748.022 258.931 777.2 255.126 802.53 257.537C787.191 286.953 780.061 315.359 792.287 349.248L775.667 352.924C764.235 321.233 769.938 292.187 775.275 275.838C742.117 283.209 740.692 316.011 742.637 340.692C688.696 194.82 456.154 204.743 476.734 268.354L460.392 273.6Z" fill="#100F0D"/>
<path fill-rule="evenodd" clip-rule="evenodd" d="M843.754 602.913C841.378 608.837 838.146 611.247 834.365 613.429L825.341 618.638L821.957 608.754C809.875 573.448 768.653 546.005 713.273 527.054C657.42 507.939 587.677 497.727 518.531 496.852C449.437 495.98 381.06 504.425 327.88 522.624C285.218 537.226 249.299 559.984 234.95 586.933C236.043 591.345 243.578 604.617 252.318 613.214L249.198 617.128L229.417 608.221L218.879 597.683C214.287 593.326 209.245 588.54 209.245 567.688C209.245 528.361 202.433 514.19 230.831 483.979C250.117 463.459 279.102 446.856 314.223 434.128C332.266 427.587 351.976 422.044 372.835 417.494C384.873 423.116 402.231 428.362 422.662 426.12L422.787 426.105C385.326 431.284 350.227 439.339 320.074 450.268C286.402 462.471 259.076 478.142 241.908 497.223C220.53 520.984 226.462 537.173 226.462 567.688C226.462 568.923 226.48 570.06 226.517 571.113C244.324 542.807 278.622 521.32 322.367 506.35C377.33 487.541 447.743 478.808 518.733 479.704C589.67 480.601 661.31 491.109 718.788 510.778C769.532 528.145 809.612 552.829 829.352 584.644C829.376 583.604 829.388 582.493 829.388 581.299C829.388 538.325 838.241 516.558 802.943 486.596C786.034 472.245 762.975 460.126 735.776 450.268C678.453 429.491 603.266 419.103 527.925 419.103C493.753 419.103 459.611 421.24 427.155 425.514C449.265 422.013 464.65 411.499 473.383 403.694C491.411 402.487 509.672 401.886 527.925 401.886C605.045 401.886 682.323 412.633 741.627 434.128C770.93 444.747 795.961 458.064 814.651 474.102C856.591 510.088 846.605 530.504 846.605 581.299C846.605 591.899 845.551 598.424 843.754 602.913Z" fill="#100F0D"/>
<path fill-rule="evenodd" clip-rule="evenodd" d="M315.46 237.096C285.135 253.418 269.624 283.468 266.129 314.835C264.215 332.018 265.888 349.58 270.697 365.54C275.435 381.263 283.192 395.335 293.518 405.796C307.43 419.894 326.243 427.435 348.797 423.363L351.822 440.242C323.037 445.441 299.029 435.822 281.278 417.834C268.934 405.327 259.742 388.774 254.221 370.448C248.771 352.363 246.875 332.447 249.048 312.951C253.118 276.417 271.43 241.285 307.324 221.964L315.46 237.096Z" fill="#100F0D"/>
<path fill-rule="evenodd" clip-rule="evenodd" d="M262.559 374.985C214.756 371.502 209.134 466.586 230.716 501.044L216.191 510.122C184.075 458.845 199.656 342.297 266.526 358.307L262.559 374.985Z" fill="#100F0D"/>
<path fill-rule="evenodd" clip-rule="evenodd" d="M267.2 652.865C251.932 760.442 300.203 849.737 413.326 875.004C452.836 883.828 496.008 884.318 537.421 877.858C617.294 865.397 690.198 827.317 716.765 773.651L732.166 781.251C703.033 840.093 625.011 881.549 540.044 894.803C496.613 901.579 451.249 901.045 409.629 891.749C301.17 867.524 220.209 775.39 267.2 652.865Z" fill="#100F0D"/>
<path fill-rule="evenodd" clip-rule="evenodd" d="M220.977 621.516C211.884 621.348 203.51 624.315 196.475 629.559C189.219 634.966 183.336 642.805 179.461 652.181C173.794 665.894 172.452 682.791 177.325 700.219C183.051 720.69 195.967 739.736 213.424 751.972C228.721 762.69 247.577 768.12 268.141 764.512L271.099 781.457C245.704 785.916 222.449 779.231 203.607 766.025C182.859 751.484 167.54 728.953 160.783 704.792C154.831 683.516 156.547 662.697 163.59 645.656C168.655 633.402 176.49 623.048 186.253 615.772C196.234 608.333 208.187 604.125 221.247 604.368C231.196 604.55 241.695 607.317 252.318 613.214C249.76 553.797 277.543 527.451 277.626 527.355L290.54 538.652C290.461 538.741 259.683 582.066 270.09 649.135C255.658 636.363 241.738 621.898 220.977 621.516Z" fill="#100F0D"/>
<path fill-rule="evenodd" clip-rule="evenodd" d="M692.714 513.711C692.669 513.859 676.408 565.387 686.077 592.915C689.591 602.915 715.174 594.976 728.543 574.885C728.471 575 701.487 626.701 713.664 662.013C730.616 629.84 759.504 598.586 798.414 598.44C810.508 598.396 822.083 601.492 832.157 607.384C842.252 613.283 850.853 621.973 856.988 633.098C869.61 655.992 871.63 689.193 854.007 729.222C843.086 754.026 822.382 775.908 799.296 788.419C788.756 794.13 777.66 797.935 766.682 799.244C755.327 800.596 744.097 799.297 733.694 794.715C714.46 786.247 706.304 766.531 717.307 755.93C723.652 767.638 731.707 775.056 740.622 778.98C748.059 782.254 756.256 783.165 764.665 782.161C773.454 781.115 782.474 777.992 791.159 773.287C811.033 762.518 828.86 743.668 838.271 722.297C853.468 687.778 852.183 659.979 841.924 641.372C837.355 633.082 830.965 626.618 823.483 622.247C815.983 617.861 807.384 615.556 798.414 615.59C761.704 615.726 734.334 653.81 721.891 684.916L715.82 700.089L706.759 686.497C690.473 662.067 691.066 635.984 695.717 616.021C686.213 619.561 676.347 616.993 669.873 598.564C658.304 565.64 676.256 508.831 676.306 508.667L692.714 513.711Z" fill="#100F0D"/>
<path fill-rule="evenodd" clip-rule="evenodd" d="M762.11 732.786C759.17 717.055 763.191 699.316 771.784 685.643C787.388 686.232 799.363 702.904 788.349 719.028C818.792 701.463 804.536 672.694 784.664 671.175C794.48 663.591 806.705 660.432 820.034 665.054C778.058 627.383 725.874 692.834 762.11 732.786Z" fill="#100F0D"/>
<path fill-rule="evenodd" clip-rule="evenodd" d="M253.754 735.093C253.754 717.585 246.921 692.233 235.468 685.643C219.863 686.232 207.888 702.904 218.903 719.028C188.461 701.463 202.717 672.695 222.589 671.175C212.773 663.591 200.547 660.432 187.216 665.055C229.195 627.383 279.264 690.911 253.754 735.093Z" fill="#100F0D"/>
<path fill-rule="evenodd" clip-rule="evenodd" d="M360.729 592.956C323.333 592.956 296.379 618.996 296.379 655.108C296.379 692.224 321.817 715.527 358.428 715.527C394.341 715.527 425.079 692.927 425.079 655.108C425.079 618.994 398.125 592.956 360.729 592.956ZM360.729 574.377C404.577 574.377 436.807 612.555 436.807 655.108C436.807 699.371 400.779 724.209 358.428 724.209C315.377 724.209 284.653 698.676 284.653 655.108L272.492 629.972L289.861 625.902V625.908C300.664 596.538 327.324 574.377 360.729 574.377Z" fill="#100F0D"/>
<path fill-rule="evenodd" clip-rule="evenodd" d="M568.808 592.956C606.202 592.956 633.156 618.996 633.156 655.108C633.156 692.224 607.72 715.527 571.107 715.527C535.196 715.527 504.457 692.927 504.457 655.108C504.457 618.994 531.412 592.956 568.808 592.956ZM568.808 574.377C524.96 574.377 492.73 612.555 492.73 655.108C492.73 699.371 528.757 724.209 571.107 724.209C614.16 724.209 644.884 698.676 644.884 655.108L657.045 629.972L639.677 625.902L639.674 625.908C628.871 596.538 602.213 574.377 568.808 574.377Z" fill="#100F0D"/>
<path fill-rule="evenodd" clip-rule="evenodd" d="M297.191 587.058C325.723 552.135 390.358 540.591 423.362 581.392C423.362 581.392 434.522 570.71 435.339 545.776L425.53 548.229L417.72 529.414C362.241 514.057 303.256 526.41 297.191 587.058Z" fill="#100F0D"/>
<path fill-rule="evenodd" clip-rule="evenodd" d="M632.347 587.058C603.813 552.135 539.18 540.591 506.175 581.392C506.175 581.392 495.016 570.71 494.198 545.776L504.008 548.229L511.818 529.414C567.297 514.057 626.281 526.41 632.347 587.058Z" fill="#100F0D"/>
<path fill-rule="evenodd" clip-rule="evenodd" d="M453.345 707.984C410.448 711.797 420.132 759.478 461.248 748.317C436.585 747.236 429.97 720.414 453.345 707.984Z" fill="#100F0D"/>
<path fill-rule="evenodd" clip-rule="evenodd" d="M520.539 401.919C522.722 401.937 576.878 404.985 605.954 368.275C605.954 368.275 601.152 419.107 519.863 417.921L520.539 401.919Z" fill="#100F0D"/>
<path fill-rule="evenodd" clip-rule="evenodd" d="M703.591 393.17C703.591 393.17 702.721 330.22 627.924 290.094C627.924 290.094 705.344 302.862 717.258 375.095L710.826 383.49L717.853 377.266C747.508 374.127 775.601 390.298 770.28 423.899C764.545 390.794 730.593 383.906 705.433 395.104L707.044 386.594L703.591 393.17Z" fill="#100F0D"/>
<defs>
<linearGradient id="paint0_linear_570_93" x1="81" y1="83.4617" x2="944.102" y2="952.959" gradientUnits="userSpaceOnUse">
<stop stop-color="#BA66FF"/>
<stop offset="1" stop-color="#9436E4"/>
</linearGradient>
</defs>
</svg>
