<?xml version="1.0" encoding="UTF-8"?>
<svg id="Layer_2" data-name="Layer 2" xmlns="http://www.w3.org/2000/svg" viewBox="0 0 313.75 500.12">
  <defs>
    <style>
      .cls-1 {
        fill: #f66;
      }

      .cls-1, .cls-2, .cls-3, .cls-4, .cls-5, .cls-6, .cls-7, .cls-8, .cls-9, .cls-10, .cls-11, .cls-12, .cls-13, .cls-14, .cls-15, .cls-16, .cls-17, .cls-18 {
        fill-rule: evenodd;
        stroke-width: 0px;
      }

      .cls-3 {
        fill: #442100;
      }

      .cls-4 {
        fill: #e44b4b;
      }

      .cls-5 {
        fill: #4d27b3;
      }

      .cls-6 {
        fill: #ffe8db;
      }

      .cls-7 {
        fill: #b48f6a;
      }

      .cls-8 {
        fill: #d7cde0;
      }

      .cls-9 {
        fill: #d48077;
      }

      .cls-10 {
        fill: #d8cee1;
      }

      .cls-11 {
        fill: #fff;
      }

      .cls-12 {
        fill: #f7bc99;
      }

      .cls-13 {
        fill: #8a32e0;
      }

      .cls-14 {
        fill: #371685;
      }

      .cls-15 {
        fill: #4b1eb6;
      }

      .cls-16 {
        fill: #630;
      }

      .cls-17 {
        fill: #e9c3a4;
      }

      .cls-18 {
        fill: #d9cfe2;
      }
    </style>
  </defs>
  <g id="Layer_2-2" data-name="Layer 2">
    <g>
      <path class="cls-10" d="m204.44,433.05c.28.05.55.12.81.19h.02c2.3.62,4.13,1.89,5.45,3.55,1.31,1.65,2.05,3.64,2.19,5.73.03.5.03,1.01,0,1.51l10.09,14.02c3.68,1.13,7.14,2.98,10.1,5.55,2.87,2.5,5.27,5.69,6.91,9.58.58.55,1.21,1.25,1.79,2.08,1.06,1.53,1.9,3.47,1.9,5.76h-.02l-.02,7.69c-.03,2.71-1.08,6.48-9.48,8.69-5.77,1.51-16.35,2.71-35.83,2.71-17.18,0-26.47-1.26-31.52-2.82-7.56-2.34-8.36-6.12-8.34-8.64v-10.67h-.03c0-1.76.5-3.34,1.18-4.68.26-.5.54-.96.82-1.37v-17.22c-.94-2.48-1.27-4.84-1.13-7,.11-1.69.49-3.25,1.1-4.67-1.41-2.4-2.67-5.07-3.73-7.68-2.21-5.41-3.64-10.62-4.06-12.47l-2.99-7.59h-1.78c-.26.11-.53.19-.81.25l-.73.15-1.46,10.01c.18,3.11.06,5.95-.24,8.7-.21,1.92-.53,3.8-.89,5.73,1.29,1.49,2.36,3.45,2.79,5.98l.03.19c.36,2.36.12,5.17-1.15,8.44v17.21c.28.42.56.87.82,1.37.69,1.34,1.18,2.92,1.18,4.68h-.02v10.67c0,2.52-.8,6.3-8.35,8.64-5.04,1.56-14.34,2.82-31.52,2.82s-28.43-.64-36.53-1.56c-13.29-1.52-18.37-5.2-18.41-8.68v-8.84h-.03c0-2.29.84-4.23,1.9-5.76.64-.92,1.35-1.68,1.97-2.26,2.66-4.88,6.43-8.43,10.65-10.85,4.14-2.37,8.73-3.64,13.13-4.01.17-.25.35-.5.55-.74.57-.71,1.26-1.38,2.04-1.98.33-.87.8-1.7,1.4-2.46.59-.75,1.31-1.45,2.15-2.08.32-.87.8-1.69,1.4-2.46.6-.76,1.32-1.46,2.15-2.09.57-1.6,1.6-3.03,2.99-4.25.97-.85,2.14-1.61,3.45-2.23v-.33c0-.97.05-2.46.25-3.84.2-1.38.59-2.72,1.28-3.72.82-1.18,1.9-2.06,3.33-2.65.73-.3,1.52-.5,2.38-.61.32-2.09.74-4.02,1.16-5.68.56-2.22,1.14-4.01,1.48-4.98l1.79-12-3.13-8.58c-.32-.88-.35-1.8-.14-2.65l5.15-20.43c.16-.64.45-1.22.84-1.71l1.02-1.48v-.06l-.98-.86c-.82-.75-1.67-1.6-2.54-2.56-1.68-1.85-1.53-4.72.32-6.4l.27-.23,2.69-2.09c-.1-.72-.16-1.5-.18-2.33-.03-1.72.15-3.66.65-5.83-.69-1.58-1.31-3.61-1.42-5.98-.07-1.62.09-3.38.64-5.23-.6-.98-1.16-2.04-1.68-3.18-.72-1.57-1.36-3.29-1.89-5.11-.97-.96-2.27-2.09-3.89-3.22-1.87-1.31-4.18-2.63-6.95-3.71-9.39,1.79-20.84,2.02-31.23-.48-8.18-1.97-15.75-5.63-21.31-11.54-1.95.32-3.93.37-5.82.09-2.39-.36-4.63-1.23-6.53-2.74-1.94-1.55-3.45-3.69-4.3-6.52-.72-2.38-.95-5.26-.54-8.71-.97-4.44-.93-14.79,5.42-26.39,3.68-6.72,9.46-14.06,18.37-21.15-.61-1.02-1.25-2.14-1.89-3.35-1.22-2.32-2.47-4.98-3.58-7.74-1.54-2-2.88-4.11-4-6.28-1.26-2.44-2.26-5-2.99-7.6l-.06-.22c-1.01-3.7-1.39-7.37-1.22-10.87.18-3.81,1-7.43,2.35-10.68.95-2.3,2.17-4.44,3.63-6.36h-.01c1.46-1.94,3.17-3.65,5.09-5.07,2.01-1.5,4.23-2.67,6.6-3.44h.04c-.7-1.86-1.17-4.41-1.17-8.23,0-2.6-.06-4.28-.11-5.82-.18-5.25-.32-9.12,1.24-13.41-2.12-4.54-3.41-9.94-3.86-15.47-.55-6.76.16-13.85,2.12-19.92,2.12-6.51,5.74-11.95,10.94-14.85.76-.42,1.54-.79,2.35-1.09-.12-1.1-.2-2.22-.25-3.35-.11-2.58-.02-5.16.26-7.69.72-6.44,2.71-12.78,6.13-18.4v-.02c2.91-4.78,6.84-9.02,11.9-12.32,4.75-10.47,13.45-20.01,24.73-26.17,10.45-5.71,23.11-8.56,36.91-6.62,2.48.34,4.21,2.63,3.87,5.12-.18,1.32-.92,2.43-1.94,3.12-6.02,4.12-10.52,7.54-13.6,11.66-.35.47-.68.95-1,1.44l.48-.28c4.69-2.72,9.67-4.45,15.33-5.96,2.42-.64,4.91.81,5.54,3.23.33,1.24.11,2.5-.51,3.52v.02c-1.03,1.67-1.99,3.31-2.84,4.94,8.97-2.67,20.39-3.12,31.97-.96,15.14,2.83,30.76,10.13,41.65,22.77,2.4-2.58,5.25-4.3,8.32-5.4,4.61-1.65,9.61-1.79,14.22-1.35,2.49.23,4.32,2.45,4.09,4.94-.06.66-.26,1.28-.58,1.82-2.13,4.12-3.7,8.14-4.33,12.26-.5,3.27-.39,6.65.52,10.25,3.55.88,6.95,2.36,10.02,4.36,4.91,3.21,8.99,7.78,11.58,13.39,2.57,5.59,3.65,12.17,2.56,19.42-.85,5.61-2.99,11.63-6.77,17.88,1.65,4.88,1.47,9.62,1.24,15.73-.08,2.09-.17,4.38-.17,7.52,0,1.85-.1,3.42-.29,4.79-.21,1.5-.53,2.73-.95,3.78l-.08.18c.28.29.55.59.81.89,1.21,1.38,2.3,2.94,3.24,4.66,2.48,4.5,3.87,10.02,3.67,16.36-.17,5.53-1.54,11.67-4.44,18.26-1.63,3.69-3.85,7.2-6.49,10.34-1.39,1.66-2.91,3.23-4.51,4.67,4.4,3.92,9.31,9.32,13.18,16.3,3.65,6.59,6.36,14.56,6.82,23.96.82,3.51.91,6.63.34,9.3-.55,2.57-1.69,4.73-3.35,6.44-1.66,1.71-3.77,2.89-6.26,3.52-2.06.51-4.39.64-6.93.35-6.56,7.17-12.98,12.22-20.32,14.94-7.68,2.84-16.09,3.06-26.36.4-2.29,1.24-6.89,4.11-9.61,8.48-.1.26-.22.53-.34.78-2.11,5.04-5.55,10.12-9.15,14.52-3.94,4.81-8.23,8.98-11.23,11.42l1.28,8.53c.2,1.34-.22,2.64-1.03,3.6l-.87,1.09-.85,4.08.94,1.52c.24.39.42.8.53,1.23l5.24,19.53c.26.96.18,1.94-.15,2.8l-1.52,4.74,4.8,11.04c.89,1.31,3.06,4.67,5.08,8.99.86,1.83,1.68,3.83,2.37,5.93,1.42.37,2.62,1.08,3.62,2.05.65.62,1.18,1.33,1.61,2.1h0Zm14.51-164.97c.63-.26,1.23-.49,1.82-.69-.7-.92-1.27-1.86-1.75-2.8-.5-.99-.89-1.98-1.19-2.94-3.01,2.88-6.39,5.55-10.08,7.99,2.32.35,4.27.89,5.69,1.35,1.95-1.26,3.81-2.2,5.5-2.91h0Zm-122.57,6.77c-5.56-3.44-10.53-7.55-14.7-12.25-1.68,3.23-2.69,6.51-3.45,9.7,1.44.01,3.01.11,4.68.34,4.12.57,8.79,1.96,13.41,4.87.79-.33,1.74-.69,2.83-1.04-.94-.52-1.86-1.07-2.77-1.63Z"/>
      <g>
        <g>
          <path class="cls-11" d="m78.66,146.39c4.27-2.57,9.24-4.85,14.73-6.84,3.13-1.13,6.43-2.17,9.87-3.11,3.51-.96,7.16-1.82,10.92-2.57h.05s.05,0,.05,0c4.39,1.2,9.08,1.5,13.61.89,4.42-.6,8.69-2.06,12.36-4.38l.05-.03h.05c3.16-.24,6.36-.42,9.59-.54,3.24-.12,6.48-.18,9.7-.18,12.23,0,24.45.86,35.9,2.58,11.04,1.65,21.38,4.11,30.34,7.36,4.42,1.6,8.49,3.39,12.14,5.36,3.53,1.91,6.66,3.99,9.31,6.24,9.3,7.9,9.06,14.01,8.67,23.57-.08,2.06-.17,4.28-.17,6.75,0,.6-.02,1.2-.03,1.8l-.39-.62c-3.03-4.89-7.58-9.24-13.3-13.07-6.08-4.06-13.48-7.52-21.78-10.36-9-3.08-19.1-5.45-29.72-7.1-10.95-1.7-22.45-2.63-33.9-2.78-11.5-.15-22.95.5-33.74,1.97-10.38,1.41-20.14,3.57-28.71,6.5-7.13,2.44-13.48,5.43-18.72,8.97-4.96,3.35-8.94,7.2-11.68,11.55l-.38.6-.03-.71v-.53s-.02-.57-.02-.57c0-1.87-.07-3.55-.13-5.1-.27-6.71-.46-11.29,5.11-17.48,2.69-2.99,6.15-5.71,10.24-8.17Z"/>
          <path class="cls-10" d="m66.52,169.89c2.2-2.17,4.63-4.1,7.18-5.82,5.96-4.02,12.71-7.04,19.5-9.36,9.45-3.23,19.44-5.31,29.33-6.65,11.31-1.53,22.81-2.14,34.22-2,11.48.15,23.02,1.05,34.36,2.82,10.22,1.59,20.49,3.89,30.28,7.24,7.82,2.68,15.65,6.13,22.54,10.73,3.13,2.09,6.14,4.48,8.8,7.18.37-9.29.22-13.79-7.53-20.37-2.67-2.27-5.67-4.19-8.75-5.86-3.75-2.03-7.69-3.71-11.69-5.16-9.53-3.45-19.7-5.7-29.71-7.2-9.81-1.47-19.78-2.26-29.71-2.48-5.59,13.15-78.68,4.88-98.8,33.39-.07,1.09-.06,2.25-.02,3.53Z"/>
          <path class="cls-17" d="m149.13,170.44c.29,6.63,2.89,9.96,3.57,10.72.94-1.14,1.97-2.15,3.05-3.04,4.87-3.98,11.01-5.46,17.07-5.03,6.06.44,12.04,2.79,16.6,6.48,1.15.93,2.2,1.94,3.15,3.03-.17-1.35-.42-2.61-.75-3.81-1.72-6.21-5.56-10.36-10.6-12.8-5.05-2.45-11.31-3.17-17.83-2.52-2.89.29-5.83.85-8.74,1.65l-2.52,6.07-3.02-.76Z"/>
          <path class="cls-17" d="m231.58,214.34c-1.77,4.6-1.48,10.08,2.27,14.63-.32-2.26-.21-4.64.26-6.94.54-2.65,1.57-5.22,2.97-7.45l.07-.11h.13c1.43.06,2.76.52,3.86,1.27.93.63,1.69,1.47,2.22,2.45.52.98.8,2.09.76,3.27-.04,1.03-.33,2.11-.91,3.19,2.21-1.43,3.54-3.06,4.21-4.69.58-1.42.64-2.85.34-4.15-.31-1.31-1-2.49-1.94-3.42-1.18-1.18-2.75-1.96-4.46-2.09l-.57-.04.45-.35c1.65-1.28,3.52-2.17,5.54-2.52,1.55-.27,3.2-.22,4.91.23-3.98-3.15-8.18-3.47-11.78-2.05-1.85.73-3.55,1.93-4.98,3.44-1.43,1.51-2.58,3.34-3.35,5.33Z"/>
          <path class="cls-17" d="m155.76,186.87c-4.45,4.72-7.11,11.23-7.11,18.1s2.6,11.95,6.78,15.64c4.55,4.01,10.98,6.14,17.96,6.14s12.84-2.09,16.97-5.96c3.97-3.72,6.3-9.08,6.3-15.82v-.05l3.77-7.8-5.38-1.26-.04-.11c-1.76-4.77-4.84-8.95-8.86-11.87-3.78-2.75-8.39-4.39-13.5-4.39-6.76,0-12.64,2.88-16.89,7.39Z"/>
          <path class="cls-17" d="m128.83,232.79c1.62,1.68,4.44,2.65,8.25,1.93-1.73-.3-3.12-1.01-4.13-1.98-.9-.86-1.49-1.93-1.75-3.07-.26-1.15-.17-2.37.28-3.56.56-1.45,1.67-2.84,3.39-3.96-3.92.59-6.24,2.43-7.17,4.53-.46,1.04-.58,2.16-.39,3.21.2,1.06.71,2.06,1.51,2.9Z"/>
          <path class="cls-12" d="m77.55,184.4c1.75-9.43,5.49-15.38,6.22-16.47l-.14-.12.28-.15c1.84-.96,3.75-1.86,5.74-2.7,2.01-.85,4.09-1.65,6.22-2.38,8.32-2.85,17.8-4.95,27.91-6.31,10.49-1.42,21.64-2.05,32.86-1.9,8.66.11,17.34.68,25.77,1.7,8.29,1,16.33,2.44,23.87,4.3l.22.05-.06.21c-.69,2.58-1.76,7.1-2.31,12-.54,4.89-.55,10.17.89,14.26,1.01,2.88,2.28,4.51,3.65,5.28,1.36.76,2.84.68,4.29.14l.38-.14-.09.4c-.74,3.16-1.15,6.8-.74,10.61.41,3.81,1.65,7.8,4.22,11.65l2.65,3.98,1.78-4.45c2.23-5.57,5.96-11.84,10.87-16.3,3.88-3.51,8.49-5.89,13.69-5.91,1.44,0,2.86.18,4.21.54,1.36.36,2.67.9,3.88,1.61,1.22.71,2.35,1.6,3.36,2.65.99,1.02,1.86,2.2,2.59,3.52,1.73,3.15,2.67,7.11,2.46,11.76-.19,4.19-1.31,8.95-3.62,14.19-1.49,3.39-3.64,6.58-6.21,9.36-2.62,2.83-5.67,5.24-8.88,6.98-1.41.76-2.85,1.4-4.3,1.88-1.41.47-2.82.8-4.22.97-1.38.16-2.75.17-4.07,0-1.28-.17-2.52-.5-3.69-1.02-1.48-.65-2.89-1.6-4.18-2.88-1.17-1.15-2.24-2.58-3.2-4.29-.74.8-1.15,1.74-1.27,2.75-.14,1.17.12,2.43.71,3.65l.05.1-.05.1c-4.37,8.03-11.99,14.92-21.54,20.32-10.08,5.7-22.31,9.76-35.09,11.75-6.71,1.05-13.57,1.52-20.35,1.36-6.56-.15-13.04-.89-19.24-2.28-17.55-3.92-30.22-12.67-38.05-24.57-7.98-12.14-10.93-27.55-8.9-44.46-.45,1.28-.86,2.56-1.23,3.82-.55,1.88-1,3.74-1.36,5.58l-.15.77-.27-.73c-.85-2.29-2.11-4.39-3.66-6.12-1.75-1.95-3.88-3.44-6.19-4.2-2.31-.76-4.81-.8-7.34.13-1.28.48-2.58,1.2-3.85,2.21,1.71-.44,3.35-.49,4.91-.23,2.02.35,3.89,1.24,5.54,2.52l.45.35-.57.04c-1.7.13-3.28.91-4.46,2.09-.94.93-1.62,2.12-1.93,3.43-.31,1.3-.24,2.73.34,4.15.66,1.63,2,3.26,4.21,4.69-.59-1.08-.88-2.16-.91-3.19-.04-1.18.24-2.3.76-3.27.52-.98,1.29-1.82,2.22-2.45,1.1-.75,2.44-1.22,3.86-1.27h.06s.05.03.05.03c1.73.99,3.12,3.26,4.12,5.97,1.07,2.88,1.69,6.28,1.79,9.16l.05-.08.06.71c.13,1.69.34,3.34.63,4.96.3,1.64.68,3.26,1.13,4.83l.08.26-.27.02c-2.69.15-5.27-.17-7.69-.88-2.57-.75-4.97-1.95-7.15-3.47-2.77-1.94-5.19-4.42-7.14-7.22-2-2.86-3.51-6.06-4.44-9.38-.76-2.72-1.05-5.4-.94-7.94.12-2.69.69-5.23,1.62-7.49.63-1.51,1.41-2.9,2.34-4.13.92-1.23,1.98-2.3,3.15-3.17,1.16-.86,2.43-1.54,3.79-1.98,1.31-.43,2.7-.65,4.15-.62,6.06.11,10.28,3.91,14.46,7.67l.74.66h0s0,0,0,0l.13.12c-1-6.91-.64-13.01.3-18.1Z"/>
          <path class="cls-6" d="m77.55,184.4c1.75-9.43,5.49-15.38,6.22-16.47l-.14-.12.28-.15c1.53-.8,3.11-1.56,4.75-2.27,0,0-11.98,17.08-11.42,37.11-1-6.91-.64-13.01.3-18.1h0Zm146.1,24.73c2.16-4,5-7.96,8.41-11.05,3.88-3.51,8.49-5.89,13.69-5.91,1.44,0,2.86.18,4.21.54,1.36.36,2.67.9,3.88,1.61,1.22.71,2.35,1.6,3.36,2.65.99,1.02,1.86,2.2,2.59,3.52,1.73,3.15,2.67,7.11,2.46,11.76-.19,4.19-1.31,8.95-3.62,14.19-.46,1.03-.97,2.05-1.54,3.04l-.29.06c12.16-34.7-14.79-46.13-33.27-19.75l.11-.67h0Zm-40.81,61.94c-6.38,2.24-13.18,3.94-20.14,5.03-6.71,1.05-13.57,1.52-20.35,1.36-6.56-.15-13.04-.89-19.24-2.28-17.55-3.92-30.22-12.67-38.05-24.57-7.09-10.78-10.21-24.14-9.39-38.83.11-.77.23-1.45.35-2.01,0,0,2.28,43.57,38.61,58.97,36.33,15.4,71.1,1.03,71.1,1.03,0,0-1.05.5-2.89,1.3h0Zm-107.32-63.02l1.73-5.55-.13-.12v-.02s0,.01,0,.01l-.74-.66c-4.17-3.75-8.4-7.55-14.46-7.67-1.45-.03-2.84.19-4.15.62-1.36.44-2.63,1.12-3.79,1.98-1.17.87-2.23,1.94-3.15,3.17-.92,1.23-1.71,2.62-2.34,4.13-.94,2.27-1.51,4.8-1.62,7.49-.11,2.54.18,5.22.94,7.94.93,3.32,2.44,6.52,4.44,9.38,1.95,2.8,4.37,5.28,7.14,7.22,2.17,1.52,4.57,2.72,7.15,3.47,2.43.71,5,1.03,7.69.88l.27-.02-.08-.26c-31.62-7.08-29.71-44.7-13.6-42.46,7.74,1.08,14.7,10.46,14.7,10.46h0Z"/>
          <path class="cls-9" d="m83.22,169.22l.69-1.56c1.84-.96,3.75-1.86,5.74-2.7,2.01-.85,4.09-1.65,6.22-2.38,8.32-2.85,17.8-4.95,27.91-6.31,10.49-1.42,21.64-2.05,32.86-1.9,8.66.11,17.34.68,25.77,1.7,8.29,1,16.33,2.44,23.87,4.3l.22.05-.06.21c-.69,2.58-1.76,7.1-2.31,12-.54,4.89-.55,10.17.89,14.26,1.01,2.88,2.28,4.51,3.65,5.28,1.36.76,2.84.68,4.29.14l.38-.14-.09.4c-.74,3.16-1.15,6.8-.74,10.61.41,3.81,1.65,7.8,4.22,11.65l2.51,3.77.19.68s-.31,5.86,1.44,10.38c0,0,4.35-27.61,22.58-29.53,12.97-1.37,15.14,10.83,12.6,21.53-4.24,17.88-29.29,29.93-36.15,15.4,0,0,0,.19.05.53l-.1-.17c-.74.8-1.15,1.74-1.27,2.75-.14,1.17.12,2.43.71,3.65l.05.1-.05.1c-4.37,8.03-11.99,14.92-21.54,20.32-3.4,1.92-7.05,3.66-10.87,5.19,28.5-15.82,15.74-52.7-1.36-46.84-12.86,4.41-25.6,1.21-25.6,1.21-7.73-2.96-13.99-12.3-13.49-23.63.5-11.33,7.21-16.94,10.66-19.15,0,0-7.42-6.72-7.03-8.91,10.12,5.76,32.31,8.16,44.98,1.35-11.27-.78-19.02-4.02-26.37-7.43,15.23,1.88,30.57.68,28.46.09-38.51-14.89-84.53-8.03-113.92,2.98h0Zm47.4,35.74s-1-14.5-9.74-24.23c0,0,7.4-4.25,7.49-8.4-9.91,5.98-34.77,5.78-44.98,1.35,2.02,3.88,5.26,5.61,9.89,7.01-5.35,3.25-9.64,10.01-9.44,14.98l46.78,9.3h0Zm-76.07,2.27c.84-.04,1.67.01,2.47.15,2.02.35,3.89,1.24,5.54,2.52l.45.35-.57.04c-1.7.13-3.28.91-4.46,2.09-.94.93-1.62,2.12-1.93,3.43-.31,1.3-.24,2.73.34,4.15.66,1.63,2,3.26,4.21,4.69l-.05-.1c.4.5.71.76.71.76-11.35-4.23-11.98-16.32-6.7-18.08h0Zm76.59,22.06l-3.07,2.9c2.79,3.84,7.07,5.16,11.38,4.04,4.32-1.12,6.08-5.8.54-4.77-5.53,1.03-8.85-2.17-8.85-2.17Z"/>
          <path class="cls-17" d="m123.3,186.87c-4.25-4.51-10.13-7.39-16.9-7.39-5.11,0-9.72,1.64-13.5,4.39-4.02,2.92-7.1,7.09-8.86,11.87l-.04.11-5.38,1.26,3.78,7.8v.05c0,6.74,2.33,12.1,6.29,15.82,4.13,3.87,10.04,5.96,16.97,5.96s13.4-2.13,17.96-6.14c4.18-3.68,6.78-8.96,6.78-15.64s-2.66-13.38-7.11-18.1Z"/>
          <path class="cls-11" d="m187.89,219.07c-3.53,3.44-8.56,5.35-14.51,5.35s-11.52-1.96-15.47-5.54c-3.67-3.33-5.97-8.06-5.97-13.92s2.17-10.81,5.85-14.36c3.67-3.55,8.85-5.64,14.86-5.64s11.18,2.1,14.86,5.64c3.68,3.55,5.85,8.55,5.85,14.36s-2.01,10.74-5.47,14.1h0Zm-66.75-.19c-3.95,3.58-9.49,5.54-15.47,5.54s-10.98-1.91-14.51-5.35c-3.46-3.37-5.47-8.19-5.47-14.1s2.17-10.81,5.85-14.36c3.67-3.55,8.85-5.64,14.86-5.64s11.19,2.09,14.86,5.64c3.68,3.55,5.85,8.55,5.85,14.36s-2.3,10.59-5.97,13.92Z"/>
          <g>
            <path class="cls-16" d="m85.35,132.69c1.41.96,2.91,1.77,4.5,2.41l.52.21-.52.2c-5.27,2.01-10.07,4.31-14.28,6.9-4.04,2.48-7.53,5.23-10.36,8.24-.31.33-.6.65-.89.98-.29.32-.56.63-.82.94l-.24.29-.13-.35c-.8-2.15-1.38-4.64-1.74-7.29-.78-5.72-.49-12.2,1.02-17.63,1.53-5.46,4.3-9.88,8.5-11.43.65-.24,1.33-.41,2.04-.51l.18-.02.06.17c.9,2.63,2.05,5.14,3.42,7.43,1.34,2.24,2.9,4.28,4.66,6.07,1.26,1.28,2.62,2.42,4.08,3.41Z"/>
            <path class="cls-3" d="m69.44,178.47c1.35-1.56,2.92-3.05,4.68-4.48l.6-.49-.26.73c-.76,2.14-1.43,4.65-1.86,7.54-.44,2.9-.65,6.18-.49,9.85l.02.55-.39-.39c-1.24-1.21-2.39-2.72-3.33-4.14-1.2-1.82-2.05-3.52-2.25-4.33l-.02-.08.04-.08c.86-1.61,1.96-3.18,3.27-4.69Z"/>
            <path class="cls-16" d="m218.05,194.93c.97-5.69,3.1-10.95,4.33-13.68-2.11,2.44-4.75,4.15-7.06,4.96-.97.34-1.89.53-2.7.55-.82.02-1.53-.14-2.04-.48-.38-.25-.65-.59-.81-1.04-.96-2.74-1.13-6.2-.9-9.68.35-5.38,1.65-10.8,2.42-13.64l.06-.21.21.06c1.23.35,2.44.71,3.63,1.08,1.18.37,2.35.75,3.51,1.15,8.5,2.91,15.96,6.45,21.84,10.59,5.52,3.89,9.65,8.31,11.96,13.25l.21.45-.48-.15c-1.04-.33-2.1-.58-3.19-.74-1.09-.16-2.19-.25-3.31-.24-5.55.02-10.45,2.05-14.65,5.2-5.11,3.83-9.19,9.33-12.13,14.92l-.24.45-.16-.48c-1.31-3.79-1.21-8.16-.51-12.3Z"/>
            <path class="cls-16" d="m117.29,129.09c-8.13-2.01-16.39-7.99-23.26-19.76.24,4.47,1.39,8.36,3.2,11.67,2.11,3.85,5.12,6.91,8.66,9.18l.43.27-.5.12c-.58.14-1.13.28-1.66.42-.51.13-1.06.28-1.64.43h-.02c-3.46.61-6.65.36-9.53-.57-3.09-1-5.82-2.77-8.12-5.11-1.64-1.66-3.07-3.6-4.29-5.74-1.25-2.2-2.26-4.61-3.03-7.16-.77-2.57-1.29-5.27-1.54-8.02-.24-2.71-.22-5.48.08-8.21.43-3.82,1.41-7.58,3-11.06,1.49-3.26,3.51-6.28,6.1-8.87l.49-.48-.12.68c-.81,4.74-.69,9.49.5,14.03,1.04,3.96,2.89,7.75,5.65,11.2-.28-.99-.54-1.98-.76-2.97-2.94-13.03-.61-25.15,5.54-34.95,6.15-9.8,16.11-17.27,28.44-21.03,1.4-.43,2.82-.8,4.28-1.13l.67-.15-.45.51c-5.4,6.05-8.48,13.11-10.02,20.23-1.94,8.94-1.48,17.98-.18,25.27,1.88-5.36,3.9-10.18,6.84-14.51,3.09-4.55,7.21-8.55,13.28-12.05l.51-.29-.19.56c-1.06,3.02-1.72,5.94-2.05,8.72-.37,3.06-.35,5.96-.04,8.69v.02c.02.71.1,1.44.23,2.18.13.73.32,1.49.57,2.26h0c1.34,5.39,4.01,10.73,7.58,14.63,2.99,3.27,6.61,5.53,10.59,5.92-1.37-1.36-5.67-5.86-9.16-11.99-2.11-3.7-3.93-8-4.64-12.56v-.03c-.02-2.96,1.76-5.47,4.83-7.41,3.82-2.41,9.67-3.94,16.53-4.34,6.84-.4,14.71.3,22.6,2.36,16.69,4.35,33.5,14.75,41,33.42-.2-3.6-.09-7.58,1.11-11.04,1.38-3.95,4.18-7.21,9.55-8.4l.37-.08-.12.36c-.91,2.8-1.86,6.77-1.97,11.42-.08,3.39.29,7.14,1.45,11.05l.08.26-.27.02c-3.24.21-6.5,1.03-9.61,2.52-2.92,1.4-5.72,3.4-8.26,6.05l-.3.31-.07-.42c-3.39-19.24-21.51-24.95-26.77-26.21,7.12,4.04,12.03,8.74,15.41,13.27,6.28,8.42,7.3,16.29,7.47,18.44v.07s-.03.06-.03.06c-.36.57-.71,1.16-1.06,1.77-.13.24-.26.47-.39.71l.42-.38c.45-.41.9-.81,1.36-1.21l.03-.02h.03c1.39-.63,2.86-1.07,4.36-1.33,3.09-.54,6.28-.28,9.04.87,2.77,1.16,5.11,3.23,6.48,6.33.3.68.55,1.4.75,2.18.31-3.82-.83-6.84-2.86-9.04-2.05-2.22-5.02-3.61-8.35-4.14-.45-.07-.91-.13-1.38-.17l-.7-.06.61-.35c6.31-3.58,12.07-4.58,17.02-3.75,4.52.76,8.37,3.06,11.38,6.33,3,3.26,5.15,7.49,6.27,12.13,1.68,6.92,1.08,14.75-2.38,21.64l-.15.3-.21-.26c-.68-.82-1.45-1.65-2.31-2.5-.86-.86-1.82-1.74-2.89-2.65-2.91-2.5-6.31-4.79-10.12-6.87-3.94-2.16-8.33-4.1-13.06-5.81-7.11-2.58-15.04-4.67-23.46-6.27-8.73-1.66-17.99-2.8-27.46-3.42l-.66-.04.55-.36c5.58-3.64,7.14-8.42,7.55-10.29-3.52,4.14-8.05,6.6-12.39,8.07-4.55,1.53-8.88,1.97-11.6,2.07h-1.67s-1.18.01-1.18.01c-1.73.01-3.47.05-5.2.1-1.72.05-3.45.12-5.18.2l-.47.02.29-.38c1.67-2.17,3.01-4.67,3.91-7.51.7-2.21,1.13-4.63,1.24-7.25-2.12,6.52-7.2,12.52-13.77,16.24-3.03,1.71-6.37,2.94-9.89,3.52-3.52.57-7.21.49-10.93-.43Z"/>
          </g>
          <path class="cls-3" d="m216.88,163.38c.61.2,1.22.4,1.83.61,8.5,2.91,15.96,6.45,21.84,10.59,5.52,3.89,9.65,8.31,11.96,13.25l.21.45-.48-.15c-1.04-.33-2.1-.58-3.19-.74-1.09-.16-2.19-.25-3.31-.24-5.55.02-10.45,2.05-14.65,5.2-2.44,1.83-4.64,4.04-6.6,6.46-1.51-10.66,3.97-25.56,3.97-25.56,0,0-11.82,11.28-14.1,7.44-1.8-3.03,1.19-13.17,2.52-17.3Z"/>
          <path class="cls-3" d="m117.29,129.09c-8.12-2.01-16.37-7.98-23.24-19.72-.09-.31-.19-.61-.28-.92,13.29,18.28,44.89,16.65,58.35-.34,0,0-.09.72-.3,1.82-2.15,6.46-7.2,12.39-13.71,16.08-3.03,1.71-6.37,2.94-9.89,3.52-3.52.57-7.21.49-10.93-.43h0Zm-31.94,3.59c1.41.96,2.91,1.77,4.5,2.41l.52.21-.52.2c-5.27,2.01-10.07,4.31-14.28,6.9-1.07.66-2.11,1.34-3.1,2.03-1.32-9.46,2.95-16.53,5.22-19.53,1.08,1.58,2.27,3.05,3.58,4.37,1.26,1.28,2.62,2.42,4.08,3.41h0Zm149.93-6.19c.26.43.49.88.7,1.36.3.68.55,1.4.75,2.18.3-3.68-.75-6.62-2.64-8.8,3.8.88,9.96,3.07,12.49,8.31,2.66,5.51,3.09,13.06,3.11,17.06-2.66-2.15-5.69-4.14-9.03-5.97-1.05-.57-2.13-1.13-3.23-1.67.11-2.96-.1-7.97-2.15-12.47h0Zm.93,11.88c-5.67-14.28-22.73-13.73-22.73-13.73-2.96-10.6-15.58-15.26-15.58-15.26,5.22,8.28,5.04,15.12,5.04,15.12-5.36-5.21-16.3-6.59-19.93-6.92-1.05,2.17-2.97,4.87-6.43,7.13l-.55.36.66.04c9.46.62,18.73,1.76,27.46,3.42,8.43,1.6,16.35,3.7,23.46,6.27,3.02,1.09,5.9,2.28,8.61,3.56h0Zm-52.22-23.79c1.99-4,.64-8.1.64-8.1-8.47,13.83-29.54,13.79-35.16,13.52-.76,1.64-1.69,3.15-2.75,4.52l-.29.38.47-.02c1.73-.08,3.46-.15,5.18-.2,1.73-.05,3.47-.08,5.2-.1h1.18s1.67-.01,1.67-.01c2.72-.11,7.05-.54,11.6-2.07,4.28-1.44,8.75-3.86,12.25-7.91Z"/>
          <g>
            <path class="cls-7" d="m65.92,149.9c-.24.24-.48.49-.71.73-.31.33-.6.65-.89.98-.29.32-.56.63-.82.94l-.24.29-.13-.35c-.8-2.15-1.38-4.64-1.74-7.29-.78-5.72-.49-12.2,1.02-17.63,1.53-5.46,4.3-9.88,8.5-11.43.65-.24,1.33-.41,2.04-.51l.18-.02.06.17c.42,1.24.9,2.44,1.43,3.61-4.43,2.61-14.01,10.75-8.7,30.51h0Z"/>
            <path class="cls-7" d="m106.08,130.3l.24.15-.5.12c-.58.14-1.13.28-1.66.42-.51.13-1.06.28-1.64.43h-.02c-3.46.61-6.65.36-9.53-.57-3.09-1-5.82-2.77-8.12-5.11-1.64-1.66-3.07-3.6-4.29-5.74-1.25-2.2-2.26-4.61-3.03-7.16-.77-2.57-1.29-5.27-1.54-8.02-.24-2.71-.22-5.48.08-8.21.43-3.82,1.41-7.58,3-11.06,1.49-3.26,3.51-6.28,6.1-8.87l.49-.48-.12.68c-.55,3.25-.67,6.5-.31,9.68-2.53,3.78-6.04,11.33-4.42,22.58,2.43,16.88,20.47,22.27,24.96,21.23.11-.02.21-.04.31-.06h0Zm-14.42-28.34c.34.7.55,1.11.55,1.11-3.9-37.89,25.22-50.71,25.22-50.71-12.35,32.61,4.79,55.56,4.79,55.56-1.35-21.76,10.13-35.91,10.13-35.91-4.05,31.05,24.75,32.27,24.75,32.27-.23-.09-.46-.18-.68-.27-3.94-.42-7.53-2.67-10.49-5.91-3.56-3.9-6.23-9.24-7.58-14.62h0c-.25-.79-.44-1.54-.57-2.27-.13-.75-.21-1.47-.23-2.18v-.02c-.31-2.73-.33-5.63.04-8.69.33-2.78.99-5.7,2.05-8.72l.19-.56-.51.29c-6.07,3.5-10.18,7.5-13.28,12.05-2.95,4.33-4.96,9.16-6.84,14.51-1.3-7.29-1.76-16.33.18-25.27,1.55-7.12,4.62-14.18,10.02-20.23l.45-.51-.67.15c-1.45.33-2.88.71-4.28,1.13-12.32,3.76-22.29,11.24-28.44,21.03-6.15,9.8-8.48,21.92-5.54,34.95.21.94.45,1.88.72,2.82h0Zm52.8-16.02c-.79-2.07-1.4-4.25-1.75-6.49v-.03c-.02-2.96,1.76-5.47,4.83-7.41,3.82-2.41,9.67-3.94,16.53-4.34,6.84-.4,14.71.3,22.6,2.36,16.69,4.35,33.5,14.75,41,33.42-.2-3.6-.09-7.58,1.11-11.04,1.38-3.95,4.18-7.21,9.55-8.4l.37-.08-.12.36c-.91,2.8-1.86,6.77-1.97,11.42-.08,3.39.29,7.14,1.45,11.05l.08.26-.27.02c-1.08.07-2.17.21-3.25.42-.74-3.54-1.86-10.73-.5-17.43,0,0-4.95,2.84-6.13,14.85,0,0-19.16-25.99-43.87-31.25-24.71-5.26-37.07.88-39.66,12.32h0Zm49.2,3.81c-1.37-.66-2.2-.98-2.2-.98,18.6,14.22,22,35.89,22,35.89,13.78-5.94,23.32,6.71,23.32,6.71-.07-.89-.22-1.73-.43-2.52-.12-.34-.25-.66-.39-.98-1.37-3.09-3.7-5.17-6.48-6.33-2.76-1.16-5.95-1.41-9.04-.87-1.5.26-2.97.7-4.36,1.32h-.03s-.03.04-.03.04c-.46.4-.91.8-1.36,1.21l-.42.38c.13-.24.26-.48.39-.71.34-.61.7-1.2,1.06-1.77l.04-.06v-.07c-.17-2.15-1.19-10.02-7.47-18.44-3.25-4.36-7.92-8.87-14.61-12.81h0Zm35.43,28.07c-1.12-.44-2.32-.76-3.58-.96-.45-.07-.91-.13-1.38-.17l-.7-.06.61-.35c6.31-3.58,12.07-4.58,17.02-3.75,4.52.76,8.37,3.06,11.38,6.33,3,3.26,5.15,7.49,6.27,12.13,1.68,6.92,1.08,14.75-2.38,21.64l-.05.1h-.25s0,.01,0,.01c0-.01,2.79-19.66-6.09-29.93-7.15-8.28-17.22-6.14-20.85-4.99Z"/>
          </g>
          <g>
            <g>
              <g>
                <g>
                  <path class="cls-2" d="m137.41,79.71c-.71-5.42-.32-11.54,2.02-18.21-12.07,6.97-16.38,15.92-20.29,27.23-2.5-13.17-2.39-32.5,10.11-46.5-28.32,6.4-45.91,31.72-37.03,60.83-22.37-26.2,9.04-72.76,53.16-66.56-12.76,8.74-19.21,14.67-21.41,31.25,7.81-9.86,15.73-13.43,26.34-16.26-4.82,7.88-8.42,15.47-7.61,25.88,1.12,14.47,14.37,26.85,14.41,26.88-10.25-.54-18.21-13.21-19.69-24.55Z"/>
                  <path class="cls-2" d="m152.12,108.11c.27,36.1-57.37,36.23-58.35.34,20.37,35.97,53.44,19.51,58.35-.34Z"/>
                  <path class="cls-2" d="m258.52,159.21l-4.5-3.13c16.36-23.55-6.71-64-40.55-31.44,19.4-38.77,75.05-8.65,45.04,34.56Z"/>
                  <path class="cls-2" d="m138.14,83.51c-9.14-28.24,60.94-33.38,87.03,4.83,4.54-9.5,13.83-10.71,21.89-9.94-4.88,9.36-7.15,18.41-3.26,29.2l-5.29,1.17c-3.64-10.09-1.82-19.34-.12-24.54-10.56,2.35-11.01,12.79-10.39,20.65-17.17-46.44-91.21-43.28-84.65-23.03l-5.2,1.67Z"/>
                  <path class="cls-2" d="m260.18,188.35c-.76,1.89-1.79,2.65-2.99,3.35l-2.87,1.66-1.08-3.15c-3.85-11.24-16.97-19.98-34.6-26.01-17.78-6.09-39.99-9.34-62-9.61-22-.28-43.77,2.41-60.7,8.2-13.58,4.65-25.02,11.89-29.59,20.47.35,1.4,2.75,5.63,5.53,8.37l-.99,1.25-6.3-2.84-3.35-3.35c-1.46-1.39-3.07-2.91-3.07-9.55,0-12.52-2.17-17.03,6.87-26.65,6.14-6.53,15.37-11.82,26.55-15.87,5.74-2.08,12.02-3.85,18.66-5.3,3.83,1.79,9.36,3.46,15.86,2.75h.04c-11.93,1.64-23.1,4.21-32.7,7.69-10.72,3.89-19.42,8.87-24.89,14.95-6.81,7.57-4.92,12.72-4.92,22.43,0,.39,0,.75.02,1.09,5.67-9.01,16.59-15.85,30.52-20.62,17.5-5.99,39.92-8.77,62.52-8.48,22.58.28,45.39,3.63,63.69,9.89,16.15,5.53,28.91,13.39,35.2,23.52,0-.33.01-.68.01-1.06,0-13.68,2.82-20.61-8.42-30.15-5.38-4.57-12.72-8.43-21.38-11.57-18.25-6.61-42.19-9.92-66.17-9.92-10.88,0-21.75.68-32.08,2.04,7.04-1.11,11.94-4.46,14.72-6.95,5.74-.38,11.55-.58,17.36-.58,24.55,0,49.16,3.42,68.04,10.27,9.33,3.38,17.3,7.62,23.25,12.73,13.35,11.46,10.17,17.96,10.17,34.13,0,3.37-.34,5.45-.91,6.88Z"/>
                  <path class="cls-2" d="m91.99,71.89c-9.65,5.2-14.59,14.76-15.71,24.75-.61,5.47-.08,11.06,1.45,16.14,1.51,5.01,3.98,9.49,7.27,12.82,4.43,4.49,10.42,6.89,17.6,5.59l.96,5.37c-9.16,1.66-16.81-1.41-22.46-7.13-3.93-3.98-6.86-9.25-8.61-15.09-1.74-5.76-2.34-12.1-1.65-18.31,1.3-11.63,7.13-22.82,18.55-28.97l2.59,4.82Z"/>
                  <path class="cls-2" d="m75.15,115.79c-15.22-1.11-17.01,29.16-10.14,40.13l-4.62,2.89c-10.23-16.32-5.26-53.43,16.02-48.33l-1.26,5.31Z"/>
                  <path class="cls-2" d="m76.63,204.25c-4.86,34.25,10.51,62.68,46.52,70.72,12.58,2.81,26.32,2.97,39.51.91,25.43-3.97,48.64-16.09,57.1-33.18l4.9,2.42c-9.27,18.73-34.11,31.93-61.16,36.15-13.83,2.16-28.27,1.99-41.52-.97-34.53-7.71-60.3-37.05-45.34-76.05Z"/>
                  <path class="cls-2" d="m61.91,194.27c-2.9-.05-5.56.89-7.8,2.56-2.31,1.72-4.18,4.22-5.42,7.2-1.8,4.37-2.23,9.75-.68,15.29,1.82,6.52,5.93,12.58,11.49,16.48,4.87,3.41,10.87,5.14,17.42,3.99l.94,5.4c-8.08,1.42-15.49-.71-21.49-4.91-6.61-4.63-11.48-11.8-13.63-19.49-1.9-6.77-1.35-13.4.89-18.83,1.61-3.9,4.11-7.2,7.22-9.51,3.18-2.37,6.98-3.71,11.14-3.63,3.17.06,6.51.94,9.89,2.82-.81-18.92,8.03-27.3,8.06-27.33l4.11,3.6s-9.82,13.82-6.51,35.17c-4.59-4.07-9.03-8.67-15.64-8.79Z"/>
                  <path class="cls-2" d="m212.1,159.95s-5.19,16.45-2.11,25.22c1.12,3.18,9.26.66,13.52-5.74-.02.04-8.61,16.5-4.74,27.74,5.4-10.24,14.59-20.19,26.98-20.24,3.85-.01,7.54.97,10.74,2.85,3.21,1.88,5.95,4.65,7.9,8.19,4.02,7.29,4.66,17.86-.95,30.6-3.48,7.9-10.07,14.86-17.42,18.85-3.36,1.82-6.89,3.03-10.38,3.45-3.62.43-7.19.02-10.5-1.44-6.12-2.7-8.72-8.97-5.22-12.35,2.02,3.73,4.59,6.09,7.42,7.34,2.37,1.04,4.98,1.33,7.65,1.01,2.8-.33,5.67-1.33,8.44-2.83,6.33-3.43,12-9.43,15-16.23,4.84-10.99,4.43-19.84,1.16-25.76-1.45-2.64-3.49-4.7-5.87-6.09-2.39-1.4-5.13-2.13-7.98-2.12-11.69.04-20.4,12.17-24.36,22.07l-1.93,4.83-2.88-4.33c-5.18-7.78-5-16.08-3.51-22.44-3.03,1.13-6.17.31-8.23-5.56-3.68-10.48,2.03-28.57,2.05-28.62l5.22,1.61Z"/>
                </g>
                <path class="cls-2" d="m234.19,229.7c-.94-5.01.34-10.66,3.08-15.01,4.97.19,8.78,5.49,5.27,10.63,9.69-5.59,5.15-14.75-1.17-15.24,3.13-2.41,7.02-3.42,11.26-1.95-13.36-11.99-29.98,8.84-18.44,21.56Z"/>
                <path class="cls-2" d="m72.35,230.43c0-5.57-2.17-13.65-5.82-15.74-4.97.19-8.78,5.49-5.27,10.63-9.69-5.59-5.15-14.75,1.17-15.24-3.13-2.41-7.02-3.42-11.26-1.95,13.36-11.99,29.3,8.23,21.18,22.3Z"/>
                <g>
                  <path class="cls-2" d="m106.41,179.27c13.96,0,24.22,12.15,24.22,25.7s-11.47,22-24.95,22-23.49-8.13-23.49-22l-3.87-8,5.53-1.3h0c3.44-9.35,11.93-16.4,22.56-16.4h0Zm0,5.92c-11.9,0-20.49,8.29-20.49,19.79s8.1,19.24,19.75,19.24,21.22-7.2,21.22-19.24-8.58-19.79-20.49-19.79Z"/>
                  <path class="cls-2" d="m172.65,179.27c-13.96,0-24.22,12.15-24.22,25.7s11.47,22,24.95,22,23.49-8.13,23.49-22l3.87-8-5.53-1.3h0c-3.44-9.35-11.93-16.4-22.56-16.4h0Zm0,5.92c11.91,0,20.49,8.29,20.49,19.79s-8.1,19.24-19.75,19.24-21.22-7.2-21.22-19.24,8.58-19.79,20.49-19.79Z"/>
                </g>
                <path class="cls-2" d="m83.4,173.69c11.14,9.47,34.75,7.13,44.98-1.35,0,0,.94-3.09-.13-10.96l-3.41,3.93-1.71-2.71c-12.5,11.75-32.57,14.04-39.73,11.08Z"/>
                <path class="cls-2" d="m135.89,221.8c-13.66,1.21-10.57,16.39,2.52,12.84-7.85-.34-9.96-8.88-2.52-12.84Z"/>
                <path class="cls-2" d="m195.05,173.58c-11.14,9.47-34.75,7.13-44.98-1.35,0,0-.94-3.09.13-10.96l3.41,3.93,1.71-2.71c12.5,11.75,32.57,14.04,39.73,11.08Z"/>
              </g>
              <path class="cls-2" d="m157.28,124.36c.69,0,17.94.98,27.19-10.71,0,0-1.53,16.18-27.41,15.8l.22-5.09Z"/>
            </g>
            <path class="cls-2" d="m215.56,121.58s-.28-20.04-24.09-32.82c0,0,24.65,4.06,28.44,27.06l-2.05,2.67,2.24-1.98c9.44-1,18.39,4.15,16.69,14.85-1.83-10.54-12.64-12.73-20.65-9.17l.51-2.71-1.1,2.09Z"/>
          </g>
          <g>
            <g>
              <path class="cls-15" d="m106.01,220.17c8.6,0,15.62-7.02,15.62-15.62s-7.02-15.62-15.62-15.62-15.62,7.02-15.62,15.62,7.02,15.62,15.62,15.62Z"/>
              <path class="cls-13" d="m120.33,210.79c-2.41,5.52-7.92,9.39-14.33,9.39s-11.92-3.86-14.33-9.39c1.77-6.24,7.51-10.82,14.33-10.82s12.55,4.57,14.33,10.82Z"/>
              <path class="cls-2" d="m106.01,213.42c4.88,0,8.87-3.98,8.87-8.87s-3.98-8.87-8.87-8.87-8.87,3.98-8.87,8.87,3.98,8.87,8.87,8.87Z"/>
              <path class="cls-11" d="m96.79,205.57c4.21,0,7.64-3.43,7.64-7.64s-3.43-7.64-7.64-7.64-7.64,3.43-7.64,7.64,3.43,7.64,7.64,7.64Z"/>
              <path class="cls-11" d="m116.02,212.25c4.21,0,7.64-1.38,7.64-3.07s-3.43-3.07-7.64-3.07-7.64,1.38-7.64,3.07,3.43,3.07,7.64,3.07Z"/>
            </g>
            <g>
              <path class="cls-15" d="m172.25,220.17c8.6,0,15.62-7.02,15.62-15.62s-7.02-15.62-15.62-15.62-15.62,7.02-15.62,15.62,7.02,15.62,15.62,15.62Z"/>
              <path class="cls-13" d="m186.57,210.79c-2.41,5.52-7.91,9.39-14.32,9.39s-11.92-3.86-14.33-9.39c1.77-6.24,7.51-10.82,14.33-10.82s12.55,4.57,14.32,10.82Z"/>
              <path class="cls-2" d="m172.25,213.42c4.88,0,8.87-3.98,8.87-8.87s-3.98-8.87-8.87-8.87-8.87,3.98-8.87,8.87,3.98,8.87,8.87,8.87Z"/>
              <path class="cls-11" d="m163.03,205.57c4.21,0,7.64-3.43,7.64-7.64s-3.43-7.64-7.64-7.64-7.64,3.43-7.64,7.64,3.43,7.64,7.64,7.64Z"/>
              <path class="cls-11" d="m182.26,212.25c4.21,0,7.64-1.38,7.64-3.07s-3.43-3.07-7.64-3.07-7.64,1.38-7.64,3.07,3.43,3.07,7.64,3.07Z"/>
            </g>
          </g>
          <path class="cls-4" d="m139.6,246.6c.62-.29,1.33-.44,2.07-.47.81-.03,1.66.11,2.49.4.79.27,1.57.68,2.3,1.24l.15.11c.69.56,1.27,1.19,1.72,1.87.47.71.8,1.48.98,2.24.17.72.2,1.44.08,2.12-.12.67-.38,1.31-.8,1.85-.42.54-.96.96-1.58,1.25-.62.29-1.32.45-2.06.47-.81.03-1.66-.11-2.5-.4-.8-.27-1.59-.7-2.32-1.26-.73-.56-1.34-1.21-1.81-1.91-.49-.73-.84-1.52-1.02-2.31-.17-.72-.2-1.44-.08-2.12.12-.67.38-1.31.8-1.86.42-.55.96-.96,1.58-1.25Z"/>
          <path class="cls-1" d="m149.34,254.36c-.13.59-.38,1.14-.76,1.62-.42.54-.96.96-1.58,1.25-.62.29-1.32.45-2.06.47-.81.03-1.66-.11-2.5-.4-.8-.27-1.59-.7-2.32-1.26-.24-.18-.46-.37-.67-.57.13-.58.38-1.13.75-1.61.42-.55.96-.96,1.58-1.25.62-.29,1.33-.44,2.07-.47.81-.03,1.66.11,2.49.4.79.27,1.57.68,2.3,1.24l.15.11c.19.15.37.3.53.47Z"/>
          <path class="cls-2" d="m136.32,246.55c1.33-1.72,3.33-2.63,5.5-2.7,2-.07,4.16.59,6,1.97.02.02.1.07.1.08,1.88,1.44,3.1,3.39,3.56,5.37.49,2.11.13,4.28-1.18,6h-.02s.02,0,.02,0c-1.32,1.72-3.33,2.62-5.5,2.7-2.04.07-4.23-.61-6.1-2.04-1.88-1.44-3.1-3.39-3.56-5.38-.49-2.11-.14-4.28,1.19-6h0Zm5.37.37c-1.24.04-2.36.51-3.05,1.4-.68.9-.86,2.11-.57,3.32.32,1.36,1.19,2.73,2.54,3.76,1.36,1.04,2.91,1.54,4.31,1.49,1.24-.04,2.35-.51,3.04-1.41.69-.9.86-2.11.58-3.32-.31-1.33-1.14-2.66-2.42-3.68l-.12-.09c-1.36-1.04-2.91-1.54-4.31-1.49Z"/>
          <path class="cls-9" d="m140.17,261.3s7.72,2.85,12.66-3.32c-1.32,5.99-8.17,7.46-12.66,3.32Z"/>
        </g>
        <g>
          <g>
            <g>
              <path class="cls-17" d="m138.32,388.11c.46-1.91,1.09-4.54,2.99-7.09.39-.52.61-.89.61-1.22,0-.25-.13-.51-.42-.84-.15.51-.49.91-.83,1.31-.14.16-.28.32-.4.49-.96,1.32-1.65,2.61-2.16,3.8-.51,1.19-.84,2.3-1.07,3.27l-.04.19c-.53,2.22-.66,2.78-2.44,2.69l-.6,4.69c-.04.26-.2.43-.4.49-.09.03-.18.03-.27.02-.09-.02-.18-.05-.26-.11-.19-.14-.32-.4-.28-.78l.49-4.73c-.97-.74-.48-1.83.03-2.96l.15-.34c.42-.96,1.19-2.2,2.02-3.42,1.36-1.99,2.92-3.96,3.44-4.61-.36-.12-.85.09-1.41.51-.63.48-1.31,1.21-1.97,2.03-1.56,1.92-2.98,4.29-3.28,4.97-.5,1.14-.67,2.02-.68,2.68,0,.64.15,1.08.32,1.36l.04.06-.55,5.37c0,.39.48.76,1.09,1.02.34.15.72.26,1.09.32.36.06.71.07,1,.01.3-.06.52-.18.57-.4l.64-4.98.17-.02c1.56-.17,2.02-2.09,2.41-3.72v-.06Z"/>
              <path class="cls-17" d="m158.05,389.15c0-.66-.18-1.54-.68-2.68-.3-.68-1.72-3.05-3.28-4.97-.66-.82-1.35-1.55-1.97-2.03-.55-.42-1.05-.64-1.41-.51.52.65,2.08,2.62,3.44,4.61.84,1.22,1.6,2.46,2.02,3.42l.15.34c.51,1.12,1,2.21.03,2.96l.49,4.73c.04.38-.09.64-.28.78-.08.06-.17.09-.26.11-.09.02-.19,0-.27-.02-.2-.06-.36-.23-.4-.49l-.6-4.69c-1.78.09-1.91-.47-2.44-2.69l-.05-.19c-.23-.97-.56-2.08-1.06-3.27-.51-1.19-1.2-2.48-2.16-3.8-.12-.16-.26-.32-.4-.49-.34-.4-.69-.8-.83-1.31-.29.33-.42.59-.42.84,0,.33.22.7.61,1.22.95,1.28,1.59,2.58,2.04,3.81.45,1.21.72,2.35.95,3.3v.05c.4,1.62.86,3.53,2.42,3.7l.17.02.64,4.98c.05.21.27.34.57.4.28.05.63.04,1-.01.37-.06.75-.17,1.09-.32.61-.26,1.09-.63,1.09-1.02l-.55-5.37.04-.06c.16-.28.32-.72.32-1.36Z"/>
              <path class="cls-15" d="m170.56,389.55l3.71,11.67-.19.08c-2.94,1.2-6.1,2.05-9.12,2.67-4.35.88-8.39,1.26-10.99,1.42l-.25.02.21-3.2-5.14-8.91c-2.94-5.08-5.34-4.68-8.3-4.2l-.66.11,2.29,2.82-2.86,11.13.75,3.79-.23.03c-4.82.59-9.47-.06-13.34-1.07-3.86-1.01-6.96-2.38-8.68-3.24l-.16-.08c2.07-8.1,4.14-16.21,6.21-24.31l.2.04c2.14.43,3.99.4,5.13.31-4.04-1.08-7.96-3.71-7.98-3.72l-.1-.07.15-3.01.3.16c6.78,3.52,14.76,5.11,22.84,5.1,8.68-.01,17.47-1.87,25.06-5.18l.41-.18-.11.43c-.12.47-.22.95-.29,1.44-.08.5-.13,1-.15,1.51v.37s-.12.06-.12.06c-.82.49-2.06,1.18-3.5,1.82-1.07.48-2.26.93-3.44,1.25,1.04.09,2.68.12,4.59-.21l.19-.03.06.18c.59,1.82,2.04,6.36,3.51,10.99Z"/>
              <path class="cls-14" d="m139.9,389.27l2.24,2.74-2.86,11.13.75,3.79-.23.03c-1.14.14-2.27.21-3.39.22l-.85-4.18c-2.76.17-5.41-.81-5.41-.81,4.54-.63,7.48-2.47,7.48-2.47l1.9-7.88-.08-2.81.47.23h0Zm30.67.28l3.71,11.67-.19.08c-2.94,1.2-6.1,2.05-9.12,2.67-4.35.88-8.39,1.26-10.99,1.42l-.25.02.21-3.2-5.14-8.91c-2.08-3.59-3.89-4.45-5.82-4.47v-.22c4.69-.63,7.46,2.29,7.46,2.29l6.97,10.53v2.03c6.82-.69,12.31-2.76,12.31-2.76l-.35-1.5c-3.77,1.52-8.11,1.73-8.11,1.73,4.4-1.47,7.94-4.66,7.94-4.66l-5.02-16.1-3.23-1.49c1.19-.99,2.76-3.29,3.83-4.98,1.59-.54,3.13-1.13,4.63-1.79l3.98-1.81c-.32,1.28-1.07,3.28-1.11,4.6-1.17.7-4.91,2.43-6.15,2.98-1.07.48-2.73.63-3.92.95,1.04.09,2.68.12,4.59-.21l.19-.03.06.18c.59,1.82,2.04,6.36,3.51,10.99Z"/>
              <path class="cls-11" d="m132.31,387.68s5.34-7.67,6.88-8.8c1.54-1.14,2.55-.46,2.26,1.14-.29,1.6-3.03,4.45-3.72,7.49-.69,3.04-1.4,3.81-1.58,3.81h-.69s-1.18,4.75-1.33,4.73c-.15-.03-2.2-.03-2.2-.03l.43-5.21s-.31-2.68-.05-3.12h0Zm25.1,0s-5.33-7.67-6.88-8.8c-1.54-1.14-2.55-.46-2.26,1.14.29,1.6,3.03,4.45,3.72,7.49.69,3.04,1.41,3.81,1.58,3.81h.69s1.18,4.75,1.33,4.73c.15-.03,2.2-.03,2.2-.03l-.43-5.21s.31-2.68.05-3.12Z"/>
              <path class="cls-11" d="m122.49,378.15l-5.87,23c-.67-1.83-1.35-3.67-2.01-5.5,1.58-6.33,3.19-12.66,4.79-18.98l.25.13c.45.23.91.44,1.36.62.45.18.9.34,1.34.48l.2.06-.05.2Z"/>
              <path class="cls-10" d="m171.87,389.31c-1.4-4.4-2.81-8.8-3.53-10.99l-.07-.22.56-.16,4.45-2c3.24,10.32,2.64,11.61,5.46,20.61-.32.99-.63,1.98-.95,2.96l-.08.04c-.32.18-.65.36-.98.53-.34.17-.68.34-1.03.5l-.23.11-.08-.24c-.76-2.39-2.24-7.08-3.54-11.15Z"/>
              <path class="cls-12" d="m136.89,412.47l-1.89,12.89.09,1.08.08,1.01-.21.03c-2.1.27-5.14.41-8.6-.18-3.46-.59-7.36-1.91-11.17-4.57l-.13-.09.04-.15c.11-.39.2-.72.28-.97.14-.49.24-.79.26-.83l.09-.25,1.84-12.33.26.11c2.4,1.03,5.71,2.23,9.56,3.05,2.85.6,5.99,1,9.27.95h.26s-.04.25-.04.25h0Zm30.52-3.91c3.24-.73,6.61-1.73,9.73-3.11l.2-.09,5.86,13.47.16.22s.96,1.33,2.16,3.36l.1.17-.17.12c-4.31,3.01-8.73,4.31-12.51,4.78-3.78.47-6.93.1-8.73-.23l-.13-.02-.04-.12c-.42-1.26-.77-2.41-1.05-3.38-.56-1.95-.85-3.23-.85-3.24l-.04-.26-4-10.15.29-.03c2.64-.29,5.76-.75,9.01-1.48Z"/>
              <path class="cls-6" d="m116.68,423.69c-.49-.3-.99-.62-1.48-.96l-.13-.09.04-.15c.11-.39.2-.72.28-.97.14-.49.24-.79.26-.83l.09-.25,1.84-12.33.26.11c.47.2.97.41,1.5.61l-1.66,12.42s-.42.9-1.01,2.43Z"/>
              <path class="cls-6" d="m175.07,406.29l6.11,13.66s1.22,1.51,2.72,3.76c.52-.31,1.04-.65,1.56-1.01l.17-.12-.1-.17c-1.2-2.03-2.13-3.32-2.16-3.36l-.16-.22-5.86-13.47-.2.09c-.68.3-1.37.58-2.07.85Z"/>
              <path class="cls-9" d="m136.89,412.47l-1.89,12.89.09,1.08.08,1.01-.21.03c-1.51.19-3.49.32-5.77.16-.26-3.03-.58-5.28-.58-5.28,1.12-2.6,1.34-7.53,1.36-10.61,2.13.33,4.38.51,6.7.48h.26s-.04.25-.04.25Z"/>
              <path class="cls-9" d="m170.48,407.79c.3,2.07,1.04,5.55,2.82,9.54,0,0,1.56,6.11,2.89,9.57-1.12.27-2.2.46-3.23.59-3.78.47-6.93.1-8.73-.23l-.13-.02-.04-.12c-.42-1.26-.77-2.41-1.05-3.38-.56-1.95-.85-3.23-.85-3.24l-.04-.26-4-10.15.29-.03c2.64-.29,5.76-.75,9.01-1.48,1.01-.23,2.04-.48,3.06-.77Z"/>
              <path class="cls-11" d="m178.39,433.17c3.18-.85,6.57-2.35,9.87-4.84l.22-.17.11.26c.32.74.63,1.51.91,2.29.28.78.55,1.58.78,2.38l.08.28h-5.42c-.67,0-1.24.11-1.73.31-.9.37-1.52,1.04-1.91,1.92-.41.9-.58,2.01-.58,3.22,0,2.33.65,5.01,1.55,7.22l.06.14-.49.46-.45.45-.11-.02c-2.38-.43-4.56-1.42-6.41-2.64-2.23-1.48-3.97-3.31-4.92-4.88-.54-.74-1.05-1.54-1.54-2.38-.53-.92-1.03-1.88-1.49-2.85l-.17-.35.39.04c2.76.3,6.79.35,11.25-.85h0Zm-52.23.78c3.74.48,6.91.18,8.89-.14l.26-.04v.27c-.08,1.74-.24,3.47-.55,5.15-.31,1.68-.77,3.32-1.42,4.86v.03s-.03.02-.03.02c-1.18,1.53-2.55,2.56-4.09,3.17-1.53.61-3.23.81-5.06.68h-.12s-.06-.12-.06-.12c-.55-1.04-1.15-1.79-1.79-2.27-.62-.47-1.29-.68-1.99-.68-.15,0-.31.02-.47.04-.15.02-.31.06-.47.11l-.45.13.18-.43c.87-2.03,1.38-4.2,1.38-6.1,0-1.14-.19-2.19-.6-3.03-.4-.83-1.02-1.48-1.89-1.85-.54-.23-1.19-.36-1.94-.36h-2.89l.02-.24c.06-.62.12-1.22.2-1.82s.16-1.18.25-1.75l.05-.33.28.19c4.23,2.79,8.54,4.05,12.28,4.53h0Zm.08-5.35c-3.5-.58-7.42-1.87-11.28-4.43l-.26-.17-.07.3c-.13.51-.26,1.08-.4,1.69-.12.55-.24,1.11-.35,1.68l-.03.14.12.08c4.29,3,8.68,4.31,12.45,4.78,3.77.48,6.92.12,8.74-.21l.18-.03v-.18c0-.55,0-1.09-.02-1.63-.01-.55-.04-1.09-.06-1.62v-.24s-.24.03-.24.03c-2.18.26-5.27.39-8.77-.19h0Zm39.13,2.18c.22.56.45,1.12.69,1.69l.05.11.12.02c2.11.31,5.41.54,9.22-.11,3.81-.66,8.15-2.2,12.32-5.43l.14-.11-.08-.16c-.24-.5-.48-.99-.73-1.47-.25-.48-.49-.93-.72-1.36l-.12-.21-.2.14c-4.13,2.85-8.35,4.2-12.06,4.77-3.72.57-6.94.35-9.07.04l-.36-.05.12.34c.21.59.44,1.18.67,1.78Z"/>
              <path class="cls-11" d="m116.21,424.94c-.37,1.05-.77,2.29-1.15,3.66-.36-.23-.72-.47-1.08-.72l-.12-.08.03-.14c.11-.57.23-1.14.35-1.68.14-.61.27-1.18.4-1.69l.07-.3.26.17c.41.28.83.54,1.25.78h0Zm-1.51,4.99c-.27,1.09-.53,2.24-.74,3.44h-.89l.02-.24c.06-.62.12-1.22.2-1.82s.16-1.18.25-1.75l.05-.33.28.19c.27.18.55.35.82.52Z"/>
              <path class="cls-11" d="m187.08,429.18c.4-.27.79-.55,1.18-.85l.22-.17.11.26c.32.74.63,1.51.91,2.29.28.78.55,1.58.78,2.38l.08.28h-1.59c-.42-1.4-1.02-2.82-1.7-4.19h0Zm-2.47-4.36c.62.98,1.26,2.05,1.86,3.18.44-.3.87-.62,1.31-.96l.14-.11-.08-.16c-.24-.5-.48-.99-.73-1.47-.25-.48-.49-.93-.72-1.36l-.12-.21-.2.14c-.49.34-.97.65-1.46.95Z"/>
              <path class="cls-10" d="m178.39,433.17l.18-.05c.68,1.62,1.42,3.28,2.19,4.77-.02.3-.04.61-.04.93,0,2.33.65,5.01,1.55,7.22l.06.14-.49.46-.45.45-.11-.02c-2.38-.43-4.56-1.42-6.41-2.64-2.23-1.48-3.97-3.31-4.92-4.88-.54-.74-1.05-1.54-1.54-2.38-.53-.92-1.03-1.88-1.49-2.85l-.17-.35.39.04c2.76.3,6.79.35,11.25-.85h0Zm-1.77-5.04c-.89.22-1.76.39-2.6.52-3.72.57-6.94.35-9.07.04l-.36-.05.12.34c.21.59.44,1.18.67,1.78.22.56.45,1.12.69,1.69l.05.11.12.02c2.11.31,5.41.54,9.22-.11.85-.15,1.72-.33,2.61-.58-.56-1.39-1.06-2.7-1.45-3.77Z"/>
              <path class="cls-18" d="m129.3,428.94c.09,1.26.17,2.6.21,3.95,2.39.05,4.36-.2,5.66-.43l.18-.03v-.18c0-.55,0-1.09-.02-1.63-.01-.55-.04-1.09-.06-1.62v-.24s-.24.03-.24.03c-1.52.18-3.48.3-5.72.16h0Zm.23,5.25c.02,2.74-.15,5.38-.7,7.17-1.71,5.51-6.19,4.26-6.19,4.26l-.18.14c.54.48,1.06,1.16,1.54,2.06l.06.11h.12c1.83.14,3.52-.06,5.06-.67,1.54-.62,2.91-1.65,4.09-3.17l.02-.02v-.03c.66-1.54,1.12-3.17,1.43-4.86.31-1.68.48-3.41.54-5.15v-.27s-.25.04-.25.04c-1.35.22-3.26.43-5.52.39Z"/>
              <path class="cls-11" d="m207.65,483.35c.97-1.25,1.86-2.39,3.71-2.54h13.86c1.85.14,2.74,1.29,3.71,2.54,1.05,1.35,2.2,2.83,4.84,3.22l.22.03-.04.22c-.03.15-.06.29-.09.4-.04.12-.08.22-.13.3-.48.77-2.04,1.48-7.18,1.99-5.06.49-13.65.8-28.22.8-30.43,0-30.19-3.41-30.13-3.68l.05-.25v-8.39c0-.2.12-.43.28-.63.15-.18.33-.35.47-.48l.21-.18.13.25c3.29,6.22,8.41,7.85,8.52,7.88l.09.03c8.99,2.08,14.3,1.97,20.07,1.86l2.42-.04h.92c3.7,0,5.06-1.76,6.28-3.32Z"/>
              <path class="cls-18" d="m233.94,486.96c-.02.1-.04.18-.07.26-.04.12-.08.22-.13.3-.48.77-2.04,1.48-7.18,1.99-5.06.49-13.65.8-28.22.8-30.43,0-30.19-3.41-30.13-3.68l.05-.25v-8.39c0-.2.12-.43.28-.63.15-.18.33-.35.47-.48l.21-.18.13.25c2.38,4.49,5.71,6.59,7.41,7.42l.44.44s3.92,1.9,8.07,2.58c4.14.68,17.13.47,17.13.47,0,0,3.37-.27,4.83-1.91,1.46-1.64,3.42-3.73,5.33-3.73s3.6-.14,3.6-.14c0,0-1.96,2.28.09,3.96,2.05,1.68,17.5.75,17.5.75,0,0,.07.06.19.18Z"/>
              <path class="cls-15" d="m206.36,482.18c-1.09,1.41-2.1,2.73-4.98,2.73-.2,0-.85.01-1.74.03l-1.64.03c-2.15.04-4.67-.04-6.88-.11h-.14s-.05-.14-.05-.14l-10.53-25.06,6.24,6.68c1.18,1.28,2.31,2.48,3.29,3.53,1.67,1.77,2.93,3.08,3.38,3.55l.1.11-.06.14c-.29.64-.55,1.3-.78,1.99-.11.34-.22.68-.31,1.03.52-.68,1.08-1.33,1.65-1.95.85-.91,1.75-1.75,2.7-2.52l.27-.22.08.33c.13.5.34.95.62,1.33.3.4.67.74,1.12,1.03.42.27.9.48,1.43.64.55.17,1.16.29,1.82.36.9.09,1.89.09,2.93,0,1.09-.09,2.23-.26,3.4-.52l1.88-.42c7.2-1.61,13.02-2.91,21.88,2.39l.07.04.02.08c.11.36.21.72.3,1.08.08.33.15.68.21,1.03.23.17.56.49.81.81.23.29.41.59.43.8.05.21.11.75.16,1.43.04.63.07,1.39.07,2.14v.26s-.26-.05-.26-.05c-1.88-.36-2.72-1.45-3.61-2.61-1.02-1.32-2.11-2.74-5.03-3.12h-13.81c-2.92.38-4.01,1.8-5.03,3.12Z"/>
              <path class="cls-13" d="m211.82,474.39c6.46-1.41,12.05-2.12,20.21,2.76l.07.04.02.08c.11.36.21.72.3,1.08.08.33.15.68.21,1.03.23.17.56.49.81.81.23.29.41.59.43.8.05.21.11.75.16,1.43.04.63.07,1.39.07,2.14v.26s-.26-.05-.26-.05c-.45-.09-.85-.22-1.2-.38.01-.73,0-1.93-.18-2.73-.28-1.22-1.5-2.15-1.5-2.15l1.47-.02c-6-5.75-21.3-4.75-21.3-4.75.23-.13.46-.25.69-.38Z"/>
              <path class="cls-13" d="m180.77,460.58h0c0-.17.2-.13.54.07l5.31,5.68c1.18,1.28,2.31,2.48,3.29,3.53,1.67,1.77,2.93,3.08,3.38,3.55l.1.11-.06.14c-.18.38-.34.78-.49,1.18h0l-12.08-14.26Z"/>
              <path class="cls-11" d="m204.81,474.39c-.98.08-1.9.08-2.73,0-.55-.06-1.05-.15-1.5-.29-.44-.13-.84-.31-1.18-.52-.31-.2-.58-.44-.78-.72-.2-.28-.34-.59-.42-.94-.02-.11-.04-.23-.06-.36-.01-.12-.02-.25-.02-.38v-.11l.09-.07c.99-.69,2.03-1.32,3.09-1.88,5.14-2.69,10.91-3.73,16.1-3.1,5.21.64,9.83,2.96,12.65,7,.36.51.69,1.05.98,1.62l.32.62-.62-.32c-4.11-2.14-7.59-2.89-10.91-2.91-3.33-.02-6.5.69-9.99,1.47l-1.85.41c-1.1.24-2.18.41-3.19.49Z"/>
              <path class="cls-18" d="m204.81,474.39c-.98.08-1.9.08-2.73,0-.55-.06-1.05-.15-1.5-.29-.44-.13-.84-.31-1.18-.52-.31-.2-.58-.44-.78-.72-.2-.28-.34-.59-.42-.94-.02-.11-.04-.23-.06-.36-.01-.12-.02-.25-.02-.38v-.11l.09-.07c.99-.69,2.03-1.32,3.09-1.88.98-.52,1.99-.97,3.01-1.36-.34.49-.49,1.05-.3,1.68.77,2.55,4.37,2.41,8.19,1.37,3.82-1.05,10.52-.46,12.57.27,2.05.73.95-1.58-.5-2.77-.12-.1-.18-.21-.18-.34,2.39,1.19,4.44,2.87,5.97,5.05.36.51.69,1.05.98,1.62l.32.62-.62-.32c-4.11-2.14-7.59-2.89-10.91-2.91-3.33-.02-6.5.69-9.99,1.47l-1.85.41c-1.1.24-2.18.41-3.19.49Z"/>
              <path class="cls-15" d="m198.45,466.9c-1.56,1.34-2.93,2.92-4.04,4.74l-.15.24-.2-.2c-1.46-1.52-5.07-5.3-8.5-9.09-3.43-3.8-6.68-7.6-7.42-9.16-.39-.83-.43-1.54-.28-2.14.2-.85.78-1.46,1.23-1.82l.07-.06.8.1-.02.22c-.07.6,0,1.21.23,1.77.21.54.55,1.04,1.01,1.45.3.27.64.48,1,.63.37.16.75.25,1.15.28l.23.02-.03.23c-.08.61-.01,1.23.2,1.81.21.56.55,1.07,1.02,1.49.3.27.64.48,1,.63.37.16.76.25,1.15.28l.23.02-.03.23c-.08.61-.01,1.23.2,1.81.21.56.55,1.07,1.02,1.49.31.27.64.48,1,.63.37.16.75.25,1.15.28l.23.02-.03.23c-.08.61-.01,1.23.2,1.81.21.56.55,1.07,1.02,1.49.77.68,1.75.98,2.7.92.95-.06,1.88-.48,2.56-1.25.92-1.05,1.94-1.81,3.05-2.29,1.13-.49,2.35-.69,3.66-.62l.92.05-.85.37c-1.99.86-3.84,2-5.48,3.4Z"/>
              <path class="cls-13" d="m189.66,484.75l.13.32-.34-.03-3.21-.49-5.18-.4h-.07s-.05-.06-.05-.06c-2.18-2.25-2.03-4.85-3.54-7.58-.59-1.08-1.14-2.19-1.65-3.32l-2.45-4.84,4.23.7c-1.59-1.96-4.42-9.09-6.12-12l-.16-.28.32-.05c1.95-.28,2.87-1.64,3.18-2.24-2.47-.22-4.16-1.44-5.07-2.9-.41-.67-.67-1.38-.76-2.08-.09-.7-.02-1.39.21-1.99.37-.95,1.15-1.66,2.32-1.87l.11-.02.08.08c.81.79,1.66,1.43,2.53,1.94.87.52,1.76.91,2.65,1.2l.29.1-.19.25c-.46.61-.85,1.39-.91,2.34-.06.76.09,1.64.55,2.63.57,1.21,1.88,2.78,2.73,3.82l10.37,26.75Z"/>
              <path class="cls-5" d="m176.92,448.9l.19.06-.19.25c-.46.61-.85,1.39-.91,2.34-.05.67.06,1.43.4,2.28-.06.04-.12.08-.19.12-2.23,1.2-6.2-.85-6.36-3.77-.16-2.91,1.46-3.16,1.46-3.16,2.05,1.78,5.43,2.06,5.43,2.06l.17-.18Z"/>
              <path class="cls-15" d="m180.87,483.65c-.49-.11-2.06-.35-2.51-.5-.27-.09-1.61-.59-3.21-1.85-1.6-1.26-3.48-3.29-4.85-6.45l-.02-.04-.12-17.31c1.85,3.08,3.86,7.09,6.07,9.94l.27.35h-.44s-.3,0-.3,0h-.3c-.43-.04-.85-.09-1.25-.17-.38-.08-.74-.19-1.05-.33l-1.85-.83c3.8,6.23,5.87,11.06,9.58,17.2Z"/>
              <path class="cls-15" d="m189.65,442.47c-1.94.37-3.76,1.12-5.43,2.24l-.27.18-.07-.32c-1.44-6.69.57-7.72,1.29-7.87.14-.03.24-.03.27-.03h.01c1.14.07,5.65.04,8.48.02.73,0,1.45,0,2.18,0,.95.12,1.46.88,1.71,1.89.23.96.24,2.14.16,3.19-.03.35-.06.69-.1.99l-.03.25-.24-.07c-.33-.09-.64-.17-.93-.23-.33-.08-.63-.14-.91-.19-2.13-.4-4.18-.41-6.11-.05Z"/>
              <path class="cls-13" d="m183.38,440.43c.02-3.02,1.26-3.62,1.8-3.73.14-.03.24-.03.27-.03h.01c1.14.07,5.65.04,8.48.02.73,0,1.45,0,2.18,0,.95.12,1.46.88,1.71,1.89.23.96.24,2.14.16,3.19-.03.35-.06.69-.1.99l-.03.25-.24-.07c-.33-.09-.64-.17-.93-.23-.33-.08-.63-.14-.91-.19-.28-.05-.55-.1-.83-.14-.27-6.58-1.96-4.58-8.54-4.48-1.94.03-2.81,2.55-2.81,2.55l-.21-.02Z"/>
              <path class="cls-15" d="m201.08,443.27c.03-.25.06-.48.08-.7l.02-.16.16-.03c.48-.09.88-.07,1.2.03.3.1.53.27.7.49.17.21.28.48.33.76.09.49.03,1.05-.15,1.61l-.1.29-.24-.19c-.28-.21-.58-.41-.9-.6-.33-.2-.69-.39-1.06-.57l-.14-.07.02-.16c.03-.23.07-.47.09-.71Z"/>
              <path class="cls-13" d="m201.26,442.39h.08c.48-.1.88-.08,1.2.02.3.1.53.27.7.49.17.21.28.48.33.76.09.49.03,1.05-.15,1.61l-.1.29-.24-.19c-.18-.14-.36-.27-.56-.39-.02-.09-.03-.18-.02-.27.1-1.3-.8-2.05-1.24-2.33Z"/>
              <path class="cls-11" d="m202.38,447.02h.02c.11.08.22.17.31.27.09.1.18.2.25.31l.35.55-.61-.22c-.57-.21-1.14-.39-1.71-.55-.56-.16-1.12-.29-1.66-.39-2.35-.44-4.6-.41-6.7.08-2.11.49-4.08,1.45-5.86,2.85h0c-.12.09-.23.18-.33.27-.1.08-.21.18-.32.28h0c-.23.21-.46.42-.69.64-.23.22-.45.45-.67.69l-.02.02-.02.02c-.36.23-.79.34-1.22.31-.41-.03-.82-.19-1.15-.49-.41-.36-.63-.85-.67-1.35-.03-.5.13-1.02.49-1.43,8.44-9.6,19.75-2.15,20.21-1.84h0Zm10.7,13.38h.01c.14.1.27.22.38.34.11.13.21.27.28.42l.16.31h-.35c-.95.02-1.9.09-2.85.2-.94.12-1.88.29-2.79.5l-.06.02-.06-.02c-1.56-.57-3.58-1.02-5.69-.77-2.1.25-4.32,1.2-6.29,3.45-.36.41-.85.63-1.35.66-.5.03-1.02-.13-1.43-.49-.41-.36-.63-.85-.66-1.36-.03-.5.13-1.02.49-1.43,8.44-9.6,19.75-2.15,20.21-1.84h0Zm-3.57-4.46c-.46-.31-11.78-7.76-20.21,1.84-.36.41-.52.92-.49,1.43.03.5.26,1,.66,1.36.33.29.74.45,1.15.49.42.03.85-.07,1.22-.31h.02s.02-.04.02-.04c.21-.23.44-.46.67-.69.23-.22.46-.44.7-.64.11-.1.22-.19.32-.28.11-.09.22-.18.33-.26h0c1.78-1.4,3.74-2.36,5.85-2.85,2.1-.49,4.35-.52,6.7-.08.54.1,1.09.23,1.66.39.56.16,1.14.34,1.71.55l.61.22-.35-.55c-.07-.11-.16-.22-.25-.31-.09-.1-.2-.18-.31-.26h-.01Zm-3.57-4.46c-.46-.31-11.78-7.76-20.22,1.84-.36.41-.52.92-.49,1.43.03.5.26,1,.66,1.36.33.29.74.45,1.15.49.42.03.85-.07,1.21-.31l.02-.02.02-.02c.22-.24.44-.47.67-.69.23-.22.46-.43.69-.64h0c.11-.1.22-.2.32-.28.11-.09.22-.18.33-.26h0c1.78-1.4,3.74-2.36,5.85-2.85,2.1-.49,4.35-.52,6.7-.08.54.1,1.09.23,1.66.39.56.16,1.14.34,1.71.55l.61.22-.35-.55c-.07-.11-.16-.22-.25-.31-.09-.09-.2-.18-.31-.26h-.01Z"/>
              <path class="cls-10" d="m202.38,447.02h.02c.11.08.22.17.31.27.09.1.18.2.25.31l.35.55-.61-.22c-.57-.21-1.14-.39-1.71-.55-.56-.16-1.12-.29-1.66-.39-2.35-.44-4.6-.41-6.7.08-2.11.49-4.08,1.45-5.86,2.85h0c-.12.09-.23.18-.33.27-.1.08-.21.18-.32.28h0c-.23.21-.46.42-.69.64-.23.22-.45.45-.67.69l-.02.02-.02.02c-.36.23-.79.34-1.22.31-.41-.03-.82-.19-1.15-.49-.41-.36-.63-.85-.67-1.35-.03-.5.13-1.02.49-1.43,1.05-1.19,2.14-2.12,3.25-2.83-.39.63-.68,1.45-.15,2.12,1,1.27,5.28-4.08,14.94-2.33,1.27.6,2.06,1.12,2.18,1.2h0Zm-14.87,4.55c-.6.51-1.2,1.08-1.78,1.74-.36.41-.52.92-.49,1.43.03.5.26,1,.66,1.36.33.29.74.45,1.15.49.42.03.85-.07,1.21-.31l.02-.02.02-.02c.22-.24.44-.47.67-.69.23-.22.46-.43.69-.64h0c.11-.1.22-.2.32-.28.11-.09.22-.18.33-.26h0c1.78-1.4,3.74-2.36,5.85-2.85,2.1-.49,4.35-.52,6.7-.08.54.1,1.09.23,1.66.39.56.16,1.14.34,1.71.55l.61.22-.35-.55c-.07-.11-.16-.22-.25-.31-.08-.09-.18-.16-.28-.23h0s0,0,0,0h0s0,0,0,0h0s0,0,0,0h-.01c-.09-.07-.18-.13-.27-.18l-.13-.08-.16-.09-.12-.07c-6.64-3.79-14.37.55-15.43,1.55-1.09,1.03-2.97.97-2.48-.63.04-.14.09-.28.15-.41h0Zm14.35,1.48c-2.24-.14-4.82-.02-7.21.79,2.49-1.02,4.99-1.12,7.21-.79h0Zm-10.66,2.88c-.64.53-1.28,1.14-1.89,1.84-.36.41-.52.92-.49,1.43.03.5.26,1,.66,1.36.33.29.74.45,1.15.49.42.03.85-.07,1.22-.31h.02s.02-.04.02-.04c.21-.23.44-.46.67-.69.23-.22.46-.44.7-.64.11-.1.22-.19.32-.28.11-.09.22-.18.33-.26h0c1.78-1.4,3.74-2.36,5.85-2.85,2.1-.49,4.35-.52,6.7-.08.54.1,1.09.23,1.66.39.56.16,1.14.34,1.71.55l.61.22-.35-.55c-.07-.11-.16-.22-.25-.31-6.92-4.17-16.16.54-17.19,1.3-.68.5-2.18-.35-1.45-1.57h0Zm2.99,4.96c-.16.68-.01,1.26.22,1.54.64.77,3.64-3.01,8.56-2.69,4.92.32,6.21,1,6.88.97.67-.03.86-.83-.1-1.78-.14-.14-.17-.23-.11-.28,1.99.78,3.3,1.65,3.45,1.75h.01c.14.1.27.22.38.34.11.13.21.27.28.42l.16.31h-.35c-.95.02-1.9.09-2.85.2-.94.12-1.88.29-2.79.5l-.06.02-.06-.02c-1.56-.57-3.58-1.02-5.69-.77-2.1.25-4.32,1.2-6.29,3.45-.36.41-.85.63-1.35.66-.5.03-1.02-.13-1.43-.49-.41-.36-.63-.85-.66-1.36-.03-.5.13-1.02.49-1.43.43-.49.87-.94,1.32-1.34Z"/>
              <path class="cls-15" d="m129.94,454.45c-1.99.5-4.46.73-7.44.34.22.17.44.34.66.49.43.3.86.58,1.29.82l.22.12-22.62,29.36h-.11c-3.05.04-6.11.03-9.14.02h-3.74c-2.88,0-3.89-1.32-4.98-2.73-1.02-1.33-2.11-2.74-5.04-3.12l-15.42-.65.04-.25c.06-.31.12-.6.19-.88.07-.29.16-.57.25-.86l.1-.31.29.26c.53-.55,1.2-.96,1.94-1.25.8-.32,1.7-.51,2.63-.61.99-.11,2.02-.12,3.03-.09,1.01.03,1.98.11,2.84.19,1.94.17,3.61.33,5.34.49h.1c6.69.64,14.4,1.37,16.47,1.03.41-.07.79-.21,1.12-.42.34-.21.63-.49.86-.82.22-.31.38-.67.49-1.06.1-.39.15-.81.13-1.25-.02-.37-.09-.77-.2-1.17-.11-.39-.28-.78-.49-1.18l-.24-.44.49.13c.58.15,1.16.26,1.74.32.57.06,1.13.08,1.69.05,1.38-.07,2.72-.42,3.96-1.07,1.19-.62,2.3-1.52,3.29-2.73l14.39-17.51.13.03c2.26.48,4.3.35,6.06-.11,2.4-.63,4.31-1.86,5.63-2.95l.17-.14.14.18c.32.41.57,1,.59,1.82.02.64-.1,1.44-.44,2.42v.03s-.03.03-.03.03c0,.01-2.07,2.39-6.39,3.48Z"/>
              <path class="cls-13" d="m65.28,479.17l-1.65-.07.04-.25c.06-.31.12-.6.19-.88.07-.29.16-.57.25-.86l.1-.31.29.26c.53-.55,1.2-.96,1.94-1.25.8-.32,1.7-.51,2.63-.61.99-.11,2.02-.12,3.03-.09,1.01.03,1.98.11,2.84.19,1.94.17,3.61.33,5.34.49h.1c6.69.64,14.4,1.37,16.47,1.03.21-.03.4-.09.59-.16l.42.05s-2.19,1.85-6.11,1.47c-3.92-.38-15.42-1.67-20.97-1.67-3.86,0-5.11,1.65-5.52,2.65Z"/>
              <path class="cls-15" d="m110.72,443.42c-1.95-.6-3.94-.83-5.84-.77h-.23s0-3.13,0-3.13c0-.52.01-.97.06-1.35.05-.4.14-.71.3-.94.14-.2.36-.34.69-.43.3-.08.7-.13,1.21-.13h7.97s.16,0,.32.04c.8.2,2.88,1.46.93,9.16l-.08.32-.26-.2c-1.59-1.19-3.32-2.03-5.08-2.57Z"/>
              <path class="cls-11" d="m97.89,458.2c2.87.4,5.85,1.76,8.38,4.64.36.41.52.92.49,1.43-.03.5-.26,1-.66,1.35-.41.36-.92.52-1.43.49-.5-.03-1-.26-1.35-.66-2.44-2.77-5.24-3.58-7.76-3.52-2.53.06-4.79.99-6.11,1.67l-.08.04-.08-.02c-.39-.11-.8-.21-1.22-.3-.41-.09-.84-.16-1.27-.23l-.21-.03.03-.21c.1-.7.58-1.43,1.35-2.1.98-.86,2.44-1.64,4.17-2.13,1.72-.49,3.71-.69,5.77-.4h0Zm15.77-11.73c1.19.76,2.31,1.74,3.31,2.99.36.41.52.92.49,1.43-.03.5-.26,1-.67,1.36-.33.29-.74.46-1.16.49-.42.03-.85-.08-1.22-.31h-.02s-.02-.03-.02-.03c-.13-.14-.26-.27-.39-.39-.14-.13-.27-.26-.4-.38h0c-.58-.6-1.18-1.1-1.78-1.5-.6-.4-1.22-.71-1.83-.95h-.02c-1.68-.82-3.48-1.32-5.27-1.56-1.96-.26-3.92-.22-5.73.08l-.48.08.26-.41c.24-.37.57-.72.97-1.05,1.35-1.08,3.58-1.85,6.1-1.94,2.51-.09,5.32.49,7.84,2.1h0Zm-3.08,4.94c-2.79-1.9-5.86-2.53-8.55-2.42-2.7.11-5.03.99-6.32,2.12-.27.24-.5.49-.67.75l-.29.43.51-.09c1.87-.34,3.91-.41,5.96-.14,1.85.25,3.71.79,5.45,1.68h.02c.56.24,1.12.55,1.67.92.55.38,1.1.83,1.63,1.37h0c.14.14.28.27.42.41.14.13.27.27.4.41l.02.02.02.02c.37.24.8.34,1.22.31.41-.03.82-.19,1.16-.49.41-.36.63-.85.66-1.36.03-.5-.13-1.02-.49-1.43-.88-1.01-1.84-1.84-2.83-2.51h0Zm-3.75,4.35c-2.74-1.79-5.78-2.4-8.43-2.3-2.67.1-4.97.94-6.24,2.05-.28.24-.51.5-.68.77l-.28.43.51-.1c1.98-.39,4.15-.48,6.32-.14,1.94.3,3.88.94,5.7,2h.01c.45.24.9.51,1.35.84.42.31.84.67,1.25,1.08h0c.16.15.31.3.46.44.16.16.31.31.45.46l.02.02h.02c.37.25.8.35,1.22.32.41-.03.82-.19,1.16-.49.41-.36.63-.85.66-1.36.03-.5-.13-1.02-.49-1.43-.93-1.06-1.95-1.92-3.01-2.61Z"/>
              <path class="cls-18" d="m101.9,459.43c1.53.76,3.02,1.86,4.38,3.41.36.41.52.92.49,1.43-.03.5-.26,1-.66,1.35-.41.36-.92.52-1.43.49-.5-.03-1-.26-1.35-.66-2.44-2.77-5.24-3.58-7.76-3.52-2.53.06-4.79.99-6.11,1.67l-.08.04-.08-.02c-.38-.1-.77-.2-1.17-.29l.17-.19c3.47-3.84,11-2.56,12.02-2.18,1.02.38,3.34.99,2.1-1.01-.11-.18-.28-.35-.51-.52h0Zm11.77-12.96c.18.71.22,1.49-.32,1.79-1.09.61-6.22-3.56-14.42-.79,0,0,.25.04.68.12,1.62-.21,3.35-.22,5.08.02,1.79.24,3.59.74,5.27,1.55h.02c.61.24,1.23.55,1.83.95.6.4,1.2.89,1.78,1.49h0c.13.13.26.25.4.39.13.13.26.26.39.39l.02.02h.02c.37.25.8.36,1.22.33.41-.03.82-.19,1.16-.49.41-.36.63-.85.67-1.36.03-.5-.13-1.02-.49-1.43-1-1.25-2.12-2.23-3.31-2.99h0Zm-4.15,4.28c.36.2.72.42,1.07.66.99.67,1.94,1.5,2.83,2.51.36.41.52.92.49,1.43-.03.5-.26,1-.66,1.36-.33.29-.74.46-1.16.49-.42.03-.85-.07-1.22-.31l-.02-.02-.02-.02c-.13-.14-.27-.28-.4-.41-.13-.13-.28-.27-.42-.4h0c-.53-.55-1.07-1-1.63-1.38-.55-.38-1.11-.68-1.67-.91h-.02c-1.74-.9-3.59-1.43-5.45-1.68-2.05-.28-4.09-.2-5.96.14h0s-.03-.21-.03-.21c5.8-2.25,10.93-.37,12.22.28,1.3.65,3.41,1.02,2.46-1.02-.08-.16-.21-.32-.39-.48h0Zm-2.52,5.12c.12.16.24.33.35.51,0,0,.36,1.03.04,1.71s-1.27-.02-1.89-.59c-.61-.57-7.97-3.91-13.83-1.1,0,0,.23.04.63.11,1.82-.3,3.77-.34,5.73-.03,1.94.3,3.88.94,5.7,2h.01c.45.24.9.51,1.35.84.42.31.84.67,1.25,1.08h0c.16.15.31.3.46.44.16.16.31.31.45.46l.02.02h.02c.37.25.8.35,1.22.32.41-.03.82-.19,1.16-.49.41-.36.63-.85.66-1.36.03-.5-.13-1.02-.49-1.43-.89-1.01-1.85-1.84-2.85-2.51Z"/>
              <path class="cls-15" d="m97.06,463.77c1.02.15,1.97.5,2.86,1.05l.23.14-.35.38s-1.76,1.77-4.55,1.34h-.07s-.05-.06-.05-.06c-.39-.36-.83-.71-1.3-1.02-.49-.32-1.01-.62-1.58-.9l-.48-.23.51-.17c.27-.09.53-.17.78-.24.25-.07.5-.13.75-.18,1.15-.23,2.23-.27,3.26-.12Z"/>
              <path class="cls-11" d="m94.66,469c1.14.82,1.92,1.7,2.42,2.51.2.32.34.63.45.93.11.32.17.63.18.92.01.24,0,.47-.05.67-.05.21-.13.4-.24.56-.1.14-.22.25-.36.34-.14.09-.29.14-.47.17-1.85.3-9.45-.42-16.03-1.04-.08,0-.21-.02-.3-.03-2.05-.19-3.98-.37-5.15-.48-.92-.08-1.94-.16-2.98-.2-1.05-.03-2.15-.02-3.23.1-.48.05-.96.13-1.43.23-.46.1-.92.23-1.36.38l-.67.24.42-.57c1.93-2.66,4.86-4.59,8.22-5.84,3.72-1.39,7.96-1.93,11.92-1.68h.02s.03,0,.03,0c.25.08.5.12.75.15.25.02.51.02.77,0h.03s.02,0,.02,0c.6.07,1.19.16,1.77.27.58.11,1.14.24,1.69.38l.23.06-.06.19c1.39.49,2.52,1.1,3.42,1.74Z"/>
              <path class="cls-10" d="m94.66,469c1.14.82,1.92,1.7,2.42,2.51.2.32.34.63.45.93.11.32.17.63.18.92.01.24,0,.47-.05.67-.05.21-.13.4-.24.56-.1.14-.22.25-.36.34-.14.09-.29.14-.47.17-1.85.3-9.45-.42-16.03-1.04-.08,0-.21-.02-.3-.03-2.05-.19-3.98-.37-5.15-.48-.92-.08-1.94-.16-2.98-.2-1.05-.03-2.15-.02-3.23.1-.48.05-.96.13-1.43.23-.46.1-.92.23-1.36.38l-.67.24.42-.57c1.3-1.79,3.05-3.25,5.08-4.39.58.94,2.26,2.29,7.08,3.01,7.88,1.18,12.96.09,13.68-1.59.72-1.67-.52-2.96-1.62-3.58-.26-.15-.5-.35-.7-.56h.02c.58.11,1.14.24,1.69.39l.23.06-.06.19c1.39.49,2.52,1.1,3.42,1.74Z"/>
              <path class="cls-15" d="m100.36,469.11c-.68-.11-1.36-.3-2.05-.55l-.59-.22.6-.19c1.65-.54,2.63-1.49,2.7-1.56.15-.17.32-.34.48-.51l.33.35.17.18c.48.55,1.1.92,1.76,1.11.68.2,1.42.2,2.1,0l1.6-.47-1.43.87c-.57.34-1.16.61-1.77.79-.62.19-1.26.3-1.91.33-.65.03-1.32,0-1.99-.12Z"/>
              <path class="cls-15" d="m112.04,460.24c.05-.35.06-.71,0-1.07l-.03-.23.23-.02c.39-.03.78-.13,1.15-.28.35-.15.69-.36,1-.63l.45-.4.3-.52c.21-.36.35-.75.43-1.15.08-.41.09-.82.04-1.23l-.03-.23.23-.02c.39-.03.78-.13,1.15-.28.35-.15.69-.36,1-.63.77-.68,1.19-1.61,1.25-2.56.06-.95-.24-1.93-.91-2.7l-.35-.39.16-.15c.38-.36.75-.64,1.1-.84.36-.2.71-.31,1.04-.32.39,0,.77.16,1.15.52.36.33.72.84,1.08,1.54l.07.13c-4.91,5.99-9.84,11.97-14.76,17.96l.49-1.26c.11-.29.19-.6.22-.91.04-.31.03-.63,0-.94l-.03-.23.23-.02c.34-.03.67-.1.99-.22.31-.12.61-.28.89-.48l.77-.56.4-.87c.15-.32.25-.67.31-1.02Z"/>
              <path class="cls-13" d="m118.57,448.65c-.08-.12-.17-.23-.27-.35l-.35-.39.16-.15c.38-.36.75-.64,1.1-.84.36-.2.71-.31,1.04-.32.39,0,.77.16,1.15.52.36.33.72.84,1.08,1.54l.07.13-.27.33c-.39-.56-1.61-1.88-3.7-.47h0Zm5.36,1.21l.15-.19.13.03c2.26.48,4.3.35,6.06-.11,2.4-.63,4.31-1.86,5.63-2.95l.17-.14-.03.31s-.73,2.82-4.73,4.03c-4,1.21-7.38-.97-7.38-.97h0Zm-16.88-7.15c-.73-.06-1.45-.08-2.16-.06h-.23s0-3.13,0-3.13c0-.52.01-.97.06-1.35.05-.4.14-.71.3-.94.14-.2.36-.34.69-.43.3-.08.7-.13,1.21-.13h7.97s.16,0,.32.04c.8.2,2.88,1.46.93,9.16l-.08.32-.26-.2c-.14-.1-.28-.2-.42-.3.28-1.47.85-4.9.43-6.31-.55-1.81-6.14-1.6-7.75-1.26-1.25.27-1.13,3.29-1.02,4.59h0Zm-.65,27.2h0c1.19-.63,2.3-1.53,3.29-2.73l10.83-13.18c.26.61.59,1.78-.11,2.78-1,1.41-8.83,11.19-8.83,11.19,0,0-3.43,2.32-4.88,2.02-.12-.02-.22-.05-.31-.08Z"/>
              <path class="cls-13" d="m104.57,485.18l21.74-28.22.15.05c1.26.44,2.51.64,3.71.64,1.28,0,2.51-.24,3.63-.66l.86-.32-12.83,13.92,8.56-1.57c-3.97,5.22-7.93,10.43-11.9,15.65h-.09c-2.23.27-4.49.46-6.78.59-2.27.14-4.57.22-6.87.27h-.46s.28-.35.28-.35Z"/>
              <path class="cls-15" d="m121.25,483.93l13.27-17.44-7.85,1.44,8.91-9.67v16.54l-.02.04c-1.38,3.16-3.25,5.19-4.85,6.45-1.61,1.26-2.94,1.76-3.22,1.85h-.02c-.98.23-1.98.44-2.98.63-1.01.19-2.02.36-3.03.51l-.53.08.33-.43Z"/>
              <path class="cls-11" d="m127.97,484.83c.11-.03,5.22-1.67,8.51-7.88l.13-.25.21.18c.14.13.32.3.47.48.16.2.28.42.28.63v8.39l.05.25c.06.27.3,3.68-30.13,3.68-13.74,0-24.3-.28-31.72-.72-8.38-.5-12.8-1.25-13.3-2.07-.24-.39-.34-1.41-.35-2.54-.03-1.69.12-3.66.23-4.01l.05-.16c5.42.23,11.31.7,16.68.7,1.85.14,2.74,1.29,3.71,2.54,1.22,1.56,2.58,3.31,6.28,3.31h3.61c11.87.03,24.12.06,35.21-2.5l.09-.03Z"/>
              <path class="cls-18" d="m127.97,484.83c.11-.03,5.22-1.67,8.51-7.88l.13-.25.21.18c.14.13.32.3.47.48.16.2.28.42.28.63v8.39l.05.25c.06.27.3,3.68-30.13,3.68-13.74,0-24.3-.28-31.72-.72-8.38-.5-12.8-1.25-13.3-2.07-.11-.18-.19-.51-.25-.92,1.26.31,5.54,1.29,8,.87,2.92-.5,4.23-4.88,4.23-4.88,0,0,2.8.12,4.03.15,1.23.04,2.24.27,4.2,3.15,1.96,2.88,5.81,2.71,5.81,2.71,11.97.75,31.8-1.18,34.79-1.47,1.79-.17,3.31-1.31,4.25-2.2l.35-.08.09-.03Z"/>
              <polygon class="cls-2" points="124.3 377.25 117.45 404.09 115.75 403.66 122.6 376.82 124.3 377.25"/>
              <path class="cls-2" d="m168.1,376.94c.29.59,7.97,24.88,7.99,24.95l-1.67.53c-.02-.07-7.75-24.42-7.88-24.69l1.56-.78Z"/>
              <g>
                <path class="cls-2" d="m139.2,378.89s-4.35,5.36-5.59,8.19c-.52,1.2-1.21,2.4-.15,3.11-.17,1.62-.33,3.24-.5,4.86-.08.77.7.85.78.32.21-1.63.42-3.26.63-4.89.97.07,1.55.1,1.95-.87.18-.44.33-1.08.51-1.83h0c.47-1.96,1.32-4.48,3.26-7.15.48-.67,1.24-1.23,1.26-2.14,1.09,1.07.96,1.55.13,2.67-1.87,2.53-2.5,5.14-2.95,7.03h0c-.2.83-.37,1.53-.6,2.09-.56,1.36-1.36,1.77-2.01,1.84-.21,1.61-.41,3.21-.62,4.82-.29,1.3-4.21.32-4.19-1,.18-1.77.36-3.54.55-5.3-.36-.62-.67-1.9.35-4.24.58-1.32,5.37-8.97,7.19-7.49Z"/>
                <path class="cls-2" d="m150.38,378.89s4.35,5.36,5.59,8.19c.52,1.2,1.22,2.4.15,3.11.17,1.62.33,3.24.5,4.86.08.77-.7.85-.78.32-.21-1.63-.42-3.26-.63-4.89-.97.07-1.55.1-1.95-.87-.18-.44-.34-1.08-.51-1.83h0c-.47-1.96-1.32-4.48-3.26-7.15-.48-.67-1.24-1.23-1.26-2.14-1.09,1.07-.96,1.55-.13,2.67,1.87,2.53,2.5,5.14,2.95,7.03h0c.2.83.37,1.53.6,2.09.56,1.36,1.36,1.77,2.01,1.84.2,1.61.41,3.21.62,4.82.29,1.3,4.21.32,4.19-1-.18-1.77-.36-3.54-.55-5.3.36-.62.67-1.9-.35-4.24-.58-1.32-5.37-8.97-7.19-7.49Z"/>
              </g>
            </g>
            <path class="cls-2" d="m121.59,368.89l-.29,5.84s4.74,3.17,9.11,3.96c0,0-5.42,1.12-10.86-1.7l-4.71,18.65,2.37,6.5c2.81,1.47,12.27,5.87,22.54,4.62l-.71-3.6,3.22-12.51,5.29,1.35-2.9,11.28,1.54,7.81-2.62.58c-15.35,3.38-29.9-5.23-29.95-5.25l-.86-.5-3.65-9.99,5.16-20.43,1.98-2.86.02-5.06,5.31,1.33h0Zm52.85,7.3l-2.13-2.03s-5.77,3.55-11.35,4.51c0,0,6.57,1.36,11.76-2.05l1.72-.44Z"/>
            <path class="cls-2" d="m148.99,393.19l5.17,8.96-.2,3.02c5.16-.32,16.01-1.49,23.65-5.8l.9-2.81-4.79-18.23-2.01-3.41,1.61-6.24,5.22-1.63-1.45,6.92,1.9,3.06,5.24,19.53-2.06,6.43-.86.53c-11.59,7.14-30.22,7.23-30.27,7.23l-2.95.03.49-7.39-5.7-10.08-3.48-4.27c3.55-.5,6.21-1.64,9.57,4.14Z"/>
            <path class="cls-2" d="m142.46,410.7l-2.17,14.8c.49,7.09-.75,12.54-2.12,19.16,0,0-5.68,7.55-14.82,5.06l-.41-2.14c4.14.61,7.62-.31,10.2-3.63,2.33-5.54,2.17-12.32,1.67-18.29l-.03-.3,2.26-15.44,5.42.79Z"/>
            <path class="cls-2" d="m118.21,405.4l-2.26,15.1-.1.27s-2.53,7.63-2.69,15.13h-5.66c.02-7.76,2.57-15.25,3.13-16.79l2.17-14.5,5.42.79Z"/>
            <path class="cls-2" d="m182.36,447.01c-5.64-.59-10.39-4.55-12.22-7.56-4.55,1.82-8.28,7.2-5.13,14.41v19.64c-.89.96-2,2.54-2,4.5v10.68c0,2.25,1.97,6.91,35.34,6.91,38.12,0,40.75-4.5,40.78-6.91v-7.64c.01-2.46-1.89-4.32-2.92-5.14-7.65-20.44-39.73-19.15-44.44,1.81,11.28-15.99,37.69-15.63,40.67,1.82.4.26,1.23,1.15,1.23,1.52.18.56.44,5.49-.1,6.38-.89,1.44-6.09,2.69-35.21,2.69-31.3,0-29.92-3.39-29.91-3.41l.05-.29v-8.41c0-.45.93-1.15.93-1.15l1.07-.83v-19.01c3.5.19,4.58-2.69,4.58-2.69-6.54-.34-7.68-7.69-3.58-8.43,2.9,2.81,6.27,3.79,9.36,3.91.29-.89.93-1.93,1.51-2.78Z"/>
            <path class="cls-2" d="m221.49,478.84h-10.11c-6.07.78-4.48,5.85-10.01,5.85-.16,0-.93.01-1.97.03-6.27.11-11.47.41-20.97-1.78-.55-.19-5.44-2.02-8.12-8.61l-2.03.82c3.23,7.93,9.51,9.88,9.53,9.89l.09.02c9.74,2.25,15.18,1.95,21.53,1.84.75-.01,1.32-.02,1.94-.02,6.69,0,5.93-5.53,10.01-5.85h3.72s3.19,0,3.19,0h3.19s0,0,0,0h3.72c4.07.32,3.32,5.85,10.01,5.85.57,0,1.11,0,1.78.02v-2.19c-.94-.02-1.62-.03-1.78-.03-5.53,0-3.94-5.07-10.01-5.85h-3.72Z"/>
            <path class="cls-2" d="m176.92,404.94l6.09,14,.17.24s6.27,8.69,7.59,17.1l5.4-.87c-1.38-8.79-7.3-17.65-8.37-19.19l-5.85-13.45-5.03,2.17Z"/>
            <path class="cls-2" d="m156.73,405.96l5.59,14.2.05.29s2.75,12.11,7.76,18.99l-4.2,3.74c-5.24-7.19-8.59-19.71-8.92-21.56l-5.37-13.64,5.09-2.02Z"/>
            <path class="cls-2" d="m138.82,441.77c2.38,1.67,4.94,5.38,2.01,12.08v19.64c.89.96,2,2.54,2,4.5v10.68c0,2.25-1.97,6.91-35.34,6.91-38.12,0-50.38-3.35-50.41-5.75v-8.79c-.01-2.46,1.89-4.32,2.92-5.14,9.14-18.14,36.16-15.51,37.46-5.41-1.62-1.48-3.93-2.4-6.51-3.09-10.27-2.73-25.7.82-27.18,12.12-.4.26-1.23,1.15-1.23,1.52-.18.56-.44,5.49.1,6.38.89,1.44,15.71,2.69,44.84,2.69,31.3,0,29.92-3.39,29.91-3.41l-.05-.29v-8.41c0-.45-.93-1.15-.93-1.15l-1.07-.83v-23.3l.27-.57c2.63-5.61-.95-6.2-.96-6.2l-2.03-.36,6.19-3.8Z"/>
            <path class="cls-2" d="m138.5,453.76c-3.2,4.31-10.36,6.25-16.73.7,9.86,1.61,14.37-3.6,14.39-3.62l2.35,2.92Z"/>
            <path class="cls-2" d="m62.56,478.84l16.5.69c6.07.78,4.48,5.85,10.01,5.85,12.8,0,26.28.34,38.35-2.44.55-.19,5.44-2.02,8.12-8.61l2.03.82c-3.23,7.93-9.51,9.88-9.53,9.89l-.09.02c-12.25,2.83-25.89,2.51-38.88,2.51-6.69,0-5.93-5.53-10.01-5.85l-16.5-.69v-2.19Z"/>
            <path class="cls-2" d="m94.62,466.32c3.08.83,5.01-1.13,5.02-1.14l.87-.93,1.79,1.29c-.68.73-1.08,1.16-1.09,1.16l-.03.03s-1.03,1.05-2.79,1.62c1.33.49,2.66.73,3.94.66,2.15-.11,4.18-1.08,5.83-3.08l14.11-17.17c-.7-1.35-1.38-1.94-2.04-1.94-.81,0-1.8.78-2.92,2.08l-1.45-1.66c1.46-1.63,2.9-2.59,4.35-2.6,1.66-.02,3.12,1.13,4.34,3.82l.28.62-14.99,18.24c-2.07,2.52-4.66,3.73-7.4,3.87-2.91.15-5.96-.92-8.75-2.93l-4.87-3.51,5.79,1.57Z"/>
            <path class="cls-2" d="m94.02,450.24c-1.76-7.01,15.39-12.38,24.44-2.08,1.43,1.63,1.27,4.13-.35,5.57-1.02.89-2.38,1.17-3.61.85,0,0-1.6-4.36-6.67-6.16,2.13.27,4.36,1.24,6.36,3.51.64.73,1.75.8,2.47.16.73-.64.8-1.75.16-2.47-6.47-8.09-18.21-4.92-18.29-.88-.91.38-4.06,1.26-4.51,1.51Z"/>
            <path class="cls-2" d="m90.57,455.09c-2.55-6.98,15.66-12.32,24.32-2.47,1.43,1.63,1.27,4.13-.35,5.57-1.11.97-2.62,1.21-3.92.75-.72-1.42-3.01-5.03-8.16-6.06-.1-.02-.2-.04-.3-.06,2.71-.19,5.8.53,8.46,3.56.64.73,1.75.8,2.47.16.73-.64.8-1.75.16-2.47-7.35-8.36-19.24-4.17-18.37-.56-.84.35-3.84,1.33-4.31,1.59Z"/>
            <path class="cls-2" d="m86.95,459.4c-2.11-6.6,15.58-12.33,24.37-2.32,1.43,1.63,1.27,4.13-.36,5.57-1.09.96-2.57,1.2-3.86.78-.59-1.23-2.75-4.98-7.88-6.17,2.55-.04,5.36.8,7.82,3.59.64.73,1.75.8,2.47.16.73-.64.8-1.75.16-2.47-7.08-8.05-18.88-4.47-18.36-.77-.86.35-3.9,1.39-4.37,1.64Z"/>
            <path class="cls-2" d="m89.33,465.94c-1.81,1.21-4.27.72-5.47-1.1-4.29-6.44,14.24-14.29,23.9-3.31,1.43,1.63,1.27,4.13-.36,5.57-1.63,1.43-4.14,1.27-5.57-.36-2.15-2.44-4.83-3.28-7.99-2.65-1.48.3-3.24.99-4.51,1.84h0Zm-1.22-1.82s8.94-6.12,15.37,1.19c.64.73,1.75.8,2.47.16.73-.64.8-1.75.16-2.47-7.89-8.98-20.3-2.95-19.23.56.54.81.43,1.11,1.24.57Z"/>
            <path class="cls-2" d="m100.86,444.26v-4.74c0-1.44.11-4.1.71-4.96.65-.93,1.71-1.41,3.52-1.41h10.88c6.44,0,5.38,8.94,1.73,14.51l-2.11-.59c2.94-10.39-.69-10.18-.7-10.18h-.02s-7.96,0-7.96,0c-1,0-1.51.16-1.72.47-.27.38-.32,1.13-.32,2.16v4.74h-4.02Z"/>
            <path class="cls-2" d="m62.88,475.92c1.49-1.7,3.68-2.43,5.99-2.68,2.18-.24,4.43-.06,6.26.1,1.15.1,3.25.3,5.45.5,6.58.62,14.16,1.33,15.98,1.04.29-.05.52-.2.68-.42.19-.27.28-.64.26-1.09-.03-.52-.21-1.11-.6-1.74-.88-1.45-2.7-3.12-5.93-4.23l.7-2.07c3.78,1.29,5.98,3.33,7.1,5.16.58.96.87,1.91.91,2.78.05.94-.19,1.78-.65,2.44-.49.71-1.23,1.18-2.13,1.33-2.1.34-9.83-.39-16.53-1.02-1.72-.16-3.36-.32-5.43-.5-1.74-.15-3.87-.32-5.83-.1-1.83.2-3.77.7-4.84,1.91l-1.39-1.4Z"/>
            <polygon class="cls-2" points="101.75 485.62 125 455.44 126.73 456.78 103.48 486.96 101.75 485.62"/>
            <polygon class="cls-2" points="138.13 455.81 127.27 467.6 135.03 466.17 120.05 485.86 118.31 484.53 129.87 469.34 121.22 470.93 136.52 454.33 138.13 455.81"/>
            <path class="cls-2" d="m184.95,433.15c-6.09,0-4.88,8.7-2.49,13.86.54-.59,1.14-1.16,1.82-1.68-2.07-8.62,1.15-8.44,1.16-8.44,1.52.09,9,0,10.56,0,2.75.2,1.58,6.58,1.41,7.37.78.27,3.08.54,3.63.77.82-4.64,1.06-11.89-4.2-11.89h-11.9Z"/>
            <path class="cls-2" d="m205.12,449.63c1.15-4.56-6.02-6.7-9.32-7.33-5.89-1.11-11.15.73-15.12,5.25-1.43,1.63-1.27,4.13.35,5.57,1.02.89,2.38,1.17,3.61.85,0,0,1.6-4.36,6.67-6.16-2.13.27-4.36,1.24-6.36,3.51-.64.73-1.75.8-2.47.16-.73-.64-.8-1.75-.16-2.47,8.48-9.64,19.91-1.81,19.94-1.79.5.33.77.87.78,1.43.91.38,1.62.75,2.07,1Z"/>
            <path class="cls-2" d="m208.57,454.48c.61-1.67.03-3.61-1.51-4.64-2.16-1.46-5.15-2.6-7.69-3.08-5.89-1.11-11.15.73-15.12,5.25-1.43,1.63-1.27,4.13.35,5.57,1.11.97,2.62,1.21,3.92.75.72-1.42,3.01-5.03,8.16-6.06.1-.02.2-.04.3-.06-2.71-.19-5.8.53-8.46,3.56-.64.73-1.75.8-2.47.16-.73-.64-.8-1.75-.16-2.47,8.48-9.64,19.91-1.81,19.94-1.79.63.42.9,1.18.73,1.87.85.35,1.53.69,2,.95Z"/>
            <path class="cls-2" d="m212.19,458.79c.52-1.64-.07-3.49-1.56-4.49-2.16-1.46-5.15-2.6-7.69-3.08-5.89-1.11-11.15.73-15.12,5.25-1.43,1.63-1.27,4.13.36,5.57,1.09.96,2.57,1.2,3.86.78.59-1.23,2.75-4.98,7.88-6.17-2.55-.04-5.36.8-7.82,3.59-.64.73-1.75.8-2.47.16-.73-.64-.8-1.75-.16-2.47,8.48-9.64,19.91-1.81,19.94-1.79.58.39.86,1.06.76,1.71.86.35,1.55.7,2.02.96Z"/>
            <path class="cls-2" d="m209.81,465.33c1.81,1.21,4.27.72,5.47-1.09,1.21-1.81.72-4.27-1.09-5.47-2.16-1.46-5.15-2.61-7.69-3.08-5.89-1.11-11.15.73-15.12,5.25-1.43,1.63-1.27,4.13.36,5.57,1.63,1.43,4.14,1.27,5.57-.36,2.15-2.44,4.83-3.28,7.99-2.65,1.48.3,3.24.99,4.51,1.84h0Zm1.22-1.82s-8.94-6.12-15.37,1.19c-.64.73-1.75.8-2.47.16-.73-.64-.8-1.75-.16-2.47,8.48-9.64,19.91-1.81,19.94-1.79.81.54,1.02,1.63.49,2.43-.54.81-1.63,1.02-2.43.49Z"/>
            <path class="cls-2" d="m179.8,449.27s-2.73,1.37-1.45,4.08c1.65,3.52,16.51,18.85,16.55,18.89l-1.57,1.52s-15.16-15.65-16.96-19.49c-2.18-4.64,2.43-6.95,2.44-6.95l.99,1.94Z"/>
            <path class="cls-2" d="m200.21,437.49c6.26-.97,9.09,3.37,7.92,7.67l13.03,18.11-4.7,1.26-13.44-18.85c.76-1.65.46-3.66-1.93-3.03l-.88-5.16Z"/>
            <polygon class="cls-2" points="169.97 454.12 179.33 470.58 175.17 469.78 181.03 483.65 179.47 485.19 170.91 466.04 175.23 467.41 168.07 455.19 169.97 454.12"/>
            <polygon class="cls-2" points="189.77 486.1 176.71 454.9 178.89 454.67 191.78 485.24 189.77 486.1"/>
            <path class="cls-2" d="m232.01,477.4c-8.84-5.33-14.65-4.03-21.84-2.42l-1.85.41c-2.32.5-4.54.71-6.4.51-1.31-.14-2.46-.47-3.34-1.03-.97-.61-1.63-1.48-1.88-2.64-.11-.5-.14-1.05-.07-1.66l1.74.18c-.04.41-.02.78.05,1.11.14.66.53,1.17,1.1,1.53.65.41,1.54.66,2.58.77,1.67.17,3.7-.02,5.85-.49,1.01-.22,1.44-.32,1.84-.41,7.57-1.7,13.68-3.06,23.12,2.62l-.9,1.5Z"/>
            <path class="cls-2" d="m138.44,428.35s-13.85,4.17-26.04-5.82l1.11-1.36c11.47,9.4,24.4,5.51,24.43,5.49l.49,1.68h0Zm-1.17,5.19l-.49-1.68s-12.97,3.9-24.44-5.49l-1.11,1.36c12.18,9.98,26,5.83,26.04,5.82Z"/>
            <path class="cls-2" d="m162.18,428.35s13.85,4.17,26.04-5.82l-1.11-1.36c-11.47,9.4-24.4,5.51-24.43,5.49l-.49,1.68h0Zm1.17,5.19l.49-1.68s12.97,3.9,24.43-5.49l1.11,1.36c-12.18,9.98-26,5.83-26.04,5.82Z"/>
            <g>
              <path class="cls-12" d="m138.51,298.08c1.36-1.59,2.24-3.96,2.76-6.57l1.51-.11c.71,1.95,1.49,3.53,2.21,4.76-.63-2.08-1.18-4.23-1.63-6.18-.81-3.47-1.33-6.34-1.47-7.14l-.16-.94.95.02c3.42.07,6.87-.02,10.32-.26,3.49-.24,6.96-.63,10.37-1.16,1.4-.22,2.83-.47,4.28-.75,1.43-.28,2.85-.58,4.25-.9l1.12-.26-.16,1.13c-.25,1.75-.37,3.91-.08,6.14.29,2.21.99,4.5,2.38,6.57l.22.33-.13.37c-3.9,11.21-10.86,16.85-18.07,19.01-3.79,1.14-7.65,1.31-11.18.83-3.53-.48-6.73-1.62-9.19-3.1-3.22-1.95-5.21-4.52-5.13-7.08.03-.87.29-1.78.82-2.7.48-.84,1.18-1.7,2.13-2.57l1.28.82c-.15.45-.31.92-.5,1.42l-.09.23c1.28-.25,2.33-.93,3.17-1.92h0Zm28.88-13.17c-1.93,3.64-5.19,9.7-7.72,13.8,2.92-2.34,6.9-6.75,7.72-13.8Z"/>
              <path class="cls-6" d="m170.13,279.25c.6-.13,1.19-.26,1.78-.4l1.12-.26-.16,1.13c-.25,1.75-.37,3.91-.08,6.14.29,2.21.99,4.5,2.38,6.57l.22.33-.13.37c-.35,1-.72,1.95-1.11,2.87-3.29-4.36-3.9-13.23-4.01-16.76Z"/>
              <path class="cls-9" d="m144.09,281.95c2.96.02,5.94-.08,8.92-.28,3.49-.24,6.96-.63,10.37-1.16,1.4-.22,2.83-.47,4.28-.75l1.09-.22c-.13.61-.28,1.25-.43,1.91-.38,1.63-1.01,3.36-1.8,5.11-.87,1.63-1.9,3.53-2.96,5.45-4.65,7.32-11.09,13.03-13.5,9.32-3.16-4.88-5.5-16.88-5.97-19.38h0Zm30.62,12.67c-.12-1.07-.2-1.73-.2-1.73,0,0-10.68,17.13-24.11,17.44-13.43.3-16.26-9.43-16.26-9.43l1.26-1.03.03-.08c.19-.5.35-.97.5-1.42l-1.28-.82c-.95.87-1.65,1.73-2.13,2.57-.53.92-.79,1.83-.82,2.7-.08,2.56,1.91,5.13,5.13,7.08,2.45,1.48,5.66,2.62,9.19,3.1,3.52.48,7.38.31,11.18-.83,6.89-2.06,13.55-7.3,17.53-17.53Z"/>
              <path class="cls-11" d="m83.64,304.04c5.31-.6,8.87-4.14,10.8-6.73-2.72,1.5-7.09,3.43-12.01,3.8-4.26.32-8.09-.85-10.82-2.07,2.74,2.58,7.06,5.56,12.03,5.01Z"/>
              <path class="cls-11" d="m224.3,302.39c5.26-.94,8.59-4.7,10.34-7.41-2.62,1.67-6.85,3.87-11.74,4.56-4.23.59-8.13-.33-10.93-1.38,2.89,2.4,7.4,5.1,12.33,4.23Z"/>
              <path class="cls-12" d="m198.68,308.11c.55-1.37,1.16-2.71,1.84-3.98-2.59,2.25-5.87,5.81-7.35,10.32l-.56,1.71-.88-1.57c-3.41-6.08-4.96-11.96-5.57-16.94-.61-4.98-.27-9.06.1-11.53l.23-.45c1.45-1.39,4.59-4.09,8.94-6.04,4.37-1.96,9.95-3.17,16.25-1.55l1.44.37-1.11.98s-1.46,1.18-3.04,3.38c3.84-2.3,11.05-5.78,19.61-5.87h.61s.16.59.16.59c.19.73.41,1.45.66,2.13.24.67.51,1.3.82,1.87,1.85,3.53,8.01,6.73,12.1,8.54-3.12-3.06-7.77-7.94-9.66-11.55-.92-1.75-1.47-3.78-1.79-5.76-.48-2.95-.44-5.79-.36-7.38l.03-.49.45-.19c3.03-1.31,7.07-3.3,10.87-5.94,2.74-1.91,5.36-4.17,7.38-6.76l.55-.71.63.64c16.27,16.44,18.55,36.13,18.56,36.19v.02c.1.92.07,1.79-.09,2.59-.39,2.05-1.53,3.67-3.08,4.83-1.52,1.14-3.43,1.83-5.41,2.04-1.07.12-2.17.09-3.23-.07-7.6,6.95-13.22,11.12-19.5,13.41-6.37,2.32-13.35,2.68-23.7,2.02-2.46-.16-4.61-.28-6.29-.16l-.55.05c.78.22,1.31.45,1.32.45l1.71.64-1.64.8c-2.07,1.02-4.07,2.56-5.8,4.13-1.73,1.58-3.19,3.21-4.18,4.39l-.59.7-.61-.69c-.44-.5-.87-1-1.28-1.51-.38-.46-.78-.97-1.19-1.52l-.22-.29.07-.34c.51-2.52,1.6-7.12,3.37-11.52Z"/>
              <path class="cls-6" d="m247.99,254.14c.66-.68,1.28-1.39,1.86-2.13l.55-.71.63.64c16.27,16.44,18.55,36.13,18.56,36.19v.02c.03.28.05.54.06.81-.44-1-.86-2.05-1.26-3.16-6.11-17.14-17.75-29.09-20.4-31.66Z"/>
              <path class="cls-6" d="m185.93,289.29c.08-1.23.21-2.29.34-3.16l.23-.45c1.45-1.39,4.59-4.09,8.94-6.04,4.37-1.96,9.95-3.17,16.25-1.55l1.44.37-1.11.98s-.55.44-1.34,1.29c-16.38-2.11-24.75,8.56-24.75,8.56h0Zm24.24-7.99l-3.68,4.12s18.02-6.98,23.73-5.25l-.19-.51c-.25-.68-.47-1.4-.66-2.13l-.16-.59h-.61c-8.57.1-15.78,3.58-19.61,5.87.41-.58.82-1.08,1.19-1.52Z"/>
              <path class="cls-9" d="m198.68,308.11c.55-1.37,1.16-2.71,1.84-3.98-2.59,2.25-5.87,5.81-7.35,10.32l-.56,1.71-.88-1.57c-3.41-6.08-4.96-11.96-5.57-16.94l-.03-.29c1.06.66,3.45,1.75,7.47,1.49,5.69-.37,11.75-8.02,11.75-8.02,0,0,8.3,3.54,14.18,2.89,5.88-.65,10.54-4.76,10.54-4.76,0,0-2.24-6.13-1.48-11.23.04-.26.07-.52.11-.79h.5s.16.59.16.59c.19.73.41,1.45.66,2.13.24.67.51,1.3.82,1.87,1.85,3.53,8.01,6.73,12.1,8.54-3.12-3.06-7.77-7.94-9.66-11.55-.92-1.75-1.47-3.78-1.79-5.76-.48-2.95-.44-5.79-.36-7.38l.03-.49.45-.19c1.23-.53,2.64-1.18,4.12-1.94,0,0,6.47,18.1,16.4,23.5,9.93,5.39,13.48-.94,13.48-.94,0,0,2.14,2.93-.06,6.94s-8.68,1.77-8.68,1.77c0,0-9.48,11.34-23.4,14.86-13.93,3.51-25.07-.73-29.02,4.46,0,0,1.45-.72,3.87-.33h0s-7.99,3.09-11.88,8.48c-.31-.39-.64-.81-.98-1.25l-.22-.29.07-.34c.51-2.52,1.6-7.12,3.37-11.52Z"/>
              <path class="cls-5" d="m241.28,257.35c-3.51,2.66-8.01,5.32-13.17,6.73l-.41.11-.32-.29s-3.46-2.99-3.37-7.71v-.51s.47-.2.47-.2c.04-.02,12.53-5.43,16.67-10.84l.46-.6.62.44c1.14.81,2.23,1.63,3.28,2.48,1.05.85,2.06,1.71,3.01,2.58l.58.52-.52.58c-1.25,1.41-3.79,4.06-7.29,6.71Z"/>
              <path class="cls-14" d="m235.02,261.33c-2.13,1.11-4.44,2.07-6.91,2.75l-.41.11-.32-.29s-3.46-2.99-3.37-7.71v-.51s.47-.2.47-.2c.02,0,3.5-1.52,7.39-3.73.43,1.83,1.5,5.96,3.15,9.58Z"/>
              <path class="cls-12" d="m232.14,249.4c-2.23,1.48-4.81,2.95-7.62,4.14l-.47-.48-.25.38c-15.02-9.88-7.77-26.22-7.47-26.86,3.55-8.37.35-17.02-1.1-20.93l-.34-.95c-.47-1.32-.62-2.62-.4-3.58.13-.6.41-1.09.83-1.42.44-.34,1.01-.5,1.7-.4.9.13,2.06.71,3.5,1.93,2.89,2.44,5.74,7.97,7.5,11.83-1.51-10.33-9.42-16.96-9.45-16.98l-.43-.37.21-.52c.2-.51.51-.98.9-1.37.61-.63,1.45-1.08,2.44-1.24.95-.15,2.06-.04,3.26.44,1.21.49,2.54,1.35,3.92,2.71,2.72,2.68,4.84,7.71,6.14,11.47-.7-7.13-4.59-13.39-4.6-13.42l-.73-1.2h1.41s4.53.09,8.16,7.08c2.25,4.34,2.95,9.82,3.16,13.18.45-1.23.68-2.32.68-2.32l1.54-.06c1.88,7.28.84,15.11-.77,21.33-1.6,6.19-3.78,10.79-4.18,11.62l-.17.23c-1.43,1.33-4.01,3.56-7.34,5.76Z"/>
              <path class="cls-9" d="m232.14,249.4c-2.23,1.48-4.81,2.95-7.62,4.14l-.47-.48-.25.38c-1.42-.93-2.63-1.92-3.68-2.95.57-.09,1-.14,1-.14,0,0-3.55-5.72-3.74-10.51,0,0,2.55,6.28,11.95,3.98,9.39-2.3,14.98-18.2,14.98-18.2l.69.71c-.31,1.91-.71,3.75-1.15,5.46-1.6,6.19-3.78,10.79-4.18,11.62l-.17.23c-1.43,1.33-4.01,3.56-7.34,5.76Z"/>
              <path class="cls-12" d="m80.73,249.07c-1.32,3.81-3.48,6.69-4.5,7.93l-.29.35-.45-.08c-8.68-1.53-13.88-7.96-15.36-10.05l-.17.1-.36-.85c-1.45-3.43-3.27-8.31-4.79-13.52-1.15-3.96-2.13-8.12-2.63-12.02-1.44-11.14,3.52-15.66,3.54-15.67l1.32.62c-.14,2.57.03,4.76.31,6.51.22-2.06.62-3.97,1.14-5.71,1-3.33,2.44-6.02,3.87-7.9,1.52-2,3.11-3.12,4.25-3.17.22,0,.43.01.62.07,3.05.92,2.43,5.08,2.43,5.1l-.15.34c-3.61,4.75-4.77,9.78-5.03,13.57.6-1.98,1.36-3.89,2.17-5.56,1.75-3.58,3.89-6.12,5.45-6.07h.06c.21.02.41.05.62.09,1.06.24,1.86.86,2.35,1.9.44.93.62,2.19.5,3.81-.06.89-.22,1.9-.48,3.04-.56,2.52-.59,5.58.17,9.4.76,3.87,2.32,8.5,4.91,14.09,2.33,5.03,1.84,9.83.5,13.69Z"/>
              <path class="cls-9" d="m77.54,255.27c-.51.74-.97,1.32-1.31,1.73l-.29.35-.45-.08c-8.68-1.53-13.88-7.96-15.36-10.05l-.17.1-.36-.85c-1.45-3.43-3.27-8.31-4.79-13.52-.43-1.47-.83-2.96-1.19-4.46l.59-.94s4.73,15.5,11.15,18.84c6.42,3.33,14.54-4.39,14.54-4.39,0,0-1.36,7.96-1.94,11.17-.12.65-.26,1.37-.41,2.1Z"/>
              <path class="cls-11" d="m65.12,255.21c2.19,1.55,4.87,2.96,8.01,3.8l1,.27-.53.89c-.58.99-1.09,2.13-1.55,3.4-.46,1.27-.89,2.69-1.3,4.21l-.19.72-.73-.15c-4.58-.97-8.3-3.07-11.14-5.28-2.82-2.2-4.78-4.52-5.84-5.93l-.41-.54.47-.49c1.17-1.2,2.29-2.28,3.3-3.22,1.01-.94,1.91-1.74,2.66-2.39l.59-.51.51.58c1.22,1.38,2.93,3.07,5.12,4.62Z"/>
              <path class="cls-10" d="m68.65,257.32c1.37.67,2.86,1.26,4.47,1.69l1,.27-.53.89c-.58.99-1.09,2.13-1.55,3.4-.46,1.27-.89,2.69-1.3,4.21l-.19.72-.73-.15c-2.25-.48-4.29-1.22-6.12-2.12.83-2.01,2.61-6.09,4.34-8.32.17-.21.37-.41.59-.59Z"/>
              <path class="cls-11" d="m114.67,316c-.07-5.42.85-11.69,3.59-18.61-.98,1.25-1.84,2.55-2.59,3.88-1.63,2.88-2.77,5.93-3.49,9l-.36,1.55-1.01-1.23c-2.08-2.54-4.37-4.32-6.19-5.48,1.14,1.49,2.16,2.97,3.06,4.37,1.5,2.34,2.69,4.5,3.54,6.16l.09.41c-.06.88-.1,1.75-.11,2.58,0,.86.02,1.72.07,2.59l.09,1.52-1.3-.81c-4.36-2.74-9.01-3.52-9.02-3.52l-1.58-.3,2.62-2.32-1.37.22c-12.1,1.93-37.09,5.9-53.66-12.93-3.99.43-7.69.57-10.1-.65-2.66-1.35-3.73-4.15-1.97-9.57-.35-6.59,1.6-12.99,4.58-18.79,2.98-5.8,6.98-10.99,10.74-15.15l.62-.69.58.73c1.29,1.63,3.43,4,6.4,6.22,2.96,2.21,6.75,4.27,11.33,5.27l.8.17-.32,1.26c-1.94,7.75-4.25,16.97-10.44,24.75,3.18-1.53,5.46-3.35,7.13-5.38,2.17-2.64,3.37-5.69,4.24-9.02l.14-.54.55-.05c13.73-1.22,21.9,2.13,25.82,4.49l-.82-1.02,1.16-.31c15.47-4.16,24.1,3.26,26.17,5.37l2.85-2.01.18-.09c1.73-.65,3.45-.94,5.05-1.02,2.15-.11,4.08.17,5.5.48l.67.15-.14,1.68-.15,1.4-.35.2c-3.17,1.79-5.47,3.69-7,5.62-1.62,2.03-2.39,4.1-2.45,6.1-.13,4.08,2.8,8.02,7.35,10.8,3.06,1.87,6.84,3.21,10.93,3.73,4.09.52,8.48.21,12.76-1.21,8.47-2.82,16.51-10.08,20.86-24.07-.72-.92-1.26-1.84-1.67-2.77-.45-1.04-.73-2.09-.87-3.14l-.09-.65.63-.2c.86-.27,2.15-.56,3.64-.5,1.07.04,2.26.27,3.47.8l.63.28-.19.66c-1.8,6.23-1.36,12.68.06,18.57,2.37,9.77,7.46,18.01,9.63,21.22l.24.36-.18.4c-1.85,4.18-4.72,8.19-7.73,11.69-5.86,6.81-12.34,11.71-12.63,11.93l-1.3.62,1.91,12.71-.44.27c-8.1,5.07-18.47,8.14-28.75,8.44-9.51.28-18.98-1.81-26.53-6.87l-.96-.64,4.5-3.1c-2.04-2.42-2.74-4.78-2.72-6.93.03-2.13.75-4.02,1.59-5.59-1.8-2.24-2.44-3.99-2.26-5.74.17-1.67,1.07-3.24,2.4-5.22l-1.1-1.13s-6.16-8.21-6.34-21.39Z"/>
              <path class="cls-8" d="m188.52,314.4c1.36,3.16,2.84,5.92,4.11,8.1-5.03,15.54-22.4,27.02-22.4,27.02l3,15.62c-1.54.88-3.15,1.7-4.81,2.44.64-1.59,1.11-3.5,1-5.6-.3-5.93-4.19-17.35-4.19-17.35,18.1-9.88,23.28-30.23,23.28-30.23h0Z"/>
              <path class="cls-12" d="m117.03,299.07c-.49.72-.94,1.45-1.37,2.19-1.63,2.88-2.77,5.93-3.49,9l-.36,1.55-1.01-1.23c-2.08-2.54-4.37-4.32-6.19-5.48,1.14,1.49,2.16,2.97,3.06,4.37,1.5,2.34,2.69,4.5,3.54,6.16l.09.41c-.06.88-.1,1.75-.11,2.58,0,.86.02,1.72.07,2.59l.09,1.52-1.3-.81c-4.36-2.74-9.01-3.52-9.02-3.52l-1.58-.3,2.62-2.32-1.37.22c-12.1,1.93-37.09,5.9-53.66-12.93-3.99.43-7.69.57-10.1-.65-2.66-1.35-3.73-4.15-1.97-9.57-.35-6.59,1.6-12.99,4.58-18.79,2.98-5.8,6.98-10.99,10.74-15.15l.62-.69.58.73c1.29,1.63,3.43,4,6.4,6.22,2.96,2.21,6.75,4.27,11.33,5.27l.8.17-.32,1.26c-1.94,7.75-4.25,16.97-10.44,24.75,3.18-1.53,5.46-3.35,7.13-5.38,2.17-2.64,3.37-5.69,4.24-9.02l.14-.54.55-.05c13.73-1.22,21.9,2.13,25.82,4.49l-.82-1.02,1.16-.31c15.47-4.16,24.1,3.26,26.17,5.37l1.43-1.01c-.38.97-.88,1.68-1.54,2.05-2.76,1.55-5,4.94-6.52,7.85Z"/>
              <path class="cls-6" d="m34.15,296.56c.1-1.07.37-2.29.82-3.69-.35-6.59,1.6-12.99,4.58-18.79,2.98-5.8,6.98-10.99,10.74-15.15l.56-.62c.13.11.26.22.38.33l.26.33c.44.56.98,1.2,1.62,1.89,0,0-12.08,10.52-17.34,32.11-.36,1.49-.91,2.67-1.61,3.59Z"/>
              <path class="cls-6" d="m70.55,282.59l.09-.35.14-.54.55-.05c13.73-1.22,21.9,2.13,25.82,4.49l-.82-1.02,1.16-.31c15.47-4.16,24.1,3.26,26.17,5.37l1.43-1.01c-.38.97-.88,1.68-1.54,2.05-.89.5-1.73,1.19-2.51,2l-.08.02s-6.64-8.22-22.53-6.65l-.39.35,1.39,1.88s-21.7-5.56-28.16-5.94c-.37-.02-.61-.12-.74-.28Z"/>
              <path class="cls-9" d="m117.03,299.07c-.49.72-.94,1.45-1.37,2.19-1.63,2.88-2.77,5.93-3.49,9l-.36,1.55-1.01-1.23c-2.08-2.54-4.37-4.32-6.19-5.48,1.14,1.49,2.16,2.97,3.06,4.37,1.5,2.34,2.69,4.5,3.54,6.16l.09.41c-.06.88-.1,1.75-.11,2.58,0,.41,0,.82,0,1.23-2.04-1.25-5.69-3.07-9.96-3.33l3.32-1.88s-22.79,1.94-33.81-.91c-11.01-2.85-21.02-13.22-21.02-13.22,0,0-6.88.91-9.73.22-2.85-.69-2.78-2.22-2.78-2.22,0,0,9.89-1.6,15.07-7.11,2.8-2.97,7.04-13.69,10.71-23.11,1.87.9,3.94,1.65,6.21,2.15l.8.17-.32,1.26c-1.94,7.75-4.25,16.97-10.44,24.75,3.18-1.53,5.46-3.35,7.13-5.38,2.17-2.64,3.37-5.69,4.24-9.02l.14-.54.27-.02.35.76s-2.89,10.53,7.37,13.48c10.27,2.96,20.67-7.1,20.67-7.1,0,0,4.09,7.94,8.67,9.9,4.58,1.96,9.96-2.36,9.96-2.36l.22.49c-.46.75-.89,1.5-1.26,2.22Z"/>
              <path class="cls-8" d="m127.39,339.47s10.2,1.29,16.77-3.69c7.35,4.98,18.77,3.69,18.77,3.69-9.16,3.74-16.41.14-18.29-.96-.87,1.57-2.58,5.74-.03,11.22,5.89,4.16,12.54.36,12.54.36-4.91,5.34-12.54,2.44-12.54,2.44,0,0-.08.03-.22.08-.89,1.84-2.1,5.75.22,10.74,0,0-6.02-5.53-1.32-10.43-2.4.56-7.57,1.15-11.22-2.83,0,0,5.76,3.94,11.53.27-1.5-1.74-5.11-7.88.66-12.09-.13-.08-.1-.06-.1-.06,0,0-7.23,5.62-16.77,1.25h0Zm5.78-22.4s17.43,10.08,36.39-1.21c0,0-16.9,14.39-36.39,1.21Z"/>
              <path class="cls-13" d="m169.95,323.27h-6.72v3.5h3.22v3.79c0,.98-1.49.98-1.49,0v-.47h-3.47c0,5.96,8.46,5.62,8.46.32v-7.13Z"/>
              <path class="cls-2" d="m253.37,256.34l-11.64,6.87c-.93.55-2.35.15-2.99-.56l-8.81-9.78c-.71-.79-.39-2.55,1.16-3.45l11.51-6.63c1.01-.41,2.34-.13,2.99.57l8.94,9.54c1.21,1.29-.29,2.94-1.16,3.45Z"/>
              <path class="cls-2" d="m50.45,211.35c-11.2,4.34,2.02,31.37,6.69,36.8,0,0-8.52-19.66-6.69-36.8Z"/>
            </g>
            <g>
              <path class="cls-17" d="m168.11,282.32c-1.57,3.02-7.41,14.11-10.49,18.52,2.64-1.57,10.49-7.18,10.49-18.52Z"/>
              <path class="cls-2" d="m142.33,279.22c1.02,7.14.28,21.81-8.19,21.67,4.36-10.33,2.78-20.87,2.78-20.9l5.42-.77Z"/>
              <path class="cls-2" d="m178.5,275.8c-.49,6.31-2.02,11.01,2.08,15.96-12.18,40.17-54.09,26.77-53.57,10.89.14-4.24,3.14-8.68,10.22-12.58l2.63,4.8c-5.15,2.84-7.32,5.59-7.4,7.96-.3,9.26,31.73,19.71,42.03-9.93-5.02-7.41-1.47-17.5-1.47-17.54l5.46.45Z"/>
              <path class="cls-2" d="m199.69,327.91c-4.61,11.27-17.39,23.63-21.2,25.89l1.68,11.21-1.63,2.05c-18.11,12.88-50.98,15.25-66.97-2.38l4.99-3.85c-.76-2.15-1.23-5.59.23-10.47-1.21-2.08-2.92-6.36-.52-11.31-7.02-9.04-10.18-31.71,4.69-45.8-12.74,25.73.55,43.56.59,43.59l1.55,1.6c-2.91,4.28-4.02,6.43-.2,10.97-1.78,3.12-3.34,7.78,1.37,12.75l-4.28,2.95c15.44,10.33,39.08,8.03,54.43-1.59l-1.92-12.78,1.83-.87s14.54-10.95,19.98-23.23c-3.58-5.29-15-24.08-9.57-41.19l2.81-1.75s-5.77,20.61,11.49,39.63l1.83-.09s-.32,2.75-1.17,4.66Z"/>
              <path class="cls-2" d="m168.32,281.44s-8.18,15.86-11.46,20.06c0,0,11.95-5.66,11.46-20.06h0Zm-28.41,1.19l2.73-.13s1.85,11.04,4.71,18.03c0,0-5.8-4.96-7.44-17.89Z"/>
              <path class="cls-2" d="m139.38,288.97s-6.21-2.48-12.41-.16c0,0,2.55-5.38,10.78-6.3l1.63,6.46Z"/>
              <path class="cls-2" d="m176.91,286.31s4.7-2.44,9.27.81c0,0,10.66-12.04,25.32-8.28,0,0-2.88,2.32-5.01,6.58,0,0,10.45-8.23,23.76-7.66l-1.27-7.29s-6.62-.5-14.9,5.59c0,0-15.55-7.36-28.58,4.25,0,0-4.52-1.75-9.39.01l.81,5.99Z"/>
              <path class="cls-2" d="m197.09,324.58s5.41-7.46,11.68-10.54c0,0-2.44-1.07-4.33-.68,1.49-1.7,5.19-1.51,10.17-1.19,20.48,1.31,27.57-1.41,42.91-15.49,5.47,1.04,11.98-2.05,11.28-8.46,0,0-3.27-28.18-29.93-45.04,0,0,8.84-17.52,4.96-32.54,0,0-.75,3.47-2.16,5.23,0,0,.25-9.3-3.16-15.87-3.4-6.57-7.46-6.65-7.46-6.65,0,0,6,9.65,4.62,18.8,0,0-2.84-11.43-7.38-15.89-4.54-4.46-8.27-3.24-9.24-.81,0,0,10.51,8.82,9.95,22,0,0-4.51-11.84-9.02-15.65-4.51-3.81-5.57-.78-4.37,2.61,1.2,3.38,5.43,13.02,1.43,22.44,0,0-7.55,16.2,7.18,25.9l-1.7,3.86s-18.87-7.01-10.65-26.81c0,0,3.76-9.3,1.61-16.4-2.15-7.09-2.98-8.04-3.38-11.46-.4-3.43,1.99-6.54,4.94-6.46.31-7.28,9.22-9.03,13.14-4.85,7.77-4.79,15.94,5.93,15.07,14.47,11.46,4.35,6.85,28.32-.09,36.23,0,0,27.69,14.11,28.92,44.99,2.72,10.87-3,16.27-13.41,14.05-13.34,15.24-25.29,21.11-45.42,15.38,0,0-8.85,3.88-13.26,11.34l-2.91-2.53Z"/>
              <path class="cls-2" d="m240.18,241.86s-8.13,8.49-18.69,11.98c0,0-1.16,8.4,5.57,13.47,0,0,17.46-5.57,24.53-16.38l-2.74-1.83s-8.54,10.82-20.94,14.22c0,0-3.2-2.76-3.11-7.11,0,0,14.63-6.34,17.77-12.3l-2.37-2.05Z"/>
              <path class="cls-2" d="m227.01,265.41s.14,10.79,3.13,16.49c2.99,5.7,16.36,10.47,16.36,10.47,0,0-9.63-8.69-12.52-14.21-2.9-5.52-1.96-14.02-1.96-14.02l-5,1.26Z"/>
              <path class="cls-2" d="m208.06,295.41s6.78,4.47,14.73,3.35c7.96-1.12,14.14-6.38,14.14-6.38,0,0-3.62,9.21-12.5,10.79-8.88,1.58-16.38-7.76-16.38-7.76Z"/>
              <path class="cls-2" d="m195.76,321.71c0-.47,2.41-14.46,7.96-20.95,0,0-9.65,5.8-11.72,14.97l3.76,5.98Z"/>
              <path class="cls-2" d="m130.98,286.17l-4.01,2.65-3.41,2.41s-8.46-10.32-25.86-5.65c0,0,1.37,1.56,1.75,3.24,0,0-8.23-8.55-29.43-6.24l.66-4.87s13.28-3.96,25.25,5.03c0,0,16.77-9.91,32.44,4.16l2.63-.74Z"/>
              <path class="cls-2" d="m113.34,330.97s-5.2-7.39-16.2-11.25c-16.41,3.45-40.15,1.84-51.27-12.35-7.45,2.24-16.17.03-14.2-13.14-1.69-3.58-2.41-26.19,25.29-46.2,0,0-7.44-12.45-8.1-26.34-.66-13.89,4.36-20.5,7.93-20.76,0,0,4.22-6.8,8.62-8.3,4.4-1.5,7.4,2.7,7,6,0,0,4.3-.2,5.8,3.4,1.5,3.6.7,8.1-.1,10.2-.8,2.1-.8,9.1,2.1,15.4,2.9,6.3,10.46,20.49-1.7,31.33-9.6,16.49-1.85,32.35-22.05,39.72,13.62-14.24,11.31-35.3,18.6-41.53,0,0,9.7-10.12,4.46-21.43-5.24-11.31-6.3-18.74-5.13-23.98,1.17-5.24.19-7.7-2.28-7.88-2.47-.18-7.53,9.51-8.07,17.22,0,0-2.48-10.79,4.85-20.43,0,0,.53-3.48-1.88-4.2-2.41-.72-9.65,7.98-9.01,21.13,0,0-2.15-4.39-1.74-11.73,0,0-4.68,4.26-3.29,15,1.38,10.74,6.42,23.6,8.73,28.38,0,0-27.04,20.01-25.72,42.91-1.21,10.64,3.35,11.02,11.38,10.13,18.4,21.31,47.82,13.48,57.21,12.39l-3.38,2.99s6.96,1.16,11.96,5.62l.2,7.71Z"/>
              <path class="cls-2" d="m60.35,246.15s5.56,9.12,16.22,10.49l-.47,3.75c-12.48-1.61-18.94-12.21-18.96-12.24l3.21-2Z"/>
              <path class="cls-2" d="m52.58,255.37s6.64,10.89,19.38,12.53l-.47,3.75c-14.55-1.87-22.1-14.25-22.12-14.28l3.21-2Z"/>
              <path class="cls-2" d="m112.07,319.3s-3.6-8.77-10.52-16.71c0,0,6.74,2.58,11.35,9.51l-.83,7.2Z"/>
              <path class="cls-2" d="m67.88,296.03s6.47,4.9,14.49,4.29c8.01-.61,14.52-5.46,14.52-5.46,0,0-4.2,8.96-13.16,9.96-8.96,1.01-15.85-8.8-15.85-8.8Z"/>
            </g>
          </g>
          <path class="cls-6" d="m221.48,194.49s5.55-.32,14.21,17.68c-2.78-12.22-9.91-20.2-14.21-17.68Z"/>
          <path class="cls-6" d="m232.41,194.46s7.16,4.57,9.04,21.79c.92-10.17-4.12-20.6-9.04-21.79Z"/>
        </g>
        <path class="cls-5" d="m245,245.06l6.78,7.63c.53.59.28,1.35-.56,1.69l-8.78,4.79c-.83.34-1.94.13-2.47-.47l-6.78-7.62c-.53-.59-.28-1.35.56-1.69l8.78-4.8c.83-.33,1.94-.13,2.47.47Z"/>
      </g>
      <path class="cls-13" d="m24.93,153.21c-.57.87-1.74,1.12-2.61.56-.87-.57-1.12-1.74-.55-2.61.62-.96.84-2.04.7-3.01-.13-.87-.56-1.64-1.27-2.1-.7-.46-1.58-.53-2.43-.29-.94.27-1.83.91-2.45,1.87-1.5,2.32-2.04,4.94-1.7,7.31.33,2.27,1.48,4.29,3.38,5.52,1.9,1.23,4.21,1.45,6.42.82,2.3-.65,4.47-2.22,5.97-4.54,2.38-3.68,3.24-7.85,2.69-11.61-.53-3.66-2.41-6.93-5.5-8.93-3.09-2-6.84-2.37-10.4-1.35-3.65,1.04-7.11,3.52-9.49,7.21-3.26,5.04-4.43,10.75-3.68,15.91.73,5.06,3.33,9.58,7.61,12.35,4.28,2.77,9.46,3.29,14.38,1.89,5.01-1.43,9.74-4.83,13.01-9.87.57-.87,1.74-1.12,2.61-.55.87.57,1.12,1.74.55,2.61-3.78,5.84-9.29,9.79-15.14,11.46-5.93,1.69-12.23,1.04-17.48-2.36-5.24-3.39-8.41-8.87-9.3-14.98-.87-6.01.48-12.66,4.26-18.5,2.9-4.48,7.13-7.51,11.62-8.79,4.58-1.3,9.44-.8,13.49,1.83,4.05,2.62,6.5,6.85,7.19,11.57.67,4.62-.37,9.72-3.27,14.2-2.02,3.12-4.97,5.23-8.1,6.12-3.22.92-6.65.56-9.51-1.3-2.86-1.85-4.59-4.83-5.07-8.15-.47-3.22.26-6.78,2.28-9.9,1.14-1.76,2.81-2.95,4.58-3.46,1.86-.53,3.85-.32,5.53.77,1.67,1.08,2.68,2.81,2.96,4.73.27,1.82-.14,3.83-1.28,5.6h0ZM165.06,0l4.48,9.6,10.51-1.33-7.74,7.22,4.51,9.58-9.26-5.13-7.71,7.25,2.02-10.4-9.28-5.1,10.51-1.29,1.98-10.4h0Zm101.14,96.01c-.06-.43-.03-.85.07-1.24.11-.42.32-.85.63-1.29.31-.44.68-.82,1.12-1.14.44-.31.92-.55,1.45-.72.83-.26,1.65-.28,2.43-.07,1.16.31,1.86.98,2.1,2,.06.4.04.81-.07,1.22-.19.71-.57,1.36-1.15,1.92-.57.57-1.26.98-2.06,1.24-.8.25-1.61.27-2.42.06-1.18-.32-1.88-.98-2.1-1.98h0Zm14.97-9.81c-.83.75-1.65,1.62-2.48,2.58-.83.97-1.44,1.71-1.84,2.23-.18,0-.31,0-.39-.02-.22-.06-.37-.19-.44-.39-.08-.2-.14-.47-.19-.81-.05-.34-.11-.62-.19-.84-.08-.22-.21-.37-.39-.46-1.23-.66-1.78-1.23-1.66-1.68,0-.03.07-.14.19-.32.35-.44.68-.81.99-1.1.31-.3.66-.6,1.04-.91.38-.31.82-.67,1.31-1.05,1.01-.79,2.12-1.4,3.33-1.83,1.21-.43,2.52-.77,3.91-1.02,1.39-.25,2.62-.47,3.69-.65,1.06-.18,1.85-.4,2.35-.64,1.1-.54,1.79-1.32,2.06-2.34.18-.67.2-1.29.06-1.88-.14-.59-.28-1.01-.41-1.26-.68-1.04-1.65-1.73-2.93-2.07-1.3-.35-2.79-.27-4.5.23-1.7.5-3.48,1.44-5.32,2.8-.55-.38-.76-.83-.62-1.36.05-.2.17-.47.34-.8.18-.33.29-.57.33-.72.04-.16.04-.3-.03-.41-.07-.11-.15-.23-.26-.35-.11-.13-.22-.28-.32-.44-.1-.17-.12-.34-.08-.5.04-.15.12-.31.26-.49,1.65-.89,2.96-1.53,3.94-1.91.98-.38,1.87-.61,2.69-.68.81-.07,1.87-.03,3.17.13.97.14,1.67.27,2.09.38,1.84.49,3.32,1.28,4.43,2.34,1.11,1.07,1.85,2.29,2.21,3.67.37,1.38.37,2.74.01,4.06-.62,2.33-2.03,4.12-4.2,5.38-.55.34-1.36.57-2.42.71-1.06.15-2.1.28-3.11.38-1.02.11-2.1.32-3.25.62-1.14.3-2.28.79-3.39,1.44h0Zm-246.08,11.89c-.43.06-.85.05-1.24-.05-.42-.1-.85-.31-1.3-.6-.44-.3-.83-.67-1.16-1.1-.32-.44-.57-.91-.74-1.44-.27-.83-.31-1.64-.11-2.43.29-1.17.95-1.88,1.97-2.14.4-.07.81-.06,1.22.05.72.18,1.37.55,1.94,1.11.58.56,1,1.24,1.27,2.04.27.8.3,1.61.1,2.42-.29,1.18-.94,1.89-1.94,2.14h0Zm-10.08-14.8c.77.81,1.64,1.62,2.63,2.43.98.81,1.74,1.41,2.26,1.8.01.18.01.31,0,.39-.05.22-.18.37-.38.44-.2.08-.47.15-.8.2-.34.06-.61.12-.83.21-.21.09-.37.22-.45.4-.64,1.24-1.2,1.8-1.65,1.69-.03,0-.14-.07-.32-.18-.45-.35-.82-.67-1.12-.97-.3-.3-.61-.65-.93-1.02-.32-.37-.68-.8-1.08-1.29-.81-1-1.44-2.1-1.89-3.29-.45-1.21-.82-2.5-1.09-3.89-.28-1.38-.51-2.61-.72-3.68-.2-1.06-.44-1.84-.68-2.34-.56-1.09-1.35-1.76-2.38-2.02-.67-.17-1.29-.17-1.88-.02-.58.15-1.01.3-1.25.44-1.02.7-1.7,1.68-2.02,2.97-.32,1.3-.22,2.8.31,4.49.53,1.69,1.5,3.45,2.9,5.27-.37.56-.82.77-1.35.64-.2-.05-.48-.16-.81-.33-.33-.17-.57-.28-.73-.31-.16-.04-.3-.03-.41.04-.11.07-.22.16-.35.27-.13.12-.27.23-.44.33-.17.1-.33.13-.5.09-.15-.04-.31-.11-.5-.25-.92-1.63-1.58-2.93-1.98-3.91-.4-.97-.65-1.86-.73-2.68-.09-.81-.07-1.87.07-3.17.12-.98.24-1.68.34-2.09.46-1.85,1.22-3.34,2.26-4.47,1.05-1.13,2.26-1.89,3.63-2.27,1.38-.39,2.73-.42,4.06-.09,2.34.58,4.16,1.95,5.45,4.11.34.55.6,1.35.75,2.41.16,1.06.31,2.1.44,3.1.13,1.02.36,2.09.68,3.24.32,1.14.83,2.26,1.5,3.37h0Zm268.92,60.26l7.56,9.3,11.16-4.36-6.51,10.06,7.6,9.27-11.58-3.08-6.47,10.09-.65-11.97-11.59-3.03,11.18-4.32-.7-11.96h0ZM66.52,31.78l1,11.94,11.68,2.7-11.05,4.64,1.04,11.94-7.83-9.08-11.03,4.68,6.21-10.25-7.86-9.05,11.67,2.74,6.17-10.27h0Zm162.47,8.92c.93.47,1.31,1.6.84,2.53-.44.88-1.47,1.26-2.37.92-1.95-.71-3.48-2.06-4.36-3.66-.91-1.63-1.17-3.54-.58-5.35.03-.14.08-.28.15-.41.71-1.77,2.12-3.07,3.86-3.75,1.66-.65,3.63-.73,5.55-.09.13.03.26.08.38.14,3.41,1.28,6.06,3.64,7.61,6.43,1.59,2.87,2.03,6.21.96,9.36-.03.13-.08.26-.14.38-1.19,3.11-3.66,5.4-6.71,6.6-2.98,1.16-6.53,1.28-9.97.09-.13-.03-.25-.08-.37-.13-4.93-1.83-8.78-5.22-11.01-9.26-2.31-4.17-2.92-9.01-1.28-13.55l.02-.05c1.64-4.52,5.2-7.85,9.61-9.58,4.35-1.7,9.54-1.85,14.57-.04l.04.02c6.53,2.36,11.61,6.83,14.55,12.13,2.99,5.4,3.79,11.68,1.67,17.55-2.12,5.88-6.74,10.21-12.48,12.46-5.66,2.22-12.44,2.4-18.98.05-.98-.35-1.49-1.43-1.14-2.41s1.43-1.49,2.41-1.14c5.65,2.04,11.48,1.88,16.33-.02,4.77-1.86,8.58-5.42,10.31-10.21,1.73-4.8,1.06-9.97-1.42-14.44-2.52-4.55-6.91-8.39-12.55-10.42l-.05-.02c-4.12-1.47-8.36-1.36-11.89.02-3.45,1.35-6.2,3.91-7.45,7.36l-.02.04c-1.24,3.46-.75,7.18,1.04,10.42,1.84,3.32,5.04,6.11,9.15,7.6h.01c2.6.94,5.28.87,7.5,0,2.13-.83,3.84-2.41,4.6-4.53h0c.77-2.14.46-4.45-.65-6.46-1.15-2.08-3.17-3.84-5.76-4.78h-.01c-1.08-.39-2.18-.37-3.09-.01-.82.32-1.47.91-1.76,1.7h0c-.29.81-.17,1.69.26,2.46.47.85,1.3,1.57,2.36,1.96l.22.1Z"/>
    </g>
  </g>
</svg>