<svg width="300" height="120" viewBox="0 0 300 120" fill="none" xmlns="http://www.w3.org/2000/svg">
<path d="M264.297 86.2903L264.521 86.8016L264.297 87.2721V86.2903ZM299.162 55.3552C298.219 53.9185 296.616 53.0538 294.897 53.0538H281.764C279.589 53.0538 277.654 54.4319 276.942 56.4874L276.293 58.3629L275.559 56.3826C274.817 54.382 272.909 53.0538 270.775 53.0538H257.534C256.355 53.0538 255.237 53.4684 254.343 54.187C252.181 53.2922 249.733 52.8395 247.01 52.8395C244.014 52.8395 241.223 53.5946 238.714 55.0845C238.214 55.3815 237.732 55.6973 237.268 56.0314C236.727 55.6275 236.157 55.2564 235.559 54.9196C233.111 53.5388 230.318 52.8395 227.257 52.8395C225.095 52.8395 223.092 53.1859 221.279 53.8712C220.481 53.3546 219.529 53.0538 218.507 53.0538H206.591C204.614 53.0538 202.902 54.1811 202.055 55.8262C199.259 53.8438 195.806 52.8395 191.747 52.8395C188.75 52.8395 185.958 53.5946 183.451 55.084C182.951 55.381 182.468 55.6968 182.004 56.0314C181.464 55.6275 180.894 55.2564 180.296 54.9196C177.848 53.5388 175.055 52.8395 171.993 52.8395C169.832 52.8395 167.829 53.1859 166.016 53.8712C165.217 53.3546 164.266 53.0538 163.243 53.0538H153.125C151.603 48.7641 147.515 45.678 142.71 45.678C140.825 45.678 139.05 46.1538 137.496 46.9885C136.592 46.1764 135.4 45.6785 134.09 45.6785H111.304C110.932 45.6785 110.57 45.7204 110.221 45.7961C109.925 44.158 109.446 42.796 108.981 41.7572C107.096 37.5459 103.525 34.2541 99.2442 32.6214C99.1352 30.7325 99.6884 28.7957 100.971 26.3364C101.757 24.8309 101.741 23.0333 100.931 21.5418C100.121 20.0498 98.6212 19.0589 96.931 18.8977C92.4527 18.4713 89.2227 19.3935 86.9046 20.813C81.9548 16.1183 75.2359 12.87 67.7204 11.6487C64.506 11.1261 61.3748 11.0096 58.4756 11.27C58.3542 10.4515 58.0335 9.65771 57.5169 8.96595C57.0636 8.35796 56.4926 7.87352 55.8524 7.52764C56.3337 6.50771 56.4744 5.33364 56.2053 4.18642C55.7246 2.13583 54.0333 0.591159 51.9478 0.298447C37.9008 -1.67481 26.3857 6.43358 21.6781 15.8697C16.8664 19.3446 13.7459 24.8616 13.0332 31.255C12.9054 32.4017 12.856 33.5532 12.8839 34.7047C11.1432 35.8418 9.65922 37.5046 8.52629 39.6261C5.57274 45.157 5.30715 53.4217 7.68521 59.5214C7.18588 61.5424 7.24969 63.4437 7.31575 65.4234C7.34137 66.1936 7.36822 66.9896 7.36822 67.8779C7.36822 68.5525 7.39991 69.1701 7.45862 69.7378C7.01659 69.9956 6.58547 70.2803 6.16773 70.5918C4.04962 72.1698 2.36387 74.3734 1.29286 76.9643C-0.19444 80.5623 -0.405889 84.715 0.696804 88.6589C1.98624 93.2676 4.919 97.4483 8.7443 100.13C11.3677 101.968 14.2771 103.056 17.3063 103.35C21.7131 110.883 29.851 116.522 39.7216 118.727C43.3061 119.527 47.1183 119.929 51.0203 119.929C54.0081 119.929 57.0485 119.693 60.0798 119.221C71.7701 117.397 81.7062 112.412 87.5679 105.588C88.9832 105.856 90.4569 105.899 91.9769 105.72C94.1408 105.462 96.3085 104.751 98.4208 103.607C102.78 101.244 106.419 97.3044 108.403 92.7982C108.688 92.1505 108.938 91.506 109.169 90.8631C112.34 92.8353 116.044 93.8412 119.734 93.8412C123.981 93.8412 128.347 92.4947 131.866 89.899C132.497 92.0006 134.444 93.5319 136.751 93.5319H148.667C149.128 93.5319 149.572 93.4653 149.997 93.3503C150.422 93.4653 150.867 93.5319 151.328 93.5319H163.243C165.012 93.5319 166.569 92.6322 167.484 91.2664C168.4 92.6322 169.957 93.5319 171.725 93.5319H183.587C185.355 93.5319 186.912 92.6322 187.828 91.2664C188.743 92.6322 190.301 93.5319 192.068 93.5319H203.931C204.392 93.5319 204.837 93.4653 205.261 93.3509C205.686 93.4653 206.13 93.5319 206.591 93.5319H218.507C220.275 93.5319 221.833 92.6328 222.748 91.2675C223.664 92.6328 225.221 93.5319 226.989 93.5319H238.851C240.618 93.5319 242.176 92.6328 243.092 91.2675C244.007 92.6328 245.565 93.5319 247.332 93.5319H259.195C260.065 93.5319 260.885 93.3127 261.602 92.9282L257.913 100.67C257.16 102.251 257.27 104.108 258.205 105.588C259.139 107.069 260.768 107.967 262.519 107.967H275.545C277.579 107.967 279.42 106.759 280.227 104.892L299.58 60.1825C300.263 58.6062 300.105 56.7914 299.162 55.3552Z" fill="white"/>
<path fill-rule="evenodd" clip-rule="evenodd" d="M21.5762 54.2053C23.4764 53.064 25.6833 52.0505 28.1244 51.1654C29.5154 50.6616 30.9828 50.1997 32.5135 49.7813C34.0721 49.3549 35.6946 48.9736 37.3677 48.6368L37.3897 48.6325L37.4122 48.6384C39.3661 49.1723 41.4506 49.3033 43.462 49.0326C45.4282 48.7673 47.3247 48.118 48.9591 47.0841L48.9795 47.0707L49.0036 47.069C50.4097 46.9627 51.8325 46.8827 53.2654 46.829C54.7053 46.7753 56.1453 46.7484 57.5782 46.7484C63.0146 46.7484 68.4462 47.1303 73.541 47.894C78.4489 48.6298 83.0447 49.7206 87.0315 51.1654C88.9946 51.877 90.8062 52.6719 92.4282 53.549C93.9965 54.3971 95.388 55.323 96.5686 56.3252C100.705 59.8367 100.596 62.5549 100.423 66.8032C100.386 67.7184 100.346 68.7067 100.346 69.8039C100.344 70.0719 100.339 70.3383 100.333 70.6058L100.161 70.3287C98.8131 68.1561 96.7893 66.2183 94.2462 64.5195C91.543 62.7133 88.2528 61.1767 84.5631 59.914C80.5602 58.5444 76.0717 57.4885 71.3486 56.7554C66.4826 55.9992 61.3663 55.5851 56.2758 55.5206C51.1627 55.4562 46.0701 55.7451 41.2766 56.3956C36.6619 57.0218 32.3244 57.9832 28.5132 59.2872C25.3417 60.3727 22.522 61.7009 20.1889 63.2772C17.9847 64.7666 16.2156 66.4772 14.9975 68.4139L14.8288 68.682L14.8181 68.3651L14.8122 68.1309L14.81 67.8774C14.81 67.0455 14.7794 66.3005 14.7515 65.6077C14.6296 62.6247 14.5468 60.5886 17.0212 57.8382C18.2157 56.511 19.7555 55.2994 21.5762 54.2053Z" fill="white"/>
<path fill-rule="evenodd" clip-rule="evenodd" d="M16.1784 64.6549C17.1549 63.6913 18.2366 62.832 19.3704 62.0656C22.0187 60.2765 25.0232 58.9365 28.04 57.9042C32.2422 56.4664 36.6833 55.5432 41.0799 54.947C46.1081 54.2644 51.2217 53.9948 56.294 54.0592C61.3995 54.1231 66.5276 54.527 71.573 55.3106C76.1179 56.0164 80.6815 57.0406 85.0362 58.531C88.5127 59.7207 91.9958 61.2578 95.0582 63.3036C96.4514 64.2343 97.7882 65.2945 98.9725 66.4981C99.1358 62.3669 99.0713 60.3673 95.6222 57.4396C94.4347 56.431 93.1011 55.5754 91.7326 54.8353C90.0676 53.9346 88.3119 53.1849 86.5336 52.5403C82.2965 51.0048 77.7758 50.0074 73.3245 49.3398C68.9639 48.6862 64.5324 48.3344 60.1154 48.2377C57.6286 54.0834 25.1328 50.4054 16.1881 63.0834C16.1575 63.5678 16.1613 64.0845 16.1784 64.6549Z" fill="#DCCBE5"/>
<path fill-rule="evenodd" clip-rule="evenodd" d="M52.9055 64.9019C53.0339 67.85 54.1886 69.328 54.4937 69.6696C54.9137 69.1621 55.3691 68.712 55.852 68.3173C58.017 66.5486 60.7464 65.8891 63.4421 66.083C66.1345 66.2769 68.7942 67.3226 70.8238 68.9644C71.3335 69.3764 71.804 69.8275 72.2256 70.312C72.1515 69.7131 72.0392 69.1497 71.8926 68.6202C71.1294 65.8606 69.4204 64.0141 67.1818 62.9297C64.9352 61.8416 62.1536 61.5183 59.2533 61.8083C57.9697 61.9372 56.663 62.1853 55.3691 62.5409L54.2498 65.2381L52.9055 64.9019Z" fill="#E8BD98"/>
<path fill-rule="evenodd" clip-rule="evenodd" d="M89.5656 84.4186C88.7788 86.4628 88.9082 88.9011 90.5743 90.9227C90.432 89.9157 90.4808 88.8619 90.6914 87.8361C90.9336 86.6572 91.389 85.5143 92.0126 84.5217L92.0427 84.4745L92.0985 84.4766C92.7323 84.5002 93.3252 84.7059 93.8156 85.0411C94.2281 85.3225 94.5691 85.6963 94.8017 86.1308C95.0348 86.5653 95.1594 87.0611 95.1401 87.5858C95.1223 88.0439 94.995 88.5246 94.7335 89.0053C95.7142 88.3689 96.3082 87.6444 96.6031 86.9182C96.8593 86.2871 96.8899 85.6528 96.7524 85.0739C96.6149 84.4933 96.3082 83.9664 95.892 83.5512C95.3678 83.0281 94.6685 82.6806 93.9107 82.6226L93.6582 82.6033L93.8586 82.4486C94.5938 81.8809 95.4231 81.485 96.3211 81.3298C97.0123 81.2101 97.7438 81.2331 98.5027 81.4303C96.7352 80.0301 94.8667 79.8872 93.2667 80.5199C92.4417 80.8459 91.6877 81.3771 91.0544 82.0484C90.4196 82.7209 89.9067 83.533 89.5656 84.4186Z" fill="#E8BD98"/>
<path fill-rule="evenodd" clip-rule="evenodd" d="M55.8525 72.2063C53.8755 74.3042 52.6934 77.1975 52.6934 80.2514C52.6934 83.2214 53.8502 85.5664 55.707 87.2034C57.7318 88.9881 60.5896 89.9345 63.6902 89.9345C66.7709 89.9345 69.4 89.0053 71.2363 87.2856C73.0006 85.633 74.035 83.2467 74.035 80.2514V80.2299L75.7134 76.7603L73.3223 76.2001L73.3041 76.1507C72.5231 74.0276 71.1514 72.173 69.3645 70.8738C67.6845 69.652 65.6355 68.9215 63.3642 68.9215C60.3587 68.9215 57.742 70.2014 55.8525 72.2063Z" fill="#E8BD98"/>
<path fill-rule="evenodd" clip-rule="evenodd" d="M43.8828 92.6199C44.6052 93.367 45.8582 93.7988 47.5527 93.4798C46.7863 93.3482 46.1665 93.0286 45.718 92.5973C45.3184 92.2133 45.0536 91.7401 44.9398 91.231C44.8259 90.7218 44.863 90.1767 45.0655 89.6482C45.3131 89.0048 45.8061 88.3855 46.5725 87.8871C44.8308 88.1492 43.7974 88.9656 43.3828 89.9028C43.1771 90.3673 43.1234 90.862 43.2098 91.332C43.2968 91.8024 43.5251 92.2498 43.8828 92.6199Z" fill="#E8BD98"/>
<path fill-rule="evenodd" clip-rule="evenodd" d="M21.0818 71.1079C21.8579 66.9149 23.5244 64.2682 23.8483 63.7842L23.7871 63.7305L23.9128 63.665C24.7286 63.2396 25.582 62.8384 26.4639 62.4641C27.3576 62.0844 28.283 61.7315 29.2315 61.4071C32.9299 60.1412 37.1471 59.2083 41.6398 58.6008C46.3018 57.9708 51.2623 57.691 56.2491 57.7538C60.0984 57.8027 63.959 58.0551 67.7057 58.5079C71.3896 58.9531 74.9671 59.5917 78.3202 60.4205L78.4169 60.4446L78.3911 60.5402C78.0844 61.6858 77.6064 63.6962 77.3663 65.8773C77.1262 68.0525 77.1225 70.3974 77.7616 72.216C78.2106 73.4948 78.7735 74.2214 79.3858 74.5646C79.9889 74.903 80.6468 74.8686 81.294 74.628L81.4637 74.5646L81.4229 74.7408C81.0958 76.1448 80.9111 77.7635 81.0948 79.4591C81.2785 81.1531 81.829 82.926 82.9719 84.6404L84.1519 86.4106L84.9425 84.4341C85.9334 81.9576 87.5908 79.1685 89.7757 77.1888C91.4992 75.6275 93.5509 74.5689 95.8641 74.5603C96.5065 74.5582 97.1354 74.6393 97.7369 74.7993C98.3433 74.9599 98.9228 75.2006 99.4615 75.5158C100.005 75.8327 100.508 76.2275 100.958 76.6942C101.397 77.1491 101.784 77.6733 102.108 78.2598C102.88 79.6589 103.296 81.4195 103.203 83.4899C103.119 85.3547 102.621 87.4714 101.595 89.8007C100.932 91.3078 99.9744 92.7268 98.8337 93.961C97.6698 95.221 96.3137 96.2898 94.8834 97.0648C94.2561 97.4042 93.6159 97.6868 92.973 97.9021C92.3467 98.1121 91.7184 98.2582 91.0986 98.3318C90.4847 98.4054 89.8772 98.407 89.2875 98.3291C88.7198 98.2539 88.1687 98.1046 87.6445 97.8737C86.9872 97.5842 86.3614 97.1626 85.7857 96.5927C85.2669 96.0798 84.7878 95.4471 84.3619 94.6834C84.0332 95.0368 83.8495 95.4568 83.7969 95.9058C83.7356 96.4251 83.849 96.9859 84.1132 97.5305L84.1352 97.575L84.111 97.6191C82.1706 101.189 78.7799 104.25 74.5364 106.652C70.055 109.188 64.6196 110.99 58.9367 111.877C55.9521 112.342 52.9031 112.553 49.8906 112.484C46.9747 112.417 44.0922 112.087 41.3359 111.472C33.5325 109.729 27.9006 105.839 24.4198 100.547C20.8702 95.1506 19.5591 88.299 20.4641 80.7825C20.2622 81.3534 20.0801 81.919 19.9179 82.4786C19.6746 83.3154 19.4737 84.1436 19.3142 84.961L19.2476 85.3015L19.1273 84.9755C18.7508 83.9583 18.1896 83.0243 17.4989 82.2546C16.7201 81.3867 15.7754 80.7261 14.7447 80.3872C13.7178 80.0494 12.6044 80.0311 11.4824 80.4463C10.9115 80.6574 10.3379 80.9807 9.7725 81.4302C10.5318 81.2331 11.2638 81.21 11.9556 81.3298C12.8536 81.485 13.6829 81.8808 14.4181 82.4485L14.6185 82.6032L14.366 82.6226C13.6082 82.6806 12.9089 83.028 12.3847 83.5506C11.9685 83.9663 11.6623 84.4932 11.5243 85.0738C11.3868 85.6533 11.4174 86.2871 11.6736 86.9182C11.9685 87.6443 12.5625 88.3688 13.5432 89.0053C13.2817 88.5241 13.1544 88.0439 13.1367 87.5858C13.1173 87.061 13.2419 86.5653 13.475 86.1308C13.7076 85.6963 14.0486 85.3225 14.4611 85.041C14.9515 84.7059 15.5444 84.5002 16.1782 84.4766L16.2061 84.4755L16.2303 84.4895C16.9972 84.9304 17.6186 85.9396 18.0639 87.1448C18.5381 88.4274 18.8169 89.9371 18.8615 91.217L18.8819 91.1805L18.9066 91.4968C18.9646 92.2477 19.0591 92.9829 19.1885 93.7021C19.3207 94.4336 19.4888 95.1501 19.6913 95.8505L19.7251 95.9675L19.6032 95.9745C18.4082 96.0433 17.262 95.8999 16.1835 95.5841C15.0401 95.2489 13.9729 94.7188 13.0061 94.0415C11.7741 93.1779 10.701 92.0769 9.83233 90.8319C8.94528 89.5601 8.27075 88.1374 7.85854 86.6625C7.52034 85.453 7.3917 84.2612 7.44187 83.1306C7.49493 81.9351 7.74817 80.8072 8.16463 79.8002C8.44219 79.1283 8.79211 78.5106 9.20271 77.9655C9.61288 77.4198 10.0843 76.9445 10.6048 76.5567C11.1199 76.1727 11.6854 75.8735 12.2886 75.6753C12.8703 75.4847 13.489 75.3874 14.1324 75.3993C16.8254 75.4492 18.7041 77.1389 20.5597 78.8076L20.8879 79.1025L20.8906 79.096L20.8895 79.1041L20.9464 79.1551C20.5017 76.0835 20.6634 73.3691 21.0818 71.1079Z" fill="#F6B18B"/>
<path fill-rule="evenodd" clip-rule="evenodd" d="M20.1795 81.6236L20.9464 79.1551L20.8895 79.1041L20.8906 79.096L20.8879 79.1025L20.5597 78.8076C18.7041 77.1389 16.8254 75.4492 14.1324 75.3993C13.489 75.3875 12.8703 75.4847 12.2886 75.6753C11.6854 75.8735 11.1199 76.1727 10.6048 76.5567C10.0843 76.9445 9.61288 77.4198 9.20271 77.9655C8.79211 78.5106 8.44219 79.1283 8.16463 79.8002C7.74817 80.8072 7.49493 81.9351 7.44187 83.1306C7.3917 84.2612 7.52034 85.453 7.85854 86.6625C8.27075 88.1374 8.94528 89.5601 9.83233 90.8319C10.701 92.0769 11.7741 93.1779 13.0061 94.0415C13.9729 94.7188 15.0401 95.2489 16.1835 95.5841C17.262 95.8999 18.4082 96.0433 19.6032 95.9745L19.7251 95.9675L19.6913 95.8505C5.63194 92.7042 6.48413 75.9756 13.6447 76.9745C17.0875 77.4552 20.1789 81.6268 20.1789 81.6268L20.1795 81.6236ZM67.8932 109.641C65.0574 110.639 62.0341 111.393 58.9367 111.877C55.9521 112.342 52.9031 112.553 49.8906 112.484C46.9747 112.417 44.0922 112.087 41.3359 111.472C33.5325 109.729 27.9006 105.839 24.4198 100.547C21.2676 95.7554 19.8814 89.8157 20.2439 83.2826C20.2917 82.94 20.3444 82.6376 20.4008 82.3884C20.4008 82.3884 21.4153 101.759 37.5677 108.604C53.7205 115.449 69.1768 109.064 69.1768 109.064C69.1768 109.064 68.7101 109.287 67.8932 109.641ZM86.0365 82.1032C86.9979 80.3249 88.26 78.5622 89.7757 77.1888C91.4992 75.6275 93.5509 74.5689 95.8641 74.5603C96.5065 74.5582 97.1354 74.6393 97.7369 74.7993C98.3433 74.9599 98.9228 75.2006 99.4615 75.5158C100.005 75.8327 100.508 76.2275 100.958 76.6942C101.397 77.1491 101.784 77.6733 102.108 78.2598C102.88 79.6589 103.296 81.4195 103.203 83.4899C103.119 85.3547 102.621 87.4714 101.595 89.8007C101.392 90.261 101.162 90.7127 100.908 91.1536L100.78 91.1799C106.188 75.7543 94.2034 70.6686 85.9882 82.4002L86.0365 82.1032ZM21.0818 71.108C21.8579 66.9149 23.5244 64.2682 23.8483 63.7842L23.7871 63.7305L23.9128 63.665C24.5922 63.3105 25.2968 62.9738 26.023 62.6542C26.023 62.6542 20.6956 70.2481 20.9464 79.1551C20.5017 76.0835 20.6634 73.3691 21.0818 71.108Z" fill="#FDE5D9"/>
<path fill-rule="evenodd" clip-rule="evenodd" d="M44.9101 91.072L43.5442 92.3626C44.7844 94.0689 46.6857 94.6571 48.6057 94.157C50.5264 93.6565 51.3068 91.5763 48.8464 92.0361C46.3854 92.4964 44.9101 91.072 44.9101 91.072ZM10.8588 81.2627C11.2342 81.2444 11.6005 81.268 11.956 81.3298C12.854 81.485 13.6833 81.8808 14.4186 82.4485L14.6189 82.6032L14.3665 82.6226C13.6086 82.6806 12.9094 83.0281 12.3852 83.5506C11.9689 83.9663 11.6628 84.4932 11.5247 85.0738C11.3873 85.6533 11.4179 86.2871 11.6741 86.9182C11.9689 87.6443 12.5629 88.3688 13.5437 89.0053L13.5206 88.9618C13.6978 89.1825 13.8374 89.2991 13.8374 89.2991C8.79253 87.4171 8.51309 82.0425 10.8588 81.2627ZM44.6807 80.2513C44.6807 80.2513 44.6549 74.0738 40.7707 69.7497C40.7707 69.7497 42.1688 69.4441 42.7778 69.8168C42.7778 69.8168 40.5172 66.5868 37.314 65.3853C34.1109 64.1844 23.4615 65.7301 23.8815 76.1184L44.6807 80.2513ZM23.7875 63.7305L23.9132 63.665C24.729 63.2396 25.5825 62.8384 26.4644 62.4641C27.3581 62.0844 28.2835 61.7315 29.232 61.4071C32.9303 60.1412 37.1475 59.2083 41.6403 58.6008C46.3022 57.9708 51.2627 57.691 56.2496 57.7538C60.0989 57.8027 63.9594 58.0551 67.7062 58.5079C71.39 58.9531 74.9676 59.5918 78.3206 60.4205L78.4173 60.4446L78.3915 60.5402C78.0848 61.6859 77.6068 63.6962 77.3667 65.8773C77.1267 68.0525 77.1229 70.3974 77.762 72.216C78.211 73.4948 78.7739 74.2215 79.3862 74.5647C79.9893 74.903 80.6473 74.8686 81.2945 74.628L81.4642 74.5647L81.4234 74.7408C81.0963 76.1448 80.9115 77.7635 81.0952 79.4591C81.2789 81.1531 81.8294 82.926 82.9723 84.6404L84.0889 86.3156L84.1738 86.6185C84.1738 86.6185 84.0363 89.2217 84.8161 91.2326C84.8161 91.2326 86.7518 78.958 94.8548 78.1024C100.619 77.4945 101.585 82.9185 100.457 87.6755C98.5715 95.626 87.4339 100.98 84.3843 94.5222C84.3843 94.5222 84.3859 94.6071 84.4047 94.7591L84.3623 94.6834C84.0336 95.0368 83.8499 95.4568 83.7973 95.9058C83.7361 96.4251 83.8494 96.9859 84.1136 97.5305L84.1356 97.5751L84.1115 97.6191C82.171 101.189 78.7804 104.251 74.5368 106.652C73.0249 107.508 71.4045 108.28 69.7025 108.961C82.3724 101.927 76.7018 85.5293 69.0983 88.1379C63.3789 90.0999 57.7142 88.6777 57.7142 88.6777C52.4798 86.6733 48.993 78.111 54.4997 69.8168C54.4997 69.8168 54.8757 64.7102 61.8519 64.9352C68.8287 65.1603 72.3584 70.6192 72.3584 70.6192C72.3584 70.6192 72.2945 62.9324 57.6009 59.7491C42.9078 56.5658 23.7875 63.7305 23.7875 63.7305Z" fill="#D46D6F"/>
<path fill-rule="evenodd" clip-rule="evenodd" d="M41.4234 72.2063C39.5339 70.2014 36.9172 68.9215 33.9117 68.9215C31.6409 68.9215 29.5919 69.6519 27.9113 70.8744C26.125 72.173 24.7533 74.0287 23.9724 76.1518L23.9541 76.2012L21.563 76.7603L23.2414 80.2299V80.2514C23.2414 83.2467 24.2753 85.633 26.0401 87.2856C27.8759 89.0053 30.5055 89.9345 33.5862 89.9345C36.6868 89.9345 39.5446 88.9881 41.5689 87.2034C43.4262 85.5664 44.5831 83.2214 44.5831 80.2514C44.5831 77.1975 43.4009 74.3042 41.4234 72.2063Z" fill="#E8BD98"/>
<path fill-rule="evenodd" clip-rule="evenodd" d="M42.7827 69.6696C43.0883 69.328 44.243 67.85 44.3709 64.9019L43.0271 65.2381L41.9078 62.5409C40.6139 62.1853 39.3072 61.9372 38.0236 61.8088C35.1233 61.5183 32.3417 61.8416 30.0951 62.9297C27.856 64.0141 26.1475 65.8606 25.3838 68.6202C25.2372 69.1497 25.1254 69.7131 25.0508 70.312C25.4729 69.827 25.9434 69.3764 26.4526 68.9644C28.4828 67.3226 31.1424 66.2769 33.8348 66.083C36.5305 65.8891 39.2599 66.5486 41.4249 68.3173C41.9078 68.712 42.3632 69.1621 42.7827 69.6696Z" fill="#E8BD98"/>
<path fill-rule="evenodd" clip-rule="evenodd" d="M40.4642 86.4396C38.7084 88.031 36.2459 88.9006 33.5862 88.9006C30.9432 88.9006 28.7057 88.0498 27.1374 86.5223C25.5992 85.0244 24.7061 82.8793 24.7061 80.2513C24.7061 77.6685 25.6712 75.4444 27.3056 73.8659C28.9388 72.2879 31.2397 71.3566 33.9117 71.3566C36.5843 71.3566 38.8851 72.2879 40.5184 73.8654C42.1528 75.4444 43.1179 77.6685 43.1179 80.2513C43.1179 82.8573 42.0969 84.9594 40.4642 86.4396ZM70.1393 86.5223C68.5705 88.0498 66.3335 88.9006 63.6905 88.9006C61.0308 88.9006 58.5678 88.031 56.812 86.4396C55.1793 84.9594 54.1588 82.8573 54.1588 80.2513C54.1588 77.6685 55.124 75.4444 56.7583 73.8654C58.3916 72.2879 60.6925 71.3566 63.3645 71.3566C66.037 71.3566 68.3374 72.2879 69.9706 73.8659C71.605 75.4444 72.5707 77.6685 72.5707 80.2513C72.5707 82.8793 71.6775 85.0244 70.1393 86.5223Z" fill="white"/>
<path fill-rule="evenodd" clip-rule="evenodd" d="M24.5486 48.1142C25.1764 48.5401 25.8451 48.9005 26.5503 49.1857L26.7807 49.2786L26.5492 49.3667C24.207 50.2615 22.0721 51.2836 20.2014 52.4329C18.4054 53.5366 16.8537 54.7574 15.5959 56.0953C15.46 56.2403 15.3273 56.3848 15.199 56.5293C15.0711 56.6716 14.9503 56.8113 14.8354 56.9477L14.7274 57.0755L14.6694 56.9187C14.3155 55.9621 14.0544 54.8552 13.8949 53.6779C13.5496 51.1332 13.6763 48.2544 14.3504 45.8407C15.0287 43.4115 16.2629 41.449 18.1304 40.7577C18.4177 40.6514 18.7201 40.5751 19.0381 40.5322L19.1176 40.5214L19.1433 40.5971C19.544 41.7685 20.0537 42.8808 20.6644 43.9013C21.26 44.896 21.9528 45.8053 22.7354 46.598C23.2961 47.1668 23.9019 47.676 24.5486 48.1142Z" fill="#935C29"/>
<path fill-rule="evenodd" clip-rule="evenodd" d="M17.4775 68.4687C18.0769 67.777 18.7762 67.111 19.5582 66.4756L19.8272 66.257L19.7112 66.583C19.3739 67.5347 19.0769 68.6502 18.882 69.9366C18.687 71.2245 18.5941 72.6827 18.6644 74.3176L18.6752 74.5641L18.4995 74.3906C17.9506 73.8509 17.435 73.1827 17.0172 72.55C16.4823 71.7401 16.1036 70.9839 16.015 70.6246L16.0059 70.5891L16.0236 70.5558C16.406 69.8377 16.8953 69.1406 17.4775 68.4687Z" fill="#3B2015"/>
<path fill-rule="evenodd" clip-rule="evenodd" d="M83.552 75.7897C83.9838 73.2611 84.9313 70.9194 85.4791 69.7083C84.5408 70.7948 83.3667 71.5516 82.3387 71.9125C81.9053 72.0645 81.4966 72.1472 81.14 72.1553C80.7742 72.1639 80.4616 72.094 80.2312 71.9404C80.0647 71.8303 79.9417 71.6767 79.8724 71.4802C79.4455 70.2642 79.3713 68.7249 79.4734 67.1776C79.6313 64.7881 80.2087 62.376 80.5508 61.1122L80.5766 61.0172L80.6711 61.044C81.2189 61.1993 81.7576 61.3593 82.2861 61.5242C82.8119 61.688 83.3324 61.8583 83.8453 62.0339C87.6242 63.3266 90.9391 64.8998 93.5542 66.7414C96.0065 68.4687 97.8444 70.435 98.8735 72.6306L98.9675 72.832L98.7559 72.7649C98.295 72.6188 97.8203 72.5081 97.3358 72.4351C96.853 72.3621 96.361 72.3255 95.8647 72.3277C93.399 72.3363 91.2189 73.238 89.3499 74.6398C87.0775 76.344 85.2637 78.7894 83.9548 81.2739L83.8501 81.4732L83.7765 81.2605C83.1954 79.5746 83.2378 77.6309 83.552 75.7897Z" fill="#5F2E15"/>
<path fill-rule="evenodd" clip-rule="evenodd" d="M38.7497 46.5169C35.1346 45.6243 31.462 42.9636 28.4081 37.7302C28.5161 39.719 29.0253 41.4484 29.8298 42.9179C30.7676 44.6301 32.1071 45.9911 33.6818 46.9998L33.8725 47.1217L33.6523 47.1759C33.3945 47.2393 33.1485 47.3011 32.9148 47.3618C32.6877 47.4198 32.4444 47.4842 32.1855 47.554L32.1769 47.5556C30.6371 47.8242 29.2191 47.713 27.9414 47.3021C26.5659 46.8596 25.3543 46.069 24.329 45.0308C23.6018 44.2939 22.9637 43.4313 22.4229 42.4775C21.8691 41.5 21.4169 40.4258 21.0753 39.292C20.731 38.1496 20.4995 36.9482 20.3894 35.7247C20.2804 34.5179 20.2901 33.2901 20.4249 32.0768C20.6145 30.3785 21.0517 28.7061 21.7579 27.1582C22.4202 25.7075 23.3193 24.3659 24.4724 23.2133L24.6883 22.9979L24.6367 23.2987C24.2769 25.4051 24.3311 27.5202 24.8596 29.5353C25.3215 31.2953 26.1459 32.9802 27.3732 34.5168C27.2475 34.0748 27.1353 33.6349 27.0364 33.1977C25.7281 27.4031 26.7652 22.0156 29.4995 17.6582C32.2333 13.3029 36.6632 9.97785 42.1425 8.30643C42.7629 8.11684 43.3972 7.94873 44.0433 7.80318L44.3392 7.73604L44.1373 7.96268C41.7359 10.6535 40.3685 13.7912 39.6805 16.9573C38.8169 20.9323 39.0231 24.9529 39.601 28.1931C40.4383 25.8117 41.3337 23.6671 42.6431 21.7406C44.0186 19.7179 45.849 17.938 48.5462 16.3815L48.7729 16.2505L48.6859 16.4975C48.2148 17.8424 47.9227 19.1373 47.7733 20.3753C47.6101 21.7347 47.6197 23.0253 47.7551 24.2375L47.7556 24.2456C47.7637 24.5603 47.7975 24.8841 47.8571 25.2161C47.9157 25.5421 48.0005 25.8772 48.1117 26.2209L48.1133 26.2268C48.7106 28.6174 49.8981 30.993 51.4825 32.7267C52.8118 34.1811 54.4198 35.1828 56.1906 35.3595C55.5826 34.7558 53.6711 32.7546 52.1168 30.0294C51.1785 28.3843 50.3696 26.4745 50.0543 24.4459L50.0527 24.4314C50.0441 23.1139 50.8363 21.9978 52.2038 21.1369C53.9042 20.0654 56.5021 19.3871 59.5517 19.2066C62.5948 19.0267 66.0923 19.3414 69.6005 20.2566C77.0225 22.1928 84.495 26.8155 87.8287 35.1151C87.7385 33.5141 87.7884 31.7427 88.3245 30.2067C88.9373 28.4493 90.1822 27.003 92.5685 26.4723L92.7345 26.4358L92.6818 26.5975C92.2758 27.8419 91.8542 29.6089 91.8069 31.6735C91.7726 33.1805 91.938 34.8476 92.4536 36.5862L92.4885 36.7027L92.3666 36.7108C90.924 36.8042 89.4765 37.1668 88.0935 37.8295C86.7938 38.452 85.5499 39.3404 84.4188 40.5198L84.2861 40.6578L84.2528 40.4688C82.7463 31.9168 74.6884 29.3785 72.3526 28.8167C75.5192 30.6143 77.702 32.7009 79.2053 34.716C81.9965 38.4574 82.452 41.9571 82.5255 42.9136L82.5282 42.9453L82.511 42.9727C82.351 43.2251 82.1941 43.4872 82.0416 43.7584C81.9825 43.8632 81.9245 43.9684 81.8671 44.0753L82.0524 43.9045C82.2516 43.7225 82.453 43.5436 82.6571 43.368L82.6684 43.3578L82.6813 43.3519C83.2995 43.079 83.9547 42.8814 84.6202 42.7659C85.9951 42.528 87.4141 42.6402 88.6413 43.1548C89.8729 43.6709 90.9116 44.5915 91.5201 45.968C91.6533 46.2682 91.7656 46.5905 91.8547 46.9353C91.9917 45.2392 91.4874 43.8938 90.5834 42.9152C89.6709 41.9275 88.3502 41.3083 86.869 41.0741C86.6702 41.0424 86.4656 41.0177 86.2561 41L85.943 40.9731L86.2164 40.8184C89.0232 39.226 91.5803 38.7802 93.7829 39.1524C95.7932 39.4924 97.5054 40.5139 98.8406 41.9662C100.172 43.4158 101.129 45.2961 101.63 47.358C102.376 50.4334 102.111 53.9147 100.571 56.9772L100.504 57.1093L100.409 56.996C100.106 56.6335 99.7649 56.2634 99.3825 55.8832C98.9985 55.5024 98.5721 55.1103 98.0994 54.7048C96.8045 53.5936 95.2932 52.5747 93.6008 51.6482C91.8477 50.6885 89.8987 49.827 87.7933 49.0638C84.632 47.9182 81.1082 46.9879 77.3609 46.2747C73.481 45.5357 69.361 45.0281 65.1535 44.7526L64.8618 44.7332L65.1067 44.5737C67.587 42.9571 68.2809 40.8297 68.4641 39.9972C66.899 41.8373 64.8844 42.9335 62.9562 43.5839C60.9352 44.266 59.0087 44.4583 57.7997 44.5061L57.0563 44.5071L56.5322 44.5109C55.762 44.5173 54.9907 44.5318 54.22 44.5539C53.453 44.5759 52.685 44.606 51.9164 44.643L51.7059 44.6532L51.8348 44.4867C52.5797 43.5237 53.1743 42.4109 53.5733 41.1487C53.8838 40.1648 54.0755 39.0901 54.126 37.9257C53.1829 40.8243 50.925 43.4931 48.0059 45.1457C46.66 45.9079 45.1722 46.4551 43.6088 46.7092C42.0442 46.9638 40.4029 46.9251 38.7497 46.5169Z" fill="#5F2E15"/>
<path fill-rule="evenodd" clip-rule="evenodd" d="M83.0314 61.7621C83.3042 61.8513 83.5754 61.9415 83.8451 62.0339C87.624 63.3266 90.9389 64.8998 93.554 66.7414C96.0063 68.4687 97.8442 70.435 98.8733 72.6306L98.9673 72.832L98.7556 72.7649C98.2948 72.6188 97.82 72.5081 97.3356 72.4351C96.8527 72.3621 96.3608 72.3255 95.8645 72.3277C93.3988 72.3363 91.2187 73.238 89.3497 74.6398C88.2647 75.4535 87.2851 76.4359 86.4145 77.5106C85.7447 72.7697 88.1804 66.1464 88.1804 66.1464C88.1804 66.1464 82.9234 71.1633 81.9094 69.4553C81.1091 68.1073 82.4363 63.6011 83.0314 61.7621Z" fill="#3B2015"/>
<path fill-rule="evenodd" clip-rule="evenodd" d="M68.4034 40.0681C69.2864 38.2882 68.6886 36.4675 68.6886 36.4675C64.9242 42.6182 55.5547 42.5989 53.0578 42.478C52.7184 43.2074 52.3069 43.8771 51.8354 44.4867L51.7065 44.6532L51.917 44.643C52.6856 44.606 53.4536 44.5759 54.2206 44.5539C54.9913 44.5319 55.7626 44.5174 56.5327 44.5109L57.0569 44.5071L57.8003 44.5061C59.0092 44.4583 60.9358 44.266 62.9568 43.5839C64.8597 42.9421 66.8475 41.8652 68.4034 40.0681ZM91.6217 50.6444C89.0995 44.295 81.5164 44.541 81.5164 44.541C80.2005 39.8275 74.5874 37.7554 74.5874 37.7554C76.9087 41.4372 76.8287 44.4787 76.8287 44.4787C74.4457 42.1617 69.5791 41.5467 67.9668 41.4028C67.499 42.3685 66.6482 43.5694 65.1073 44.5737L64.8624 44.7333L65.1541 44.7526C69.3616 45.0281 73.4816 45.5357 77.3615 46.2747C81.1088 46.988 84.6326 47.9182 87.7939 49.0638C89.1366 49.5509 90.4159 50.0773 91.6217 50.6444ZM91.2087 45.3622C91.3225 45.5534 91.4267 45.7548 91.5207 45.968C91.6539 46.2682 91.7662 46.5905 91.8553 46.9353C91.9869 45.301 91.5239 43.9932 90.6818 43.0248C92.3704 43.4142 95.1079 44.3879 96.2326 46.7183C97.4142 49.1658 97.607 52.5242 97.6172 54.3025C96.434 53.3465 95.0875 52.4619 93.6014 51.6482C93.1357 51.3931 92.6561 51.145 92.1636 50.9044C92.2119 49.5869 92.1212 47.3602 91.2087 45.3622ZM24.5492 48.1142C25.1771 48.5401 25.8458 48.9005 26.551 49.1857L26.7814 49.2786L26.5499 49.3667C24.2076 50.2615 22.0727 51.2836 20.2021 52.4329C19.7257 52.7262 19.2659 53.027 18.825 53.3363C18.2379 49.1299 20.136 45.9868 21.1452 44.6538C21.6243 45.3573 22.1554 46.0099 22.736 46.598C23.2967 47.1668 23.9026 47.676 24.5492 48.1142ZM38.7503 46.5169C35.139 45.6254 31.4712 42.9695 28.4189 37.7479C28.377 37.6126 28.3352 37.4772 28.2954 37.3392C34.205 45.4653 48.2557 44.7413 54.2367 37.1883C54.2367 37.1883 54.1964 37.5062 54.1024 37.9987C53.1453 40.8689 50.9009 43.5071 48.0065 45.1457C46.6606 45.9079 45.1728 46.4552 43.6094 46.7092C42.0448 46.9638 40.4035 46.9251 38.7503 46.5169Z" fill="#3B2015"/>
<path fill-rule="evenodd" clip-rule="evenodd" d="M15.9117 55.7682C15.8043 55.8767 15.699 55.9857 15.5959 56.0953C15.46 56.2403 15.3273 56.3848 15.199 56.5293C15.0711 56.6716 14.9503 56.8113 14.8354 56.9477L14.7274 57.0755L14.6694 56.9187C14.3155 55.9621 14.0544 54.8552 13.8949 53.6779C13.5496 51.1332 13.6763 48.2544 14.3504 45.8407C15.0287 43.4115 16.2629 41.449 18.1304 40.7577C18.4177 40.6514 18.7201 40.5751 19.0381 40.5322L19.1176 40.5214L19.1433 40.5971C19.3313 41.1466 19.5429 41.6837 19.7782 42.2036C17.8076 43.3648 13.5507 46.9836 15.9117 55.7682Z" fill="#B0895C"/>
<path fill-rule="evenodd" clip-rule="evenodd" d="M88.4598 41.5011C87.9608 41.305 87.4265 41.1622 86.869 41.0741C86.6702 41.0424 86.4656 41.0177 86.2561 41L85.943 40.9731L86.2164 40.8184C89.0232 39.226 91.5803 38.7802 93.7829 39.1524C95.7932 39.4924 97.5054 40.5139 98.8406 41.9662C100.172 43.4158 101.129 45.2961 101.63 47.358C102.376 50.4334 102.111 53.9147 100.571 56.9772L100.547 57.0234L100.436 57.0277C100.436 57.0223 101.676 48.2888 97.7299 43.7214C94.5488 40.0391 90.0759 40.9924 88.4598 41.5011ZM72.7087 29.0224C72.1012 28.7297 71.7322 28.5852 71.7322 28.5852C79.9996 34.9083 81.5158 44.541 81.5158 44.541C87.6413 41.8996 91.8821 47.525 91.8821 47.525C91.8499 47.1297 91.7844 46.7565 91.6931 46.4041C91.6399 46.2538 91.5824 46.1087 91.5201 45.968C90.9116 44.5915 89.8729 43.6709 88.6413 43.1548C87.4141 42.6402 85.9951 42.528 84.6202 42.7659C83.9547 42.8814 83.2995 43.079 82.6813 43.3519L82.6684 43.3578L82.6571 43.368C82.453 43.5436 82.2516 43.7225 82.0524 43.9045L81.8671 44.0753C81.9245 43.9684 81.9825 43.8632 82.0416 43.7584C82.1941 43.4872 82.351 43.2251 82.511 42.9727L82.5282 42.9453L82.5255 42.9136C82.452 41.9571 81.9965 38.4574 79.2053 34.716C77.7589 32.7772 75.6836 30.7722 72.7087 29.0224ZM50.8321 27.33C50.4824 26.4084 50.209 25.4417 50.0543 24.4459L50.0527 24.4314C50.0441 23.1139 50.8363 21.9978 52.2038 21.1369C53.9042 20.0654 56.5021 19.3871 59.5517 19.2066C62.5948 19.0267 66.0923 19.3414 69.6005 20.2566C77.0225 22.1928 84.495 26.8155 87.8287 35.1151C87.7385 33.5141 87.7884 31.7427 88.3245 30.2067C88.9373 28.4493 90.1822 27.003 92.5685 26.4723L92.7345 26.4358L92.6818 26.5975C92.2758 27.8419 91.8542 29.6089 91.8069 31.6735C91.7726 33.1805 91.938 34.8476 92.4536 36.5862L92.4885 36.7027L92.3666 36.7108C91.8843 36.7419 91.402 36.8032 90.9207 36.8961C90.591 35.3219 90.0947 32.1257 90.6968 29.1449C90.6968 29.1449 88.4963 30.4081 87.9694 35.7473C87.9694 35.7473 79.4512 24.1908 68.4668 21.8517C57.4823 19.5133 51.9862 22.2433 50.8321 27.33ZM27.3555 34.4534C27.5053 34.766 27.6009 34.9443 27.6009 34.9443C25.8656 18.0981 38.8126 12.3979 38.8126 12.3979C33.3203 26.8945 40.9437 37.0991 40.9437 37.0991C40.3454 27.4262 45.4456 21.1315 45.4456 21.1315C43.6448 34.9379 56.4505 35.4766 56.4505 35.4766C56.3479 35.439 56.247 35.3976 56.1471 35.3552C54.3935 35.1667 52.801 34.1693 51.4825 32.7267C49.8981 30.993 48.7106 28.6174 48.1133 26.2269L48.1117 26.221C48.0005 25.8772 47.9157 25.5421 47.8571 25.2161C47.7975 24.8841 47.7637 24.5603 47.7556 24.2456L47.7551 24.2375C47.6197 23.0253 47.6101 21.7347 47.7733 20.3753C47.9227 19.1373 48.2148 17.8424 48.6859 16.4975L48.7729 16.2505L48.5462 16.3815C45.849 17.938 44.0186 19.7179 42.6431 21.7406C41.3337 23.6671 40.4383 25.8117 39.601 28.1931C39.0231 24.9529 38.8169 20.9323 39.6805 16.9573C40.3685 13.7912 41.7359 10.6535 44.1373 7.96268L44.3392 7.73605L44.0433 7.80318C43.3972 7.94873 42.7629 8.11685 42.1425 8.30644C36.6632 9.97785 32.2333 13.3029 29.4995 17.6582C26.7652 22.0156 25.7281 27.4031 27.0364 33.1977C27.1304 33.6139 27.2368 34.0329 27.3555 34.4534ZM33.7667 47.054L33.8725 47.1217L33.6523 47.1759C33.3945 47.2393 33.1485 47.3011 32.9148 47.3618C32.6877 47.4198 32.4444 47.4842 32.1855 47.554L32.1769 47.5556C30.6371 47.8242 29.2191 47.713 27.9414 47.3021C26.5659 46.8596 25.3543 46.069 24.329 45.0308C23.6018 44.2939 22.9637 43.4314 22.4229 42.4775C21.8691 41.5 21.4169 40.4258 21.0753 39.292C20.731 38.1497 20.4995 36.9482 20.3894 35.7247C20.2804 34.5179 20.2901 33.2901 20.4249 32.0768C20.6145 30.3785 21.0517 28.7061 21.7579 27.1582C22.4202 25.7075 23.3193 24.3659 24.4724 23.2133L24.6883 22.9979L24.6367 23.2987C24.3902 24.7418 24.3381 26.1887 24.4992 27.6045C23.3762 29.2872 21.8116 32.6434 22.5319 37.6448C23.6125 45.1484 31.6328 47.5449 33.6292 47.0814C33.6764 47.0707 33.7215 47.0621 33.7667 47.054Z" fill="#B0895C"/>
<path fill-rule="evenodd" clip-rule="evenodd" d="M33.7336 87.0117C37.5593 87.0117 40.6787 83.8922 40.6787 80.0671C40.6787 76.242 37.5593 73.122 33.7336 73.122C29.9085 73.122 26.7886 76.242 26.7886 80.0671C26.7886 83.8922 29.9085 87.0117 33.7336 87.0117Z" fill="#4A389B"/>
<path fill-rule="evenodd" clip-rule="evenodd" d="M40.1033 82.839C39.0329 85.2946 36.5843 87.0117 33.734 87.0117C30.8837 87.0117 28.4351 85.2946 27.3652 82.839C28.1526 80.0634 30.7059 78.03 33.734 78.03C36.7626 78.03 39.3154 80.0634 40.1033 82.839Z" fill="#7042A4"/>
<path fill-rule="evenodd" clip-rule="evenodd" d="M33.7337 84.0093C35.9052 84.0093 37.6759 82.238 37.6759 80.0671C37.6759 77.8957 35.9052 76.1249 33.7337 76.1249C31.5628 76.1249 29.7915 77.8957 29.7915 80.0671C29.7915 82.238 31.5628 84.0093 33.7337 84.0093Z" fill="#100F0D"/>
<path fill-rule="evenodd" clip-rule="evenodd" d="M29.6381 80.5167C31.5099 80.5167 33.0363 78.9903 33.0363 77.1191C33.0363 75.2473 31.5099 73.7209 29.6381 73.7209C27.7664 73.7209 26.24 75.2473 26.24 77.1191C26.24 78.9903 27.7664 80.5167 29.6381 80.5167Z" fill="white"/>
<path fill-rule="evenodd" clip-rule="evenodd" d="M38.1882 83.4883C40.0594 83.4883 41.5858 82.8761 41.5858 82.1247C41.5858 81.3744 40.0594 80.7616 38.1882 80.7616C36.3165 80.7616 34.7896 81.3744 34.7896 82.1247C34.7896 82.8761 36.3165 83.4883 38.1882 83.4883Z" fill="white"/>
<path fill-rule="evenodd" clip-rule="evenodd" d="M63.1848 87.0117C67.0099 87.0117 70.1299 83.8922 70.1299 80.0671C70.1299 76.242 67.0099 73.122 63.1848 73.122C59.3597 73.122 56.2397 76.242 56.2397 80.0671C56.2397 83.8922 59.3597 87.0117 63.1848 87.0117Z" fill="#4A389B"/>
<path fill-rule="evenodd" clip-rule="evenodd" d="M69.554 82.839C68.4836 85.2946 66.0351 87.0117 63.1847 87.0117C60.3344 87.0117 57.8858 85.2946 56.8154 82.839C57.6033 80.0634 60.1566 78.03 63.1847 78.03C66.2128 78.03 68.7661 80.0634 69.554 82.839Z" fill="#7042A4"/>
<path fill-rule="evenodd" clip-rule="evenodd" d="M63.1851 84.0093C65.3566 84.0093 67.1274 82.238 67.1274 80.0671C67.1274 77.8957 65.3566 76.1249 63.1851 76.1249C61.0137 76.1249 59.2429 77.8957 59.2429 80.0671C59.2429 82.238 61.0137 84.0093 63.1851 84.0093Z" fill="#100F0D"/>
<path fill-rule="evenodd" clip-rule="evenodd" d="M59.0894 80.5167C60.9606 80.5167 62.487 78.9903 62.487 77.1191C62.487 75.2473 60.9606 73.7209 59.0894 73.7209C57.2176 73.7209 55.6907 75.2473 55.6907 77.1191C55.6907 78.9903 57.2176 80.5167 59.0894 80.5167Z" fill="white"/>
<path fill-rule="evenodd" clip-rule="evenodd" d="M67.6389 83.4883C69.5106 83.4883 71.037 82.8761 71.037 82.1247C71.037 81.3744 69.5106 80.7616 67.6389 80.7616C65.7671 80.7616 64.2407 81.3744 64.2407 82.1247C64.2407 82.8761 65.7671 83.4883 67.6389 83.4883Z" fill="white"/>
<path fill-rule="evenodd" clip-rule="evenodd" d="M37.6496 93.4218C40.5042 100.279 55.6012 100.798 59.3296 93.9062L58.0127 93.1672L58.7743 91.8089L62.832 94.0867L62.0704 95.4455L60.6874 94.6689C56.4632 102.431 40.6224 102.598 36.9277 93.7215L37.6496 93.4218Z" fill="#100F0D"/>
<path fill-rule="evenodd" clip-rule="evenodd" d="M47.6969 24.5619C47.3816 22.1541 47.5551 19.4311 48.5949 16.4659C43.2283 19.5627 41.3136 23.5447 39.5719 28.5713C38.4596 22.7165 38.5116 14.1215 44.0646 7.89769C31.4742 10.741 23.6521 22.0005 27.6013 34.9443C17.6534 23.2976 31.6208 2.59397 51.2379 5.35083C45.5631 9.23612 42.6966 11.8748 41.7191 19.2463C45.1925 14.8643 48.7147 13.2745 53.4282 12.0177C51.2841 15.5216 49.6852 18.8951 50.0445 23.5248C50.544 29.9569 56.4326 35.4605 56.4509 35.4766C51.8926 35.2381 48.3564 29.6024 47.6969 24.5619Z" fill="#100F0D"/>
<path fill-rule="evenodd" clip-rule="evenodd" d="M54.2362 37.1883C54.357 53.2396 28.7316 53.295 28.2949 37.3392C37.3507 53.3293 52.0567 46.0147 54.2362 37.1883Z" fill="#100F0D"/>
<path fill-rule="evenodd" clip-rule="evenodd" d="M101.541 59.907L99.5424 58.5176C106.814 48.0455 96.5578 30.0643 81.5161 44.541C90.1423 27.3037 114.881 40.697 101.541 59.907Z" fill="#100F0D"/>
<path fill-rule="evenodd" clip-rule="evenodd" d="M48.0195 26.2505C43.957 13.6939 75.1128 11.4092 86.7155 28.3962C88.7323 24.1741 92.8625 23.636 96.4475 23.977C94.2766 28.1405 93.2674 32.1617 94.9979 36.9584L92.6455 37.4783C91.0272 32.9926 91.8345 28.8817 92.5902 26.5674C87.8966 27.6104 87.6946 32.2535 87.9701 35.7473C80.3349 15.0995 47.4196 16.5045 50.3327 25.5077L48.0195 26.2505Z" fill="#100F0D"/>
<path fill-rule="evenodd" clip-rule="evenodd" d="M102.282 72.8632C101.946 73.7021 101.488 74.0432 100.953 74.352L99.6759 75.0894L99.1968 73.6903C97.4867 68.6927 91.6518 64.8085 83.813 62.1257C75.9071 59.4204 66.0355 57.9746 56.2481 57.8511C46.4683 57.7275 36.7895 58.9231 29.2628 61.499C23.2238 63.5657 18.1397 66.7871 16.1084 70.6015C16.2631 71.2261 17.3298 73.1049 18.5672 74.3214L18.1252 74.8756L15.3254 73.6146L13.8339 72.1231C13.184 71.5065 12.4702 70.8292 12.4702 67.8774C12.4702 62.311 11.5061 60.305 15.5257 56.0287C18.2552 53.1242 22.358 50.7744 27.3293 48.9725C29.8831 48.0471 32.6727 47.2624 35.6256 46.6184C37.3293 47.4139 39.7864 48.1567 42.6781 47.8392L42.6964 47.8371C37.3937 48.5702 32.4257 49.7099 28.1574 51.2573C23.3913 52.9845 19.5232 55.2027 17.0935 57.9032C14.0675 61.2664 14.907 63.5582 14.907 67.8774C14.907 68.052 14.9097 68.2131 14.9145 68.3619C17.4356 64.3557 22.2903 61.3142 28.4818 59.1954C36.2621 56.5331 46.2288 55.2967 56.2766 55.424C66.3174 55.5507 76.4582 57.0379 84.594 59.8222C91.7764 62.2804 97.4491 65.7742 100.244 70.2776C100.247 70.1305 100.248 69.9731 100.248 69.8039C100.248 63.7209 101.501 60.6402 96.5055 56.3993C94.1122 54.3681 90.8483 52.6526 86.9985 51.2573C78.8842 48.3162 68.2418 46.8456 57.578 46.8456C52.741 46.8456 47.9083 47.148 43.3146 47.7533C46.4442 47.2576 48.6215 45.7698 49.8579 44.6645C52.4096 44.4943 54.9946 44.4089 57.578 44.4089C68.4937 44.4089 79.432 45.9299 87.8267 48.9725C91.9741 50.4758 95.5172 52.3604 98.1629 54.6307C104.099 59.7244 102.686 62.6145 102.686 69.8039C102.686 71.3046 102.536 72.2283 102.282 72.8632Z" fill="#100F0D"/>
<path fill-rule="evenodd" clip-rule="evenodd" d="M27.504 21.0837C23.2116 23.3943 21.0166 27.6475 20.5214 32.0876C20.2507 34.5195 20.4875 37.0051 21.168 39.2641C21.8388 41.4898 22.9367 43.4818 24.3981 44.9626C26.3676 46.9579 29.0304 48.0256 32.2229 47.4488L32.6509 49.8383C28.5766 50.5741 25.1785 49.212 22.666 46.6662C20.9188 44.896 19.6175 42.5527 18.836 39.9591C18.0647 37.3988 17.7962 34.5802 18.1039 31.8206C18.6802 26.649 21.2717 21.6767 26.3525 18.9418L27.504 21.0837Z" fill="#100F0D"/>
<path fill-rule="evenodd" clip-rule="evenodd" d="M20.0169 40.6014C13.2507 40.1084 12.4553 53.5667 15.5102 58.444L13.4537 59.7293C8.90801 52.4711 11.1136 35.9744 20.5787 38.2404L20.0169 40.6014Z" fill="#100F0D"/>
<path fill-rule="evenodd" clip-rule="evenodd" d="M20.6734 79.9339C18.5127 95.1609 25.345 107.8 41.3572 111.377C46.9493 112.626 53.0603 112.695 58.9226 111.78C70.2277 110.017 80.5473 104.627 84.3074 97.0305L86.4875 98.1063C82.3643 106.435 71.3201 112.303 59.2937 114.179C53.1462 115.138 46.7248 115.063 40.8335 113.747C25.482 110.318 14.0221 97.2765 20.6734 79.9339Z" fill="#100F0D"/>
<path fill-rule="evenodd" clip-rule="evenodd" d="M14.1314 75.4965C12.844 75.4729 11.6587 75.8929 10.6629 76.6351C9.63616 77.4005 8.80346 78.5101 8.25504 79.8367C7.45274 81.7783 7.26266 84.1699 7.95271 86.6368C8.76318 89.5338 10.5909 92.23 13.0626 93.9621C15.2271 95.4794 17.8964 96.2479 20.8069 95.7366L21.2258 98.1353C17.6316 98.7663 14.3398 97.8205 11.6726 95.9515C8.73589 93.8934 6.56762 90.7036 5.61091 87.284C4.76881 84.2725 5.01152 81.3255 6.00852 78.9135C6.72536 77.1792 7.83439 75.7135 9.21632 74.6834C10.6291 73.6307 12.3209 73.0351 14.1695 73.0694C15.5778 73.0952 17.0639 73.4867 18.5677 74.3214C18.2057 65.9111 22.1383 62.1821 22.1501 62.1687L23.9778 63.7676C23.9665 63.78 19.6097 69.9124 21.0829 79.406C19.0404 77.5981 17.0698 75.5508 14.1314 75.4965Z" fill="#100F0D"/>
<path fill-rule="evenodd" clip-rule="evenodd" d="M80.9033 60.2373C80.8968 60.2583 78.5949 67.5519 79.9639 71.4485C80.4613 72.8637 84.0823 71.7401 85.9745 68.8962C85.9643 68.9123 82.145 76.2307 83.8685 81.2288C86.2682 76.6748 90.3571 72.2509 95.8644 72.2304C97.5766 72.224 99.2147 72.6623 100.641 73.4958C102.07 74.3315 103.287 75.5615 104.155 77.1362C105.942 80.3764 106.228 85.076 103.733 90.7417C102.188 94.2526 99.2571 97.35 95.9895 99.1208C94.4975 99.9291 92.927 100.468 91.3733 100.653C89.7658 100.845 88.1765 100.661 86.7038 100.012C83.9813 98.8136 82.8266 96.0229 84.3842 94.5222C85.2822 96.1791 86.4224 97.2292 87.684 97.785C88.7367 98.2485 89.8973 98.3775 91.0875 98.2351C92.3314 98.0869 93.6086 97.6454 94.8375 96.9789C97.6507 95.4546 100.174 92.7869 101.506 89.7615C103.657 84.8756 103.475 80.9409 102.023 78.3071C101.376 77.1335 100.472 76.2189 99.4129 75.5996C98.3511 74.9793 97.1341 74.6527 95.8644 74.6576C90.6681 74.6769 86.7941 80.0676 85.0329 84.4707L84.1736 86.6185L82.891 84.6941C80.5859 81.2363 80.6697 77.5444 81.3281 74.7188C79.9827 75.2199 78.5863 74.8563 77.67 72.2476C76.033 67.5873 78.5734 59.5466 78.5809 59.523L80.9033 60.2373Z" fill="#100F0D"/>
<path fill-rule="evenodd" clip-rule="evenodd" d="M90.7257 91.2466C90.3094 89.0198 90.8788 86.5089 92.0947 84.5733C94.3038 84.6571 95.9988 87.0165 94.4396 89.2991C98.7487 86.8129 96.7309 82.7407 93.9181 82.5254C95.3076 81.4523 97.0381 81.0049 98.9249 81.659C92.9831 76.3268 85.5965 85.5911 90.7257 91.2466Z" fill="#100F0D"/>
<path fill-rule="evenodd" clip-rule="evenodd" d="M18.7706 91.5731C18.7706 89.095 17.8033 85.5062 16.1824 84.5733C13.9734 84.6571 12.2783 87.0165 13.8375 89.2991C9.5286 86.8129 11.5463 82.7408 14.359 82.5254C12.9696 81.4523 11.2391 81.0049 9.35254 81.6591C15.2941 76.3269 22.3815 85.3193 18.7706 91.5731Z" fill="#100F0D"/>
<path fill-rule="evenodd" clip-rule="evenodd" d="M33.9115 71.4538C28.6185 71.4538 24.8036 75.1399 24.8036 80.2513C24.8036 85.5051 28.4037 88.8034 33.5861 88.8034C38.669 88.8034 43.02 85.6045 43.02 80.2513C43.02 75.1399 39.2051 71.4538 33.9115 71.4538ZM33.9115 68.8243C40.1181 68.8243 44.6801 74.2279 44.6801 80.2513C44.6801 86.5164 39.5805 90.0322 33.5861 90.0322C27.4923 90.0322 23.1435 86.4182 23.1435 80.2513L21.4221 76.6937L23.8809 76.1174V76.1184C25.41 71.9609 29.1836 68.8243 33.9115 68.8243Z" fill="#100F0D"/>
<path fill-rule="evenodd" clip-rule="evenodd" d="M63.3645 71.4538C68.6575 71.4538 72.4729 75.1399 72.4729 80.2513C72.4729 85.5051 68.8723 88.8034 63.6905 88.8034C58.607 88.8034 54.256 85.6045 54.256 80.2513C54.256 75.1399 58.0715 71.4538 63.3645 71.4538ZM63.3645 68.8243C57.1579 68.8243 52.5964 74.2279 52.5964 80.2513C52.5964 86.5164 57.6955 90.0322 63.6905 90.0322C69.7843 90.0322 74.1331 86.4182 74.1331 80.2513L75.8544 76.6937L73.3957 76.1174V76.1184C71.8666 71.9609 68.093 68.8243 63.3645 68.8243Z" fill="#100F0D"/>
<path fill-rule="evenodd" clip-rule="evenodd" d="M24.9182 70.6192C28.9571 65.6759 38.1058 64.042 42.7774 69.8168C42.7774 69.8168 44.357 68.3049 44.4725 64.7762L43.0841 65.1232L41.9788 62.4598C34.126 60.2862 25.777 62.0344 24.9182 70.6192Z" fill="#100F0D"/>
<path fill-rule="evenodd" clip-rule="evenodd" d="M72.3582 70.6192C68.3198 65.6759 59.1711 64.042 54.4995 69.8168C54.4995 69.8168 52.92 68.3049 52.804 64.7762L54.1923 65.1232L55.2982 62.4598C63.1509 60.2862 71.4999 62.0344 72.3582 70.6192Z" fill="#100F0D"/>
<path fill-rule="evenodd" clip-rule="evenodd" d="M47.0217 87.7356C40.9499 88.2754 42.3206 95.0244 48.1399 93.4443C44.6494 93.2918 43.7127 89.4951 47.0217 87.7356Z" fill="#100F0D"/>
<path fill-rule="evenodd" clip-rule="evenodd" d="M56.5326 44.4132C56.842 44.4158 64.5073 44.8477 68.623 39.6513C68.623 39.6513 67.943 46.8462 56.437 46.6786L56.5326 44.4132Z" fill="#100F0D"/>
<path fill-rule="evenodd" clip-rule="evenodd" d="M82.4425 43.1752C82.4425 43.1752 82.3195 34.2649 71.7324 28.5852C71.7324 28.5852 82.6906 30.3925 84.377 40.6165L83.4667 41.8051L84.4614 40.9242C88.6592 40.4795 92.6353 42.7686 91.8823 47.525C91.0708 42.8389 86.2649 41.8641 82.7035 43.4491L82.9312 42.2444L82.4425 43.1752Z" fill="#100F0D"/>
<path fill-rule="evenodd" clip-rule="evenodd" d="M136.75 88.4296H148.667V65.3574H136.75V88.4296Z" fill="#8A32E0"/>
<path fill-rule="evenodd" clip-rule="evenodd" d="M171.726 88.4296H183.588V82.5254H171.726V88.4296Z" fill="#8A32E0"/>
<path fill-rule="evenodd" clip-rule="evenodd" d="M191.746 57.9413C189.67 57.9413 187.773 58.451 186.056 59.4715C184.339 60.4914 182.925 61.7884 181.816 63.3632C180.814 61.645 179.472 60.3125 177.79 59.364C176.108 58.4155 174.176 57.9413 171.993 57.9413C169.989 57.9413 168.245 58.335 166.759 59.1223C165.275 59.9097 164.102 60.9474 163.243 62.2358V58.1561H151.328V88.4296H163.243V82.5254H161.303V78.2851H163.243V72.3809C163.243 71.0924 163.619 70.0811 164.37 69.3474C165.123 68.6143 166.161 68.2469 167.484 68.2469C168.772 68.2469 169.801 68.6143 170.57 69.3474C171.34 70.0811 171.725 71.0924 171.725 72.3809V78.2851H183.587V72.3809C183.587 71.0924 183.963 70.0811 184.714 69.3474C185.466 68.6143 186.503 68.2469 187.828 68.2469C189.116 68.2469 190.145 68.6143 190.914 69.3474C191.683 70.0811 192.068 71.0924 192.068 72.3809V78.2851H194.008V82.5254H192.068V88.4296H203.931V70.8776C203.931 66.9058 202.866 63.7563 200.737 61.4302C198.608 59.1046 195.611 57.9413 191.746 57.9413Z" fill="#8A32E0"/>
<path fill-rule="evenodd" clip-rule="evenodd" d="M247.01 57.9413C244.935 57.9413 243.038 58.451 241.321 59.4715C239.604 60.4914 238.189 61.7884 237.08 63.3632C236.078 61.645 234.736 60.3125 233.054 59.364C231.372 58.4155 229.44 57.9413 227.258 57.9413C225.254 57.9413 223.509 58.335 222.024 59.1223C220.539 59.9097 219.367 60.9474 218.508 62.2358V58.1561H206.592V88.4296H213.821H218.508V82.5254V78.2851V75.3322V72.3809C218.508 71.0924 218.884 70.0811 219.635 69.3474C220.387 68.6143 221.425 68.2469 222.749 68.2469C224.037 68.2469 225.066 68.6143 225.835 69.3474C226.604 70.0811 226.99 71.0924 226.99 72.3809V75.3322V78.2851V82.5254V88.4296H238.851V82.5254V78.2851V75.3322V72.3809C238.851 71.0924 239.228 70.0811 239.978 69.3474C240.73 68.6143 241.767 68.2469 243.092 68.2469C244.38 68.2469 245.409 68.6143 246.178 69.3474C246.948 70.0811 247.333 71.0924 247.333 72.3809V76.0954V78.2851V82.5254V88.4296H253.264H259.195V70.8776C259.195 66.9058 258.13 63.7563 256.001 61.4302C253.872 59.1046 250.875 57.9413 247.01 57.9413Z" fill="#8A32E0"/>
<path fill-rule="evenodd" clip-rule="evenodd" d="M111.304 50.7808V62.6435H122.227V75.4874C122.227 78.8264 117.181 78.8033 117.181 75.4874V73.8831H105.427C105.427 94.0942 134.089 92.9298 134.089 74.9578V62.6435V50.7808H122.227H111.304Z" fill="#8A32E0"/>
<path fill-rule="evenodd" clip-rule="evenodd" d="M142.709 50.7803C139.428 50.7803 136.751 53.4566 136.751 56.7382C136.751 60.0193 139.428 62.6961 142.709 62.6961C145.99 62.6961 148.667 60.0193 148.667 56.7382C148.667 53.4566 145.99 50.7803 142.709 50.7803Z" fill="#8A32E0"/>
<path fill-rule="evenodd" clip-rule="evenodd" d="M281.764 58.1561L276.457 73.4867L270.775 58.1561H257.534L270.131 86.8897L262.519 102.865H275.545L294.897 58.1561H281.764Z" fill="#8A32E0"/>
</svg>
