<svg width="1455" height="1455" viewBox="0 0 1455 1455" fill="none" xmlns="http://www.w3.org/2000/svg">
<rect width="1455" height="1455" rx="370" fill="url(#paint0_linear_2_5)"/>
<rect x="10.5" y="10.5" width="1434" height="1434" rx="359.5" stroke="white" stroke-opacity="0.4" stroke-width="21"/>
<g clip-path="url(#clip0_2_5)">
<path fill-rule="evenodd" clip-rule="evenodd" d="M1220.23 864.283C1220.88 865.001 1221.53 865.731 1222.17 866.463C1227.71 872.843 1232.72 880.027 1237.09 887.973C1248.46 908.646 1254.81 933.967 1253.92 963.005C1253.14 988.194 1246.94 1016.09 1233.82 1045.98C1225.15 1065.73 1212.57 1084.4 1197.54 1100.72L1197.59 1100.77C1182.35 1117.3 1164.52 1131.37 1145.63 1141.64C1137.06 1146.3 1128 1150.26 1118.57 1153.39C1109.17 1156.52 1099.86 1158.69 1090.81 1159.77C1080.73 1160.98 1070.55 1160.96 1060.41 1159.56C1053.41 1158.6 1046.55 1157 1039.9 1154.73C1015.25 1187.71 980.721 1216.01 940.053 1238.69C890.703 1266.21 831.961 1285.66 770.904 1295.22C738.264 1300.32 704.906 1302.63 671.934 1301.85C639.759 1301.1 607.901 1297.43 577.375 1290.59C526.871 1279.28 480.179 1258.14 441.719 1228.83C408.779 1203.73 381.845 1172.66 363.599 1136.62C351.033 1136.54 338.839 1134.86 327.136 1131.78C308.993 1127.01 292.185 1118.91 277.127 1108.33C260.221 1096.45 245.55 1081.4 233.731 1064.45C221.698 1047.2 212.567 1027.92 207.001 1007.96C202.195 990.728 200.402 973.613 201.172 957.278C202 939.821 205.767 923.23 211.925 908.278C216.287 897.693 221.922 887.829 228.627 878.959C235.444 869.945 243.296 862.057 251.995 855.554C260.287 849.358 269.333 844.377 278.98 840.826C276.336 832.485 274.64 821.681 274.64 806.873C274.64 794.99 274.385 787.697 274.159 781.058C273.36 757.808 272.764 740.464 279.358 721.348C270.14 700.97 264.521 677.019 262.55 652.514C260.084 621.861 263.263 589.681 272.191 562.116C281.902 532.133 298.65 507.068 322.765 493.59C325.377 492.131 328.055 490.812 330.805 489.643C330.441 485.656 330.172 481.626 330.003 477.556C329.516 465.83 329.888 454.125 331.163 442.643C334.414 413.384 343.46 384.521 358.979 358.921C372.06 337.343 389.645 318.218 412.113 303.258C433.704 256.201 472.783 213.449 523.353 185.724C570.527 159.86 627.7 146.965 689.974 155.744C703.273 157.588 712.562 169.897 710.723 183.231C709.744 190.326 705.814 196.283 700.346 200.026C678.359 215.13 661.018 228.047 648.12 242.266C664.954 234.243 682.756 228.406 702.356 223.164C715.341 219.74 728.637 227.516 732.051 240.537C733.824 247.299 732.584 254.144 729.164 259.642C726.46 264.083 723.859 268.472 721.402 272.827C760.328 263.075 807.923 262.003 856.01 271.032C922.775 283.576 991.612 315.489 1040.54 370.521C1050.99 360.3 1063.07 353.286 1075.97 348.658C1097.1 341.08 1119.96 340.414 1140.98 342.419C1154.33 343.686 1164.13 355.566 1162.87 368.955C1162.53 372.543 1161.43 375.875 1159.75 378.805C1150.52 396.695 1143.75 414.154 1141.05 431.966C1139.03 445.289 1139.34 459.034 1142.7 473.635C1158.05 477.719 1172.73 484.283 1186.06 493.03C1208.5 507.751 1227.2 528.709 1239.02 554.473C1250.79 580.092 1255.72 610.236 1250.73 643.42C1246.96 668.468 1237.53 695.239 1221.07 723.025C1228.01 744.793 1227.2 765.823 1226.17 792.804C1225.82 801.939 1225.44 811.929 1225.44 826.191C1225.44 834.59 1224.97 841.786 1224.09 848.125C1223.22 854.41 1221.91 859.693 1220.23 864.283Z" fill="white"/>
<path fill-rule="evenodd" clip-rule="evenodd" d="M390.051 669.781C409.051 658.334 431.121 648.168 455.531 639.295C469.44 634.242 484.112 629.612 499.413 625.415C515.001 621.138 531.228 617.315 547.953 613.942L548.176 613.896L548.397 613.957C567.934 619.305 588.778 620.621 608.892 617.906C628.553 615.249 647.512 608.734 663.854 598.368L664.063 598.238L664.3 598.218C678.362 597.152 692.589 596.348 706.919 595.811C721.316 595.274 735.712 595.001 750.04 595.001C804.4 595.001 858.711 598.833 909.656 606.491C958.726 613.87 1004.68 624.806 1044.55 639.295C1064.17 646.43 1082.29 654.401 1098.51 663.197C1114.19 671.7 1128.1 680.984 1139.91 691.032C1181.27 726.246 1180.17 753.5 1178.45 796.099C1178.08 805.279 1177.68 815.187 1177.68 826.191C1177.66 828.877 1177.61 831.548 1177.55 834.231L1175.83 831.451C1162.35 809.669 1142.12 790.239 1116.68 773.199C1089.65 755.091 1056.76 739.686 1019.86 727.024C979.836 713.288 934.955 702.703 887.733 695.346C839.073 687.766 787.915 683.612 737.018 682.968C685.892 682.322 634.969 685.218 587.037 691.738C540.895 698.017 497.525 707.66 459.421 720.739C427.704 731.623 399.51 744.94 376.185 760.744C354.141 775.678 336.453 792.836 324.268 812.254L322.587 814.937L322.478 811.763L322.421 809.416L322.398 806.874C322.398 798.532 322.094 791.061 321.811 784.115C320.596 754.201 319.766 733.786 344.508 706.207C356.452 692.896 371.846 680.748 390.051 669.781Z" fill="white"/>
<path fill-rule="evenodd" clip-rule="evenodd" d="M336.084 774.558C345.846 764.901 356.662 756.281 367.999 748.597C394.48 730.655 424.521 717.218 454.689 706.868C496.703 692.451 541.113 683.196 585.072 677.212C635.35 670.373 686.479 667.667 737.202 668.31C788.253 668.957 839.525 673.004 889.975 680.86C935.419 687.941 981.051 698.21 1024.6 713.153C1059.36 725.083 1094.18 740.496 1124.8 761.012C1138.73 770.344 1152.11 780.976 1163.94 793.04C1165.58 751.616 1164.93 731.566 1130.44 702.209C1118.57 692.098 1105.24 683.515 1091.55 676.092C1074.9 667.064 1057.35 659.544 1039.57 653.08C997.2 637.681 951.998 627.682 907.488 620.989C863.884 614.434 819.575 610.904 775.409 609.938C750.544 668.555 425.616 631.672 336.179 758.8C335.872 763.66 335.909 768.839 336.084 774.558Z" fill="#DCCBE5"/>
<path fill-rule="evenodd" clip-rule="evenodd" d="M703.325 777.033C704.608 806.597 716.151 821.416 719.205 824.84C723.404 819.75 727.955 815.24 732.785 811.282C754.431 793.544 781.725 786.932 808.679 788.876C835.598 790.821 862.194 801.306 882.491 817.771C887.587 821.902 892.29 826.42 896.509 831.28C895.764 825.28 894.645 819.627 893.178 814.318C885.542 786.647 868.458 768.128 846.071 757.256C823.611 746.346 795.795 743.106 766.796 746.013C753.961 747.303 740.894 749.793 727.958 753.358L716.764 780.403L703.325 777.033Z" fill="#E8BD98"/>
<path fill-rule="evenodd" clip-rule="evenodd" d="M1069.89 972.737C1062.02 993.232 1063.31 1017.68 1079.97 1037.95C1078.55 1027.86 1079.04 1017.29 1081.15 1007C1083.56 995.186 1088.12 983.724 1094.36 973.771L1094.65 973.294L1095.21 973.317C1101.55 973.556 1107.48 975.618 1112.39 978.979C1116.51 981.803 1119.92 985.551 1122.24 989.903C1124.58 994.264 1125.82 999.23 1125.62 1004.49C1125.45 1009.09 1124.18 1013.91 1121.56 1018.73C1131.37 1012.35 1137.31 1005.08 1140.26 997.8C1142.82 991.469 1143.13 985.115 1141.75 979.304C1140.37 973.484 1137.31 968.201 1133.15 964.036C1127.9 958.791 1120.91 955.307 1113.34 954.724L1110.81 954.531L1112.81 952.98C1120.16 947.287 1128.46 943.32 1137.44 941.763C1144.35 940.565 1151.66 940.795 1159.25 942.768C1141.58 928.728 1122.89 927.297 1106.89 933.64C1098.65 936.908 1091.1 942.24 1084.77 948.967C1078.43 955.712 1073.3 963.855 1069.89 972.737Z" fill="#E8BD98"/>
<path fill-rule="evenodd" clip-rule="evenodd" d="M732.793 850.279C713.021 871.32 701.202 900.332 701.202 930.953C701.202 960.735 712.771 984.252 731.335 1000.67C751.581 1018.56 780.158 1028.05 811.157 1028.05C841.963 1028.05 868.255 1018.73 886.613 1001.49C904.257 984.916 914.598 960.991 914.598 930.953V930.735L931.383 895.949L907.471 890.33L907.291 889.833C899.479 868.548 885.765 849.949 867.9 836.922C851.097 824.671 830.611 817.346 807.903 817.346C777.85 817.346 751.684 830.174 732.793 850.279Z" fill="#E8BD98"/>
<path fill-rule="evenodd" clip-rule="evenodd" d="M613.103 1054.98C620.327 1062.47 632.855 1066.8 649.798 1063.6C642.13 1062.28 635.937 1059.08 631.449 1054.75C627.456 1050.9 624.809 1046.16 623.672 1041.05C622.532 1035.94 622.902 1030.47 624.93 1025.18C627.402 1018.73 632.331 1012.51 639.996 1007.52C622.578 1010.15 612.249 1018.33 608.102 1027.73C606.045 1032.39 605.506 1037.34 606.374 1042.06C607.242 1046.78 609.525 1051.26 613.103 1054.98Z" fill="#E8BD98"/>
<path fill-rule="evenodd" clip-rule="evenodd" d="M385.113 839.268C392.873 797.217 409.538 770.681 412.777 765.83L412.162 765.29L413.422 764.632C421.58 760.366 430.11 756.345 438.932 752.587C447.866 748.784 457.118 745.242 466.602 741.988C503.584 729.294 545.753 719.941 590.675 713.849C637.289 707.532 686.892 704.729 736.755 705.358C775.243 705.846 813.843 708.38 851.309 712.918C888.145 717.382 923.918 723.788 957.445 732.101L958.408 732.339L958.153 733.299C955.085 744.783 950.305 764.948 947.904 786.816C945.507 808.627 945.47 832.138 951.857 850.376C956.351 863.202 961.977 870.483 968.095 873.927C974.13 877.317 980.71 876.978 987.181 874.562L988.876 873.93L988.467 875.694C985.196 889.769 983.351 906.002 985.187 923.007C987.02 939.995 992.531 957.773 1003.96 974.965L1015.76 992.714L1023.66 972.894C1033.57 948.058 1050.14 920.091 1071.99 900.242C1089.22 884.587 1109.74 873.971 1132.87 873.887C1139.29 873.864 1145.57 874.677 1151.59 876.277C1157.66 877.892 1163.45 880.304 1168.84 883.464C1174.26 886.644 1179.3 890.6 1183.8 895.279C1188.19 899.846 1192.07 905.097 1195.3 910.983C1203.01 925.009 1207.18 942.664 1206.25 963.426C1205.41 982.123 1200.42 1003.35 1190.17 1026.71C1183.54 1041.82 1173.96 1056.05 1162.56 1068.42C1150.92 1081.06 1137.36 1091.77 1123.06 1099.55C1116.79 1102.95 1110.39 1105.78 1103.96 1107.94C1097.69 1110.05 1091.41 1111.51 1085.22 1112.25C1079.08 1112.99 1073 1113.01 1067.11 1112.22C1061.43 1111.47 1055.92 1109.98 1050.68 1107.66C1044.1 1104.76 1037.85 1100.52 1032.09 1094.81C1026.9 1089.67 1022.11 1083.32 1017.85 1075.67C1014.57 1079.21 1012.73 1083.42 1012.2 1087.93C1011.59 1093.13 1012.72 1098.76 1015.37 1104.22L1015.59 1104.66L1015.35 1105.1C995.946 1140.9 962.04 1171.6 919.61 1195.68C874.8 1221.12 820.451 1239.18 763.628 1248.07C733.784 1252.74 703.293 1254.86 673.174 1254.16C644.018 1253.49 615.197 1250.18 587.636 1244.01C509.61 1226.53 453.297 1187.52 418.492 1134.46C382.997 1080.35 369.889 1011.65 378.938 936.275C376.918 942.003 375.099 947.67 373.473 953.283C371.041 961.677 369.036 969.978 367.44 978.176L366.776 981.592L365.57 978.326C361.806 968.12 356.198 958.758 349.289 951.04C341.498 942.333 332.054 935.709 321.751 932.311C311.482 928.927 300.345 928.743 289.128 932.903C283.42 935.02 277.685 938.26 272.031 942.773C279.624 940.796 286.943 940.567 293.86 941.764C302.837 943.321 311.132 947.288 318.482 952.982L320.485 954.533L317.961 954.725C310.382 955.305 303.393 958.793 298.151 964.035C293.986 968.203 290.924 973.486 289.547 979.305C288.172 985.119 288.475 991.473 291.039 997.801C293.989 1005.09 299.93 1012.35 309.735 1018.73C307.119 1013.91 305.845 1009.09 305.67 1004.49C305.475 999.235 306.721 994.262 309.053 989.905C311.379 985.55 314.787 981.804 318.909 978.981C323.813 975.62 329.742 973.557 336.084 973.319L336.359 973.307L336.6 973.448C344.273 977.872 350.483 987.989 354.94 1000.07C359.681 1012.93 362.465 1028.07 362.912 1040.91L363.118 1040.54L363.361 1043.72C363.94 1051.24 364.888 1058.62 366.186 1065.83C367.503 1073.16 369.185 1080.35 371.207 1087.37L371.545 1088.55L370.327 1088.62C358.38 1089.3 346.917 1087.87 336.135 1084.7C324.701 1081.34 314.031 1076.03 304.364 1069.23C292.047 1060.57 281.314 1049.53 272.627 1037.05C263.759 1024.29 257.016 1010.02 252.891 995.239C249.511 983.111 248.225 971.159 248.726 959.821C249.259 947.834 251.791 936.525 255.953 926.422C258.729 919.686 262.229 913.499 266.334 908.027C270.435 902.555 275.147 897.789 280.352 893.903C285.502 890.054 291.156 887.052 297.189 885.067C303.006 883.154 309.19 882.18 315.624 882.298C342.552 882.795 361.336 899.74 379.892 916.475L383.174 919.431L383.2 919.365L383.188 919.445L383.761 919.959C379.316 889.157 380.928 861.941 385.113 839.268Z" fill="#F6B18B"/>
<path fill-rule="evenodd" clip-rule="evenodd" d="M376.093 944.709L383.761 919.959L383.188 919.445L383.2 919.365L383.174 919.431L379.892 916.475C361.336 899.74 342.552 882.795 315.624 882.298C309.19 882.18 303.006 883.154 297.189 885.067C291.156 887.052 285.502 890.054 280.352 893.903C275.147 897.789 270.435 902.555 266.334 908.027C262.229 913.499 258.729 919.686 255.953 926.422C251.791 936.525 249.259 947.834 248.726 959.821C248.225 971.159 249.511 983.111 252.891 995.239C257.016 1010.02 263.759 1024.29 272.627 1037.05C281.314 1049.53 292.047 1060.57 304.364 1069.23C314.031 1076.03 324.701 1081.34 336.135 1084.7C346.917 1087.87 358.38 1089.3 370.327 1088.62L371.545 1088.55L371.207 1087.37C230.629 1055.82 239.151 888.077 310.751 898.094C345.173 902.911 376.085 944.74 376.085 944.74L376.093 944.709ZM853.18 1225.65C824.828 1235.66 794.595 1243.22 763.628 1248.07C733.784 1252.74 703.293 1254.86 673.174 1254.16C644.018 1253.49 615.197 1250.18 587.636 1244.01C509.61 1226.53 453.297 1187.52 418.492 1134.46C386.975 1086.41 373.109 1026.86 376.732 961.349C377.213 957.908 377.738 954.877 378.305 952.381C378.305 952.381 388.447 1146.62 549.958 1215.26C711.468 1283.9 866.021 1219.87 866.021 1219.87C866.021 1219.87 861.349 1222.1 853.18 1225.65ZM1034.6 949.52C1044.21 931.691 1056.83 914.013 1071.99 900.242C1089.22 884.587 1109.74 873.971 1132.87 873.887C1139.29 873.864 1145.57 874.677 1151.59 876.277C1157.66 877.892 1163.45 880.304 1168.84 883.464C1174.26 886.644 1179.3 890.6 1183.8 895.279C1188.19 899.846 1192.07 905.097 1195.3 910.983C1203.01 925.009 1207.18 942.664 1206.25 963.426C1205.41 982.123 1200.42 1003.35 1190.17 1026.71C1188.14 1031.32 1185.84 1035.85 1183.3 1040.27L1182.02 1040.54C1236.1 885.857 1116.26 834.862 1034.12 952.496L1034.6 949.52ZM385.113 839.268C392.873 797.217 409.538 770.681 412.777 765.83L412.162 765.29L413.422 764.632C420.21 761.078 427.262 757.698 434.521 754.498C434.521 754.498 381.252 830.642 383.761 919.959C379.316 889.157 380.928 861.941 385.113 839.268Z" fill="#FDE5D9"/>
<path fill-rule="evenodd" clip-rule="evenodd" d="M623.369 1039.45L609.711 1052.39C622.111 1069.51 641.122 1075.4 660.325 1070.39C679.527 1065.37 687.33 1044.51 662.725 1049.12C638.123 1053.74 623.369 1039.45 623.369 1039.45ZM282.89 941.093C286.642 940.912 290.303 941.147 293.86 941.765C302.837 943.322 311.132 947.289 318.482 952.982L320.485 954.533L317.961 954.726C310.382 955.306 303.393 958.793 298.151 964.036C293.986 968.204 290.924 973.486 289.547 979.306C288.172 985.12 288.475 991.474 291.039 997.802C293.989 1005.09 299.93 1012.35 309.735 1018.73L309.503 1018.3C311.279 1020.51 312.673 1021.68 312.673 1021.68C262.229 1002.81 259.433 948.912 282.89 941.093ZM621.077 930.95C621.077 930.95 620.816 869.005 581.981 825.644C581.981 825.644 595.959 822.582 602.049 826.322C602.049 826.322 579.444 793.929 547.414 781.885C515.388 769.837 408.905 785.343 413.101 889.506L621.077 930.95ZM412.162 765.29L413.422 764.632C421.58 760.367 430.11 756.345 438.932 752.588C447.866 748.785 457.118 745.243 466.602 741.988C503.584 729.295 545.753 719.942 590.675 713.849C637.289 707.533 686.892 704.729 736.755 705.358C775.243 705.847 813.843 708.38 851.309 712.919C888.145 717.383 923.918 723.788 957.445 732.101L958.408 732.34L958.153 733.299C955.085 744.783 950.305 764.948 947.904 786.817C945.507 808.628 945.47 832.139 951.857 850.377C956.351 863.202 961.977 870.484 968.095 873.928C974.13 877.318 980.71 876.979 987.181 874.563L988.876 873.931L988.467 875.695C985.196 889.77 983.351 906.002 985.187 923.008C987.02 939.996 992.531 957.774 1003.96 974.965L1015.12 991.758L1015.97 994.794C1015.97 994.794 1014.59 1020.9 1022.4 1041.06C1022.4 1041.06 1041.75 917.981 1122.77 909.406C1180.41 903.305 1190.06 957.696 1178.78 1005.39C1159.93 1085.12 1048.57 1138.81 1018.08 1074.05C1018.08 1074.05 1018.09 1074.91 1018.28 1076.43L1017.85 1075.67C1014.57 1079.21 1012.73 1083.42 1012.2 1087.93C1011.59 1093.13 1012.72 1098.76 1015.37 1104.22L1015.59 1104.66L1015.35 1105.1C995.946 1140.9 962.04 1171.6 919.61 1195.69C904.492 1204.27 888.285 1212.01 871.268 1218.84C997.956 1148.29 941.256 983.876 865.227 1010.03C808.04 1029.71 751.4 1015.44 751.4 1015.44C699.062 995.343 664.192 909.487 719.256 826.322C719.256 826.322 723.017 775.114 792.773 777.369C862.532 779.627 897.829 834.365 897.829 834.365C897.829 834.365 897.185 757.285 750.266 725.365C603.347 693.443 412.162 765.29 412.162 765.29Z" fill="#D46D6F"/>
<path fill-rule="evenodd" clip-rule="evenodd" d="M588.512 850.279C569.619 830.174 543.456 817.346 513.403 817.346C490.691 817.346 470.205 824.671 453.403 836.925C435.538 849.951 421.826 868.554 414.015 889.845L413.834 890.339L389.923 895.949L406.705 930.735V930.953C406.705 960.991 417.048 984.916 434.693 1001.49C453.051 1018.73 479.343 1028.05 510.146 1028.05C541.147 1028.05 569.725 1018.56 589.967 1000.67C608.534 984.252 620.1 960.735 620.1 930.953C620.1 900.332 608.282 871.32 588.512 850.279Z" fill="#E8BD98"/>
<path fill-rule="evenodd" clip-rule="evenodd" d="M602.098 824.84C605.151 821.416 616.697 806.597 617.978 777.033L604.541 780.403L593.347 753.358C580.412 749.793 567.344 747.303 554.509 746.016C525.51 743.106 497.694 746.346 475.232 757.256C452.847 768.128 435.761 786.647 428.125 814.318C426.661 819.627 425.541 825.28 424.796 831.28C429.013 826.42 433.719 821.902 438.814 817.771C459.109 801.306 485.704 790.821 512.624 788.876C539.58 786.932 566.875 793.544 588.521 811.282C593.35 815.24 597.901 819.75 602.098 824.84Z" fill="#E8BD98"/>
<path fill-rule="evenodd" clip-rule="evenodd" d="M578.922 993.007C561.367 1008.97 536.742 1017.68 510.146 1017.68C483.719 1017.68 461.346 1009.15 445.66 993.834C430.282 978.816 421.353 957.301 421.353 930.952C421.353 905.054 431.003 882.749 447.347 866.921C463.677 851.102 486.681 841.761 513.403 841.761C540.121 841.761 563.128 851.102 579.461 866.921C595.802 882.749 605.452 905.054 605.452 930.952C605.452 957.086 595.246 978.164 578.922 993.007ZM875.642 993.834C859.957 1009.15 837.586 1017.68 811.157 1017.68C784.564 1017.68 759.939 1008.97 742.383 993.007C726.059 978.164 715.851 957.086 715.851 930.952C715.851 905.054 725.501 882.749 741.845 866.921C758.174 851.102 781.181 841.761 807.903 841.761C834.622 841.761 857.625 851.102 873.958 866.921C890.299 882.749 899.952 905.054 899.952 930.952C899.952 957.301 891.021 978.816 875.642 993.834Z" fill="white"/>
<path fill-rule="evenodd" clip-rule="evenodd" d="M419.781 608.699C426.06 612.967 432.742 616.581 439.797 619.439L442.094 620.373L439.783 621.257C416.361 630.231 395.015 640.48 376.311 652.004C358.354 663.069 342.838 675.312 330.264 688.727C328.9 690.18 327.574 691.631 326.288 693.078C325.013 694.503 323.804 695.905 322.653 697.275L321.579 698.556L320.997 696.985C317.457 687.394 314.848 676.294 313.249 664.485C309.798 638.966 311.067 610.1 317.806 585.9C324.589 561.541 336.932 541.864 355.605 534.93C358.475 533.864 361.5 533.1 364.682 532.666L365.472 532.56L365.73 533.321C369.735 545.067 374.833 556.218 380.94 566.453C386.895 576.429 393.824 585.543 401.646 593.495C407.258 599.196 413.313 604.301 419.781 608.699Z" fill="#935C29"/>
<path fill-rule="evenodd" clip-rule="evenodd" d="M349.065 812.801C355.063 805.864 362.052 799.185 369.875 792.814L372.562 790.625L371.405 793.894C368.027 803.434 365.06 814.619 363.112 827.52C361.162 840.431 360.233 855.055 360.938 871.449L361.044 873.919L359.285 872.184C353.797 866.772 348.644 860.068 344.462 853.722C339.114 845.605 335.331 838.019 334.443 834.419L334.354 834.06L334.529 833.727C338.353 826.529 343.245 819.54 349.065 812.801Z" fill="#3B2015"/>
<path fill-rule="evenodd" clip-rule="evenodd" d="M1009.75 886.211C1014.07 860.855 1023.54 837.378 1029.02 825.231C1019.64 836.126 1007.9 843.712 997.616 847.334C993.288 848.86 989.197 849.687 985.631 849.77C981.973 849.854 978.848 849.153 976.545 847.616C974.881 846.507 973.65 844.973 972.959 843C968.688 830.803 967.947 815.369 968.969 799.855C970.545 775.892 976.319 751.706 979.742 739.035L980 738.079L980.945 738.349C986.422 739.906 991.81 741.514 997.092 743.166C1002.35 744.809 1007.55 746.515 1012.68 748.273C1050.47 761.243 1083.62 777.013 1109.76 795.48C1134.29 812.804 1152.66 832.518 1162.95 854.536L1163.89 856.552L1161.78 855.88C1157.17 854.415 1152.42 853.306 1147.58 852.571C1142.74 851.839 1137.83 851.477 1132.87 851.494C1108.21 851.586 1086.41 860.623 1067.72 874.681C1045 891.772 1026.87 916.292 1013.78 941.205L1012.73 943.201L1012 941.067C1006.19 924.165 1006.61 904.675 1009.75 886.211Z" fill="#5F2E15"/>
<path fill-rule="evenodd" clip-rule="evenodd" d="M561.776 592.679C525.628 583.729 488.907 557.046 458.37 504.571C459.452 524.515 464.542 541.856 472.588 556.589C481.961 573.758 495.354 587.403 511.1 597.517L513.005 598.743L510.808 599.286C508.23 599.921 505.769 600.544 503.432 601.147C501.16 601.733 498.729 602.377 496.142 603.078L496.053 603.095C480.657 605.786 466.476 604.672 453.703 600.55C439.949 596.112 427.833 588.19 417.584 577.774C410.311 570.386 403.932 561.737 398.524 552.171C392.985 542.37 388.462 531.598 385.047 520.229C381.607 508.776 379.29 496.729 378.187 484.458C377.102 472.356 377.193 460.044 378.545 447.879C380.439 430.848 384.81 414.082 391.876 398.559C398.496 384.015 407.484 370.56 419.016 359.004L421.176 356.841L420.66 359.86C417.063 380.982 417.601 402.189 422.886 422.392C427.506 440.043 435.75 456.936 448.023 472.347C446.763 467.915 445.643 463.506 444.655 459.122C431.573 401.017 441.942 346.992 469.283 303.298C496.617 259.624 540.915 226.283 595.699 209.522C601.903 207.626 608.245 205.937 614.704 204.475L617.666 203.806L615.646 206.075C591.637 233.059 577.963 264.522 571.082 296.269C562.446 336.128 564.512 376.446 570.286 408.937C578.664 385.058 587.613 363.551 600.709 344.234C614.458 323.954 632.758 306.107 659.729 290.498L661.998 289.185L661.13 291.661C656.418 305.145 653.493 318.131 652.007 330.544C650.371 344.174 650.466 357.114 651.82 369.271L651.823 369.354C651.909 372.511 652.244 375.757 652.843 379.083C653.43 382.352 654.272 385.716 655.384 389.16L655.404 389.22C661.376 413.194 673.252 437.013 689.092 454.394C702.382 468.981 718.463 479.029 736.167 480.798C730.092 474.746 710.975 454.676 695.433 427.353C686.05 410.856 677.961 391.702 674.81 371.365L674.798 371.218C674.712 358.005 682.632 346.813 696.304 338.179C713.307 327.438 739.281 320.633 769.775 318.824C800.206 317.02 835.177 320.18 870.254 329.354C944.47 348.767 1019.19 395.12 1052.52 478.345C1051.62 462.294 1052.12 444.53 1057.48 429.125C1063.6 411.502 1076.05 397.002 1099.91 391.685L1101.57 391.314L1101.05 392.934C1096.98 405.418 1092.77 423.136 1092.3 443.835C1091.96 458.947 1093.61 475.665 1098.77 493.098L1099.11 494.267L1097.9 494.348C1083.47 495.284 1069 498.921 1055.17 505.565C1042.17 511.807 1029.73 520.714 1018.43 532.541L1017.1 533.928L1016.77 532.032C1001.7 446.279 921.131 420.82 897.772 415.187C929.435 433.212 951.259 454.139 966.297 474.347C994.207 511.861 998.758 546.958 999.495 556.549L999.518 556.865L999.346 557.141C997.747 559.671 996.181 562.3 994.654 565.017C994.064 566.066 993.482 567.126 992.909 568.194L994.763 566.482C996.753 564.661 998.77 562.866 1000.81 561.099L1000.92 560.999L1001.05 560.944C1007.23 558.204 1013.78 556.224 1020.44 555.067C1034.19 552.68 1048.37 553.806 1060.64 558.962C1072.96 564.141 1083.35 573.373 1089.43 587.173C1090.76 590.186 1091.88 593.418 1092.78 596.873C1094.14 579.865 1089.1 566.379 1080.06 556.563C1070.94 546.656 1057.73 540.451 1042.92 538.099C1040.94 537.786 1038.89 537.536 1036.8 537.358L1033.67 537.091L1036.4 535.537C1064.46 519.568 1090.03 515.099 1112.06 518.833C1132.15 522.24 1149.28 532.48 1162.63 547.047C1175.95 561.582 1185.51 580.437 1190.51 601.113C1197.98 631.949 1195.33 666.859 1179.93 697.569L1179.26 698.893L1178.31 697.755C1175.28 694.119 1171.87 690.41 1168.05 686.599C1164.21 682.778 1159.95 678.849 1155.22 674.781C1142.27 663.639 1127.16 653.421 1110.24 644.132C1092.7 634.506 1073.21 625.868 1052.16 618.219C1020.55 606.729 985.322 597.405 947.853 590.246C909.058 582.838 867.862 577.748 825.791 574.985L822.875 574.792L825.321 573.192C850.123 556.983 857.058 535.652 858.888 527.304C843.243 545.754 823.095 556.744 803.821 563.268C783.607 570.107 764.347 572.035 752.257 572.514L744.826 572.523L739.585 572.563C731.885 572.626 724.171 572.773 716.463 572.994C708.796 573.215 701.113 573.514 693.431 573.887L691.329 573.991L692.618 572.319C700.065 562.662 706.011 551.505 709.996 538.852C713.104 528.984 715.02 518.207 715.524 506.527C706.097 535.594 683.518 562.354 654.332 578.929C640.87 586.572 625.998 592.059 610.364 594.607C594.719 597.158 578.306 596.773 561.776 592.679Z" fill="#5F2E15"/>
<path fill-rule="evenodd" clip-rule="evenodd" d="M1004.55 745.55C1007.28 746.443 1009.99 747.351 1012.68 748.273C1050.47 761.243 1083.62 777.013 1109.76 795.48C1134.29 812.804 1152.66 832.518 1162.95 854.536L1163.89 856.552L1161.78 855.88C1157.17 854.415 1152.42 853.306 1147.58 852.571C1142.74 851.838 1137.83 851.476 1132.87 851.494C1108.21 851.586 1086.41 860.622 1067.72 874.68C1056.88 882.838 1047.08 892.691 1038.37 903.469C1031.68 855.929 1056.03 789.514 1056.03 789.514C1056.03 789.514 1003.47 839.82 993.328 822.694C985.324 809.176 998.598 763.989 1004.55 745.55Z" fill="#3B2015"/>
<path fill-rule="evenodd" clip-rule="evenodd" d="M858.281 528.017C867.112 510.167 861.131 491.912 861.131 491.912C823.488 553.588 729.806 553.392 704.837 552.183C701.443 559.496 697.329 566.209 692.618 572.322L691.329 573.994L693.431 573.891C701.113 573.517 708.796 573.218 716.463 572.997C724.171 572.776 731.885 572.63 739.585 572.566L744.826 572.526L752.257 572.518C764.347 572.038 783.607 570.11 803.821 563.271C822.849 556.834 842.722 546.039 858.281 528.017ZM1090.44 634.069C1065.22 570.401 989.395 572.871 989.395 572.871C976.239 525.604 920.114 504.824 920.114 504.824C943.324 541.744 942.525 572.245 942.525 572.245C918.696 549.012 870.037 542.842 853.916 541.403C849.238 551.083 840.725 563.127 825.321 573.195L822.875 574.795L825.791 574.988C867.862 577.751 909.058 582.841 947.853 590.249C985.322 597.408 1020.55 606.732 1052.16 618.222C1065.6 623.102 1078.39 628.385 1090.44 634.069ZM1086.31 581.101C1087.45 583.019 1088.49 585.042 1089.43 587.176C1090.76 590.189 1091.88 593.421 1092.78 596.876C1094.09 580.492 1089.46 567.376 1081.04 557.661C1097.93 561.568 1125.3 571.334 1136.55 594.699C1148.36 619.244 1150.29 652.919 1150.39 670.751C1138.56 661.166 1125.1 652.293 1110.24 644.135C1105.58 641.578 1100.78 639.091 1095.86 636.675C1096.34 623.467 1095.43 601.139 1086.31 581.101ZM419.781 608.7C426.059 612.968 432.742 616.582 439.797 619.44L442.094 620.373L439.783 621.258C416.361 630.232 395.015 640.481 376.311 652.005C371.545 654.941 366.953 657.963 362.539 661.062C356.673 618.883 375.647 587.365 385.744 573.997C390.53 581.055 395.843 587.595 401.646 593.495C407.258 599.197 413.313 604.302 419.781 608.7ZM561.776 592.682C525.668 583.743 488.993 557.109 458.473 504.75C458.055 503.391 457.633 502.038 457.238 500.65C516.327 582.138 656.819 574.876 716.627 499.137C716.627 499.137 716.223 502.328 715.283 507.266C705.713 536.048 683.271 562.498 654.332 578.932C640.87 586.576 625.998 592.062 610.364 594.61C594.719 597.161 578.306 596.776 561.776 592.682Z" fill="#3B2015"/>
<path fill-rule="evenodd" clip-rule="evenodd" d="M333.417 685.449C332.346 686.535 331.295 687.626 330.264 688.727C328.9 690.18 327.574 691.631 326.288 693.078C325.013 694.503 323.804 695.905 322.653 697.275L321.579 698.556L320.997 696.985C317.457 687.394 314.848 676.294 313.249 664.485C309.798 638.966 311.067 610.1 317.806 585.9C324.589 561.541 336.932 541.864 355.605 534.93C358.475 533.864 361.5 533.1 364.682 532.666L365.472 532.56L365.73 533.321C367.609 538.831 369.729 544.214 372.08 549.428C352.374 561.073 309.809 597.358 333.417 685.449Z" fill="#B0895C"/>
<path fill-rule="evenodd" clip-rule="evenodd" d="M1058.83 542.387C1053.84 540.419 1048.5 538.986 1042.92 538.101C1040.94 537.788 1038.89 537.538 1036.8 537.36L1033.67 537.093L1036.4 535.539C1064.46 519.571 1090.03 515.101 1112.06 518.835C1132.15 522.242 1149.28 532.482 1162.63 547.049C1175.95 561.584 1185.51 580.439 1190.51 601.115C1197.98 631.951 1195.33 666.861 1179.93 697.571L1179.69 698.03L1178.58 698.079V698.076C1178.59 698.022 1190.98 610.448 1151.52 564.649C1119.71 527.726 1074.99 537.285 1058.83 542.387ZM901.333 417.255C895.26 414.319 891.571 412.872 891.571 412.872C974.239 476.273 989.395 572.87 989.395 572.87C1050.64 546.38 1093.05 602.787 1093.05 602.787C1092.73 598.826 1092.07 595.086 1091.16 591.55C1090.63 590.042 1090.05 588.585 1089.43 587.175C1083.35 573.375 1072.96 564.143 1060.64 558.964C1048.37 553.808 1034.19 552.682 1020.44 555.069C1013.78 556.227 1007.23 558.206 1001.05 560.946L1000.92 561.001L1000.81 561.101C998.77 562.868 996.753 564.663 994.763 566.484L992.909 568.196C993.482 567.128 994.064 566.068 994.654 565.019C996.181 562.302 997.747 559.674 999.346 557.143L999.518 556.867L999.495 556.551C998.758 546.96 994.207 511.864 966.297 474.349C951.832 454.908 931.082 434.803 901.333 417.255ZM682.589 400.284C679.092 391.046 676.357 381.349 674.81 371.367L674.798 371.22C674.712 358.007 682.632 346.816 696.304 338.181C713.307 327.441 739.281 320.636 769.775 318.826C800.206 317.022 835.177 320.182 870.254 329.357C944.47 348.769 1019.19 395.122 1052.52 478.347C1051.62 462.296 1052.12 444.532 1057.48 429.127C1063.6 411.504 1076.05 397.004 1099.91 391.687L1101.57 391.316L1101.05 392.937C1096.98 405.42 1092.77 423.138 1092.3 443.837C1091.96 458.949 1093.61 475.667 1098.77 493.101L1099.11 494.27L1097.9 494.35C1093.07 494.663 1088.25 495.278 1083.44 496.206C1080.14 480.421 1075.18 448.373 1081.19 418.485C1081.19 418.485 1059.2 431.149 1053.93 484.687C1053.93 484.687 968.751 368.808 858.917 345.354C749.083 321.903 694.13 349.28 682.589 400.284ZM447.843 471.712C449.344 474.849 450.295 476.638 450.295 476.638C432.948 307.712 562.406 250.552 562.406 250.552C507.488 395.915 583.717 498.242 583.717 498.242C577.734 401.25 628.731 338.132 628.731 338.132C610.725 476.572 738.768 481.978 738.768 481.978C737.743 481.596 736.735 481.183 735.735 480.754C718.202 478.867 702.273 468.865 689.092 454.397C673.252 437.015 661.376 413.196 655.404 389.222L655.384 389.162C654.272 385.718 653.43 382.354 652.843 379.085C652.244 375.759 651.909 372.513 651.823 369.356L651.82 369.273C650.466 357.116 650.371 344.176 652.007 330.546C653.493 318.134 656.418 305.147 661.13 291.664L661.998 289.188L659.729 290.5C632.758 306.11 614.458 323.956 600.709 344.236C587.613 363.554 578.664 385.06 570.286 408.939C564.512 376.448 562.446 336.13 571.082 296.271C577.963 264.524 591.637 233.062 615.646 206.077L617.666 203.808L614.704 204.478C608.245 205.94 601.903 207.629 595.699 209.524C540.915 226.286 496.617 259.627 469.283 303.3C441.942 346.994 431.573 401.02 444.655 459.125C445.595 463.298 446.657 467.495 447.843 471.712ZM511.948 598.065L513.005 598.745L510.808 599.288C508.23 599.923 505.769 600.546 503.432 601.15C501.16 601.736 498.729 602.379 496.142 603.08L496.053 603.097C480.657 605.789 466.476 604.674 453.703 600.552C439.949 596.114 427.833 588.192 417.584 577.776C410.311 570.388 403.932 561.739 398.524 552.174C392.985 542.373 388.462 531.601 385.047 520.231C381.607 508.779 379.29 496.731 378.187 484.46C377.102 472.358 377.193 460.047 378.545 447.882C380.439 430.851 384.81 414.084 391.876 398.561C398.496 384.017 407.484 370.563 419.016 359.007L421.176 356.844L420.66 359.863C418.197 374.331 417.673 388.838 419.285 403.036C408.054 419.909 392.415 453.563 399.616 503.714C410.417 578.957 490.614 602.988 510.576 598.343C511.045 598.231 511.501 598.145 511.948 598.065Z" fill="#B0895C"/>
<path fill-rule="evenodd" clip-rule="evenodd" d="M511.621 998.744C549.869 998.744 581.062 967.462 581.062 929.103C581.062 890.746 549.869 859.462 511.621 859.462C473.37 859.462 442.174 890.746 442.174 929.103C442.174 967.462 473.37 998.744 511.621 998.744Z" fill="#4A389B"/>
<path fill-rule="evenodd" clip-rule="evenodd" d="M575.305 956.9C564.601 981.526 540.119 998.744 511.618 998.744C483.118 998.744 458.636 981.526 447.935 956.9C455.809 929.066 481.339 908.676 511.618 908.676C541.898 908.676 567.428 929.066 575.305 956.9Z" fill="#7042A4"/>
<path fill-rule="evenodd" clip-rule="evenodd" d="M511.621 968.633C533.33 968.633 551.038 950.875 551.038 929.102C551.038 907.331 533.33 889.573 511.621 889.573C489.909 889.573 472.202 907.331 472.202 929.102C472.202 950.875 489.909 968.633 511.621 968.633Z" fill="#100F0D"/>
<path fill-rule="evenodd" clip-rule="evenodd" d="M470.666 933.613C489.382 933.613 504.646 918.308 504.646 899.54C504.646 880.771 489.382 865.466 470.666 865.466C451.953 865.466 436.689 880.771 436.689 899.54C436.689 918.308 451.953 933.613 470.666 933.613Z" fill="white"/>
<path fill-rule="evenodd" clip-rule="evenodd" d="M556.156 963.41C574.872 963.41 590.133 957.268 590.133 949.739C590.133 942.211 574.872 936.069 556.156 936.069C537.441 936.069 522.176 942.211 522.176 949.739C522.176 957.268 537.441 963.41 556.156 963.41Z" fill="white"/>
<path fill-rule="evenodd" clip-rule="evenodd" d="M806.101 998.744C844.352 998.744 875.545 967.462 875.545 929.103C875.545 890.746 844.352 859.462 806.101 859.462C767.853 859.462 736.657 890.746 736.657 929.103C736.657 967.462 767.853 998.744 806.101 998.744Z" fill="#4A389B"/>
<path fill-rule="evenodd" clip-rule="evenodd" d="M869.785 956.9C859.083 981.526 834.601 998.744 806.101 998.744C777.6 998.744 753.119 981.526 742.417 956.9C750.292 929.066 775.822 908.676 806.101 908.676C836.38 908.676 861.91 929.066 869.785 956.9Z" fill="#7042A4"/>
<path fill-rule="evenodd" clip-rule="evenodd" d="M806.101 968.633C827.813 968.633 845.521 950.875 845.521 929.102C845.521 907.331 827.813 889.573 806.101 889.573C784.392 889.573 766.685 907.331 766.685 929.102C766.685 950.875 784.392 968.633 806.101 968.633Z" fill="#100F0D"/>
<path fill-rule="evenodd" clip-rule="evenodd" d="M765.149 933.613C783.865 933.613 799.126 918.308 799.126 899.54C799.126 880.771 783.865 865.466 765.149 865.466C746.436 865.466 731.172 880.771 731.172 899.54C731.172 918.308 746.436 933.613 765.149 933.613Z" fill="white"/>
<path fill-rule="evenodd" clip-rule="evenodd" d="M850.639 963.41C869.355 963.41 884.616 957.268 884.616 949.739C884.616 942.211 869.355 936.069 850.639 936.069C831.923 936.069 816.659 942.211 816.659 949.739C816.659 957.268 831.923 963.41 850.639 963.41Z" fill="white"/>
<path fill-rule="evenodd" clip-rule="evenodd" d="M550.774 1063.02C579.315 1131.78 730.273 1136.98 767.552 1067.88L754.385 1060.46L761.998 1046.84L802.572 1069.69L794.959 1083.31L781.127 1075.52C738.889 1153.35 580.498 1155.03 543.559 1066.02L550.774 1063.02Z" fill="#100F0D"/>
<path fill-rule="evenodd" clip-rule="evenodd" d="M651.236 372.532C648.085 348.386 649.821 321.083 660.213 291.346C606.555 322.401 587.409 362.329 569.994 412.735C558.869 354.024 559.393 267.835 614.919 205.43C489.024 233.939 410.813 346.843 450.295 476.64C350.83 359.853 490.494 152.248 686.643 179.893C629.9 218.853 601.241 245.309 591.465 319.227C626.196 275.289 661.413 259.344 708.544 246.739C687.107 281.879 671.115 315.705 674.71 362.131C679.705 426.627 738.585 481.813 738.768 481.98C693.188 479.581 657.83 423.076 651.236 372.532Z" fill="#100F0D"/>
<path fill-rule="evenodd" clip-rule="evenodd" d="M716.627 499.137C717.833 660.095 461.603 660.646 457.238 500.651C547.789 660.997 694.832 587.647 716.627 499.137Z" fill="#100F0D"/>
<path fill-rule="evenodd" clip-rule="evenodd" d="M1189.63 726.95L1169.64 713.016C1242.35 608.009 1139.8 427.705 989.395 572.869C1075.65 400.022 1323.02 534.32 1189.63 726.95Z" fill="#100F0D"/>
<path fill-rule="evenodd" clip-rule="evenodd" d="M654.458 389.46C613.839 263.55 925.365 240.639 1041.38 410.973C1061.55 368.641 1102.84 363.24 1138.69 366.661C1116.99 408.413 1106.89 448.732 1124.2 496.832L1100.68 502.048C1084.49 457.068 1092.57 415.841 1100.12 392.637C1053.19 403.099 1051.17 449.657 1053.93 484.687C977.582 277.646 648.46 291.729 677.588 382.015L654.458 389.46Z" fill="#100F0D"/>
<path fill-rule="evenodd" clip-rule="evenodd" d="M1197.04 856.868C1193.68 865.275 1189.1 868.697 1183.75 871.793L1170.98 879.187L1166.19 865.158C1149.09 815.047 1090.75 776.096 1012.37 749.198C933.316 722.067 834.607 707.572 736.743 706.331C638.954 705.093 542.178 717.08 466.911 742.91C406.53 763.635 355.694 795.936 335.385 834.186C336.932 840.448 347.596 859.286 359.967 871.489L355.55 877.044L327.554 864.402L312.639 849.445C306.14 843.261 299.005 836.467 299.005 806.872C299.005 751.053 289.363 730.94 329.556 688.059C356.851 658.935 397.874 635.369 447.582 617.304C473.118 608.02 501.014 600.152 530.537 593.695C547.575 601.675 572.142 609.12 601.058 605.938L601.236 605.917C548.216 613.268 498.54 624.701 455.863 640.212C408.206 657.533 369.531 679.775 345.233 706.857C314.976 740.583 323.372 763.56 323.372 806.872C323.372 808.624 323.398 810.238 323.449 811.732C348.653 771.557 397.195 741.06 459.109 719.812C536.899 693.115 636.556 680.72 737.03 681.993C837.429 683.265 938.821 698.179 1020.17 726.097C1091.99 750.746 1148.72 785.782 1176.66 830.938C1176.69 829.461 1176.71 827.884 1176.71 826.189C1176.71 765.195 1189.24 734.301 1139.28 691.774C1115.35 671.405 1082.71 654.204 1044.22 640.212C963.086 610.723 856.671 595.979 750.04 595.979C701.675 595.979 653.353 599.012 607.417 605.079C638.71 600.109 660.485 585.187 672.845 574.107C698.361 572.395 724.206 571.542 750.04 571.542C859.189 571.542 968.562 586.795 1052.5 617.304C1093.97 632.376 1129.4 651.277 1155.85 674.042C1215.21 725.118 1201.07 754.095 1201.07 826.189C1201.07 841.235 1199.58 850.496 1197.04 856.868Z" fill="#100F0D"/>
<path fill-rule="evenodd" clip-rule="evenodd" d="M449.332 337.651C406.413 360.817 384.46 403.468 379.513 447.989C376.804 472.377 379.173 497.304 385.978 519.957C392.684 542.273 403.663 562.246 418.277 577.094C437.967 597.104 464.594 607.806 496.514 602.027L500.797 625.984C460.057 633.363 426.077 619.71 400.953 594.179C383.483 576.427 370.473 552.933 362.66 526.923C354.946 501.254 352.262 472.986 355.338 445.315C361.098 393.46 387.015 343.597 437.818 316.173L449.332 337.651Z" fill="#100F0D"/>
<path fill-rule="evenodd" clip-rule="evenodd" d="M374.461 533.361C306.804 528.417 298.847 663.373 329.393 712.28L308.835 725.166C263.381 652.386 285.433 486.964 380.075 509.688L374.461 533.361Z" fill="#100F0D"/>
<path fill-rule="evenodd" clip-rule="evenodd" d="M381.029 927.765C359.42 1080.45 427.738 1207.19 587.845 1243.06C643.763 1255.58 704.866 1256.28 763.479 1247.11C876.524 1229.42 979.707 1175.37 1017.31 1099.2L1039.11 1109.99C997.873 1193.51 887.446 1252.35 767.191 1271.16C705.722 1280.77 641.517 1280.02 582.612 1266.82C429.107 1232.44 314.521 1101.67 381.029 927.765Z" fill="#100F0D"/>
<path fill-rule="evenodd" clip-rule="evenodd" d="M315.61 883.27C302.74 883.031 290.887 887.242 280.931 894.685C270.662 902.36 262.335 913.485 256.85 926.794C248.83 946.258 246.931 970.24 253.828 994.975C261.931 1024.03 280.212 1051.06 304.92 1068.43C326.569 1083.64 353.256 1091.35 382.361 1086.23L386.548 1110.28C350.606 1116.61 317.692 1107.12 291.025 1088.38C261.659 1067.74 239.979 1035.76 230.415 1001.47C221.991 971.269 224.419 941.719 234.387 917.533C241.557 900.14 252.645 885.444 266.463 875.117C280.59 864.558 297.507 858.586 315.991 858.931C330.072 859.189 344.932 863.116 359.967 871.487C356.347 787.153 395.669 749.759 395.786 749.624L414.064 765.658C413.952 765.784 370.391 827.276 385.119 922.471C364.693 904.342 344.992 883.813 315.61 883.27Z" fill="#100F0D"/>
<path fill-rule="evenodd" clip-rule="evenodd" d="M983.268 730.259C983.205 730.468 960.19 803.605 973.876 842.677C978.848 856.87 1015.06 845.601 1033.98 817.086C1033.88 817.249 995.685 890.63 1012.92 940.75C1036.91 895.085 1077.8 850.726 1132.87 850.519C1149.99 850.455 1166.37 854.85 1180.63 863.212C1194.91 871.586 1207.09 883.92 1215.77 899.71C1233.63 932.204 1236.49 979.327 1211.55 1036.14C1196.09 1071.35 1166.79 1102.41 1134.12 1120.16C1119.2 1128.27 1103.49 1133.67 1087.96 1135.53C1071.89 1137.45 1055.99 1135.6 1041.27 1129.1C1014.05 1117.08 1002.5 1089.1 1018.08 1074.05C1027.06 1090.67 1038.46 1101.2 1051.07 1106.77C1061.6 1111.41 1073.2 1112.71 1085.1 1111.28C1097.54 1109.8 1110.31 1105.36 1122.6 1098.69C1150.73 1083.4 1175.96 1056.65 1189.28 1026.31C1210.79 977.319 1208.97 937.863 1194.45 911.453C1187.98 899.687 1178.94 890.512 1168.35 884.308C1157.73 878.083 1145.56 874.811 1132.87 874.86C1080.91 875.053 1042.17 929.107 1024.56 973.258L1015.97 994.793L1003.15 975.501C980.097 940.827 980.936 903.806 987.519 875.472C974.067 880.496 960.104 876.851 950.941 850.694C934.568 803.964 959.975 723.333 960.046 723.1L983.268 730.259Z" fill="#100F0D"/>
<path fill-rule="evenodd" clip-rule="evenodd" d="M1081.49 1041.2C1077.33 1018.87 1083.02 993.697 1095.18 974.291C1117.26 975.127 1134.21 998.79 1118.62 1021.68C1161.71 996.745 1141.53 955.913 1113.41 953.755C1127.3 942.992 1144.6 938.508 1163.47 945.069C1104.06 891.6 1030.2 984.497 1081.49 1041.2Z" fill="#100F0D"/>
<path fill-rule="evenodd" clip-rule="evenodd" d="M361.998 1044.48C361.998 1019.63 352.328 983.645 336.118 974.293C314.031 975.128 297.083 998.792 312.673 1021.68C269.588 996.747 289.764 955.914 317.889 953.757C303.997 942.994 286.694 938.51 267.826 945.071C327.239 891.602 398.103 981.77 361.998 1044.48Z" fill="#100F0D"/>
<path fill-rule="evenodd" clip-rule="evenodd" d="M513.403 842.735C460.475 842.735 422.327 879.696 422.327 930.95C422.327 983.631 458.33 1016.71 510.146 1016.71C560.974 1016.71 604.478 984.628 604.478 930.95C604.478 879.693 566.331 842.735 513.403 842.735ZM513.403 816.366C575.462 816.366 621.077 870.553 621.077 930.95C621.077 993.774 570.086 1029.03 510.146 1029.03C449.215 1029.03 405.731 992.789 405.731 930.95L388.519 895.273L413.101 889.497V889.505C428.391 847.82 466.123 816.366 513.403 816.366Z" fill="#100F0D"/>
<path fill-rule="evenodd" clip-rule="evenodd" d="M807.903 842.735C860.828 842.735 898.975 879.696 898.975 930.95C898.975 983.631 862.976 1016.71 811.157 1016.71C760.331 1016.71 716.824 984.628 716.824 930.95C716.824 879.693 754.975 842.735 807.903 842.735ZM807.903 816.366C745.843 816.366 700.228 870.553 700.228 930.95C700.228 993.774 751.217 1029.03 811.157 1029.03C872.09 1029.03 915.574 992.789 915.574 930.95L932.786 895.273L908.204 889.497L908.201 889.505C892.911 847.82 855.182 816.366 807.903 816.366Z" fill="#100F0D"/>
<path fill-rule="evenodd" clip-rule="evenodd" d="M423.476 834.366C463.858 784.798 555.337 768.413 602.049 826.323C602.049 826.323 617.843 811.162 619 775.773L605.117 779.254L594.063 752.549C515.542 730.752 432.06 748.286 423.476 834.366Z" fill="#100F0D"/>
<path fill-rule="evenodd" clip-rule="evenodd" d="M897.83 834.366C857.445 784.798 765.968 768.413 719.256 826.323C719.256 826.323 703.462 811.162 702.305 775.773L716.189 779.254L727.242 752.549C805.763 730.752 889.245 748.286 897.83 834.366Z" fill="#100F0D"/>
<path fill-rule="evenodd" clip-rule="evenodd" d="M644.485 1006C583.772 1011.41 597.478 1079.09 655.67 1063.24C620.765 1061.71 611.401 1023.64 644.485 1006Z" fill="#100F0D"/>
<path fill-rule="evenodd" clip-rule="evenodd" d="M739.585 571.591C742.675 571.617 819.323 575.943 860.476 523.838C860.476 523.838 853.678 595.987 738.628 594.304L739.585 571.591Z" fill="#100F0D"/>
<path fill-rule="evenodd" clip-rule="evenodd" d="M998.664 559.171C998.664 559.171 997.432 469.825 891.571 412.872C891.571 412.872 1001.14 430.995 1018.01 533.517L1008.9 545.432L1018.85 536.599C1060.82 532.144 1100.58 555.095 1093.05 602.787C1084.93 555.799 1036.88 546.024 1001.27 561.918L1003.55 549.839L998.664 559.171Z" fill="#100F0D"/>
</g>
<defs>
<linearGradient id="paint0_linear_2_5" x1="0" y1="0" x2="1455" y2="1455" gradientUnits="userSpaceOnUse">
<stop stop-color="#B966FE"/>
<stop offset="1" stop-color="#9537E4"/>
</linearGradient>
<clipPath id="clip0_2_5">
<rect width="1053" height="1149" fill="white" transform="translate(201 153)"/>
</clipPath>
</defs>
</svg>
