<svg width="100" height="100" viewBox="0 0 100 100" fill="none" xmlns="http://www.w3.org/2000/svg">
<rect width="100" height="100" rx="25.4296" fill="url(#paint0_linear_2_5)"/>
<rect x="0.721649" y="0.721649" width="98.5567" height="98.5567" rx="24.7079" stroke="white" stroke-opacity="0.4" stroke-width="1.4433"/>
<g clip-path="url(#clip0_2_5)">
<path fill-rule="evenodd" clip-rule="evenodd" d="M83.8643 59.4009C83.9096 59.4503 83.9541 59.5004 83.998 59.5508C84.3787 59.9892 84.7232 60.483 85.0233 61.0291C85.8046 62.4499 86.2414 64.1902 86.1798 66.1859C86.1263 67.9171 85.7005 69.8345 84.7988 71.8885C84.2027 73.2458 83.3381 74.5292 82.305 75.651L82.3085 75.6541C81.2612 76.7907 80.0357 77.7577 78.7376 78.4633C78.1486 78.7833 77.5255 79.0555 76.8776 79.2711C76.2317 79.4859 75.5921 79.6352 74.9698 79.7094C74.2772 79.7923 73.5772 79.7907 72.8803 79.6948C72.3992 79.6286 71.9279 79.5189 71.4706 79.3629C69.7769 81.6293 67.4036 83.5743 64.6085 85.1332C61.2167 87.0247 57.1794 88.3618 52.9831 89.0183C50.7398 89.3691 48.4471 89.5276 46.181 89.4745C43.9697 89.4226 41.7802 89.1705 39.6822 88.7006C36.2111 87.9232 33.002 86.4699 30.3587 84.4554C28.0948 82.7303 26.2437 80.595 24.9896 78.1184C24.126 78.113 23.288 77.9969 22.4836 77.7855C21.2366 77.4578 20.0814 76.901 19.0465 76.1739C17.8846 75.3572 16.8763 74.3231 16.064 73.1583C15.237 71.9726 14.6094 70.6473 14.2269 69.2756C13.8966 68.0913 13.7733 66.915 13.8263 65.7923C13.8832 64.5925 14.1421 63.4522 14.5653 62.4246C14.8651 61.6971 15.2524 61.0192 15.7132 60.4095C16.1818 59.79 16.7214 59.2479 17.3192 58.8009C17.8892 58.3751 18.5109 58.0328 19.1739 57.7888C18.9922 57.2154 18.8756 56.4729 18.8756 55.4552C18.8756 54.6385 18.8581 54.1372 18.8426 53.681C18.7876 52.083 18.7467 50.891 19.1999 49.5772C18.5664 48.1766 18.1801 46.5305 18.0447 44.8463C17.8752 42.7396 18.0937 40.5279 18.7073 38.6334C19.3747 36.5727 20.5258 34.85 22.1832 33.9237C22.3627 33.8234 22.5468 33.7328 22.7358 33.6525C22.7108 33.3784 22.6922 33.1014 22.6806 32.8217C22.6472 32.0158 22.6728 31.2113 22.7604 30.4222C22.9838 28.4113 23.6055 26.4276 24.6721 24.6681C25.5712 23.1851 26.7797 21.8707 28.3239 20.8425C29.8079 17.6083 32.4937 14.6701 35.9693 12.7645C39.2115 10.9869 43.1409 10.1007 47.4209 10.704C48.3349 10.8308 48.9734 11.6767 48.847 12.5932C48.7796 13.0808 48.5096 13.4903 48.1337 13.7475C46.6226 14.7856 45.4308 15.6734 44.5443 16.6506C45.7013 16.0992 46.9248 15.698 48.2719 15.3377C49.1643 15.1024 50.0782 15.6368 50.3128 16.5318C50.4347 16.9965 50.3494 17.4669 50.1144 17.8448C49.9285 18.15 49.7498 18.4517 49.5809 18.751C52.2563 18.0807 55.5273 18.0071 58.8323 18.6276C63.421 19.4897 68.152 21.6831 71.5145 25.4653C72.2332 24.7629 73.0632 24.2808 73.9499 23.9628C75.4021 23.4419 76.9733 23.3961 78.4177 23.5339C79.3353 23.621 80.0089 24.4375 79.9223 25.3577C79.8991 25.6043 79.8235 25.8333 79.7077 26.0347C79.0734 27.2642 78.6082 28.4642 78.4224 29.6884C78.2836 30.604 78.3049 31.5487 78.5358 32.5522C79.5914 32.833 80.5997 33.2841 81.5163 33.8852C83.0587 34.897 84.3435 36.3374 85.1563 38.1081C85.9647 39.8689 86.3035 41.9406 85.9607 44.2213C85.7018 45.9428 85.0538 47.7828 83.9224 49.6925C84.399 51.1885 84.3439 52.6339 84.273 54.4882C84.249 55.116 84.2226 55.8027 84.2226 56.7829C84.2226 57.3602 84.1901 57.8547 84.1299 58.2904C84.07 58.7224 83.9801 59.0854 83.8643 59.4009Z" fill="white"/>
<path fill-rule="evenodd" clip-rule="evenodd" d="M26.8076 46.033C28.1134 45.2463 29.6303 44.5476 31.308 43.9378C32.2639 43.5905 33.2723 43.2723 34.3239 42.9839C35.3952 42.6899 36.5105 42.4271 37.66 42.1953L37.6753 42.1922L37.6905 42.1963C39.0333 42.5639 40.4659 42.6544 41.8482 42.4678C43.1995 42.2852 44.5026 41.8374 45.6257 41.1249L45.64 41.116L45.6564 41.1147C46.6228 41.0414 47.6006 40.9861 48.5855 40.9492C49.5749 40.9123 50.5644 40.8935 51.5491 40.8935C55.2852 40.8935 59.0179 41.1569 62.5193 41.6832C65.8918 42.1904 69.0501 42.942 71.7902 43.9378C73.1392 44.4282 74.3841 44.976 75.4988 45.5806C76.5764 46.1649 77.5328 46.803 78.344 47.4936C81.1869 49.9138 81.1116 51.7869 80.9932 54.7147C80.9676 55.3457 80.9403 56.0266 80.9403 56.7829C80.9391 56.9675 80.9356 57.1511 80.9312 57.3355L80.8129 57.1444C79.8867 55.6473 78.496 54.312 76.7481 53.1409C74.8903 51.8963 72.6293 50.8375 70.0935 49.9673C67.3427 49.0232 64.258 48.2957 61.0125 47.7901C57.6682 47.2691 54.1522 46.9836 50.6542 46.9394C47.1403 46.895 43.6405 47.094 40.3462 47.5421C37.1749 47.9737 34.1942 48.6365 31.5753 49.5353C29.3954 50.2834 27.4577 51.1986 25.8546 52.2848C24.3396 53.3112 23.1239 54.4904 22.2865 55.825L22.1709 56.0094L22.1634 55.7913L22.1595 55.63L22.1579 55.4552C22.1579 54.8819 22.1371 54.3684 22.1176 53.8911C22.0341 51.8351 21.977 50.432 23.6775 48.5366C24.4984 47.6217 25.5564 46.7868 26.8076 46.033Z" fill="white"/>
<path fill-rule="evenodd" clip-rule="evenodd" d="M23.0986 53.2343C23.7695 52.5705 24.5128 51.9781 25.292 51.4499C27.112 50.2168 29.1767 49.2933 31.2501 48.582C34.1377 47.5911 37.1899 46.955 40.2111 46.5438C43.6667 46.0737 47.1807 45.8878 50.6668 45.932C54.1755 45.9764 57.6993 46.2546 61.1667 46.7945C64.2899 47.2812 67.4262 47.987 70.4189 49.014C72.808 49.8338 75.2017 50.8932 77.306 52.3032C78.2635 52.9446 79.1825 53.6753 79.9961 54.5045C80.1083 51.6574 80.0642 50.2794 77.6938 48.2618C76.8776 47.5668 75.9612 46.9769 75.0208 46.4668C73.8766 45.8463 72.67 45.3294 71.4479 44.8852C68.5361 43.8269 65.4294 43.1396 62.3703 42.6796C59.3735 42.2291 56.3282 41.9865 53.2927 41.9202C51.5838 45.9488 29.2519 43.4139 23.1051 52.1512C23.084 52.4852 23.0865 52.8412 23.0986 53.2343Z" fill="#DCCBE5"/>
<path fill-rule="evenodd" clip-rule="evenodd" d="M48.3385 53.4043C48.4267 55.4362 49.2201 56.4547 49.4299 56.69C49.7185 56.3402 50.0313 56.0303 50.3632 55.7582C51.8509 54.5391 53.7269 54.0847 55.5793 54.2183C57.4295 54.352 59.2574 55.0726 60.6523 56.2042C61.0026 56.4881 61.3258 56.7986 61.6158 57.1327C61.5646 56.7203 61.4876 56.3317 61.3868 55.9669C60.862 54.0651 59.6879 52.7923 58.1492 52.0451C56.6056 51.2953 54.6939 51.0726 52.7008 51.2724C51.8187 51.361 50.9206 51.5322 50.0315 51.7772L49.2622 53.6359L48.3385 53.4043Z" fill="#E8BD98"/>
<path fill-rule="evenodd" clip-rule="evenodd" d="M73.5319 66.8548C72.9909 68.2634 73.0799 69.9439 74.2248 71.3371C74.1272 70.6431 74.1609 69.9168 74.3055 69.2098C74.4717 68.3976 74.7847 67.6099 75.2135 66.9259L75.234 66.8931L75.2723 66.8947C75.708 66.9111 76.1155 67.0528 76.4525 67.2838C76.736 67.4779 76.9701 67.7355 77.1301 68.0346C77.2904 68.3343 77.376 68.6756 77.3624 69.0373C77.3506 69.3532 77.263 69.6843 77.0831 70.0157C77.7572 69.5771 78.1654 69.078 78.3682 68.5773C78.5442 68.1422 78.5653 67.7055 78.4706 67.3061C78.3761 66.9061 78.1655 66.5431 77.8794 66.2568C77.5192 65.8963 77.0386 65.6568 76.5179 65.6168L76.3445 65.6035L76.4821 65.4969C76.987 65.1056 77.5573 64.833 78.1743 64.726C78.6495 64.6437 79.1521 64.6594 79.6736 64.7951C78.459 63.8301 77.1746 63.7318 76.0751 64.1677C75.5084 64.3923 74.9898 64.7588 74.5548 65.2211C74.1187 65.6847 73.7659 66.2444 73.5319 66.8548Z" fill="#E8BD98"/>
<path fill-rule="evenodd" clip-rule="evenodd" d="M50.3638 58.4384C49.0049 59.8845 48.1926 61.8785 48.1926 63.983C48.1926 66.0299 48.9878 67.6462 50.2636 68.7743C51.6551 70.0044 53.6192 70.6565 55.7496 70.6565C57.8669 70.6565 59.6739 70.0161 60.9356 68.8309C62.1483 67.6918 62.859 66.0475 62.859 63.983V63.968L64.0126 61.5772L62.3692 61.1911L62.3568 61.1569C61.8199 59.694 60.8773 58.4157 59.6495 57.5204C58.4947 56.6784 57.0867 56.175 55.526 56.175C53.4605 56.175 51.6622 57.0567 50.3638 58.4384Z" fill="#E8BD98"/>
<path fill-rule="evenodd" clip-rule="evenodd" d="M42.1377 72.5069C42.6341 73.0218 43.4952 73.3195 44.6597 73.0996C44.1327 73.0086 43.707 72.7887 43.3986 72.4913C43.1241 72.2268 42.9422 71.9009 42.8641 71.5498C42.7857 71.1988 42.8111 70.8229 42.9505 70.4589C43.1204 70.0155 43.4592 69.5886 43.986 69.2451C42.7889 69.426 42.079 69.9886 41.7939 70.6344C41.6526 70.9546 41.6156 71.2952 41.6752 71.6193C41.7349 71.9435 41.8918 72.2519 42.1377 72.5069Z" fill="#E8BD98"/>
<path fill-rule="evenodd" clip-rule="evenodd" d="M26.4683 57.6816C27.0016 54.7916 28.1469 52.9678 28.3696 52.6343L28.3272 52.5972L28.4139 52.552C28.9745 52.2588 29.5608 51.9824 30.1671 51.7242C30.7812 51.4628 31.417 51.2194 32.0688 50.9957C34.6105 50.1233 37.5088 49.4805 40.5962 49.0618C43.8 48.6276 47.209 48.435 50.636 48.4782C53.2813 48.5118 55.9342 48.6859 58.5092 48.9978C61.0409 49.3046 63.4995 49.7449 65.8038 50.3162L65.87 50.3326L65.8524 50.3985C65.6416 51.1878 65.313 52.5737 65.1481 54.0767C64.9833 55.5757 64.9807 57.1916 65.4197 58.4451C65.7286 59.3266 66.1152 59.827 66.5357 60.0637C66.9505 60.2967 67.4027 60.2734 67.8475 60.1074L67.964 60.0639L67.9358 60.1852C67.711 61.1525 67.5842 62.2682 67.7104 63.4369C67.8364 64.6045 68.2152 65.8263 69.0005 67.0079L69.8114 68.2278L70.3545 66.8655C71.0355 65.1586 72.1747 63.2365 73.6762 61.8723C74.8605 60.7964 76.2707 60.0667 77.8603 60.061C78.3015 60.0594 78.7336 60.1153 79.1472 60.2252C79.564 60.3362 79.9623 60.502 80.3326 60.7192C80.7054 60.9377 81.0513 61.2096 81.3606 61.5312C81.6624 61.8451 81.9289 62.206 82.1514 62.6105C82.6813 63.5745 82.9676 64.7879 82.9036 66.2148C82.8457 67.4999 82.5034 68.9586 81.7986 70.5641C81.3427 71.6027 80.6847 72.5805 79.901 73.4312C79.101 74.2995 78.1692 75.0359 77.1863 75.5701C76.7553 75.8043 76.3152 75.9989 75.8736 76.1472C75.4429 76.2919 75.0109 76.3928 74.5853 76.4435C74.1632 76.494 73.7459 76.4952 73.3407 76.4415C72.9506 76.3898 72.5718 76.287 72.2117 76.1278C71.7597 75.9282 71.3298 75.6374 70.9341 75.245C70.5776 74.8916 70.2484 74.4553 69.9555 73.9291C69.7297 74.1726 69.6035 74.462 69.5673 74.7715C69.5253 75.1295 69.6031 75.516 69.785 75.8911L69.7997 75.9219L69.7834 75.9521C68.4499 78.4122 66.1196 80.5223 63.2034 82.1777C60.1237 83.9256 56.3884 85.167 52.483 85.778C50.4319 86.0989 48.3363 86.2444 46.2663 86.1966C44.2624 86.1504 42.2815 85.9232 40.3873 85.4989C35.0247 84.2978 31.1544 81.6168 28.7623 77.97C26.3228 74.2509 25.4219 69.529 26.0438 64.3488C25.905 64.7425 25.78 65.132 25.6682 65.5177C25.5011 66.0946 25.3633 66.6652 25.2536 67.2286L25.2079 67.4633L25.1251 67.2389C24.8664 66.5374 24.4809 65.894 24.0061 65.3636C23.4706 64.7652 22.8216 64.3099 22.1134 64.0764C21.4077 63.8438 20.6423 63.8312 19.8714 64.117C19.479 64.2625 19.0849 64.4852 18.6963 64.7954C19.2182 64.6595 19.7211 64.6438 20.1966 64.7261C20.8135 64.8331 21.3837 65.1057 21.8888 65.497L22.0264 65.6036L21.853 65.6168C21.3321 65.6567 20.8517 65.8964 20.4915 66.2567C20.2052 66.5432 19.9948 66.9062 19.9001 67.3062C19.8056 67.7058 19.8265 68.1425 20.0027 68.5774C20.2054 69.0781 20.6137 69.5772 21.2876 70.0158C21.1079 69.6844 21.0203 69.3533 21.0082 69.0374C20.9949 68.6759 21.0805 68.3342 21.2407 68.0347C21.4006 67.7354 21.6349 67.478 21.9181 67.2839C22.2552 67.0529 22.6627 66.9112 23.0985 66.8948L23.1174 66.894L23.134 66.9037C23.6614 67.2077 24.0882 67.903 24.3945 68.7334C24.7203 69.6174 24.9117 70.658 24.9424 71.5401L24.9565 71.5151L24.9733 71.733C25.013 72.2503 25.0782 72.7572 25.1674 73.2528C25.2579 73.7568 25.3735 74.2505 25.5125 74.7334L25.5357 74.8142L25.4521 74.8189C24.6309 74.8661 23.8431 74.7674 23.1021 74.5496C22.3162 74.3186 21.5829 73.9536 20.9185 73.4865C20.072 72.8917 19.3343 72.1328 18.7372 71.2746C18.1277 70.398 17.6643 69.4174 17.3808 68.4013C17.1485 67.5678 17.0601 66.7463 17.0946 65.9671C17.1312 65.1432 17.3052 64.366 17.5913 63.6716C17.782 63.2087 18.0226 62.7834 18.3047 62.4073C18.5866 62.0313 18.9105 61.7037 19.2682 61.4366C19.6221 61.1721 20.0107 60.9658 20.4253 60.8293C20.8252 60.6979 21.2502 60.6309 21.6923 60.639C23.5431 60.6732 24.8341 61.8378 26.1094 62.988L26.335 63.1911L26.3368 63.1866L26.336 63.1921L26.3753 63.2274C26.0698 61.1105 26.1806 59.2399 26.4683 57.6816Z" fill="#F6B18B"/>
<path fill-rule="evenodd" clip-rule="evenodd" d="M25.8483 64.9284L26.3753 63.2274L26.336 63.1921L26.3368 63.1866L26.335 63.1911L26.1094 62.988C24.8341 61.8378 23.5431 60.6732 21.6923 60.639C21.2502 60.6309 20.8252 60.6979 20.4253 60.8294C20.0107 60.9658 19.6221 61.1721 19.2682 61.4366C18.9105 61.7037 18.5866 62.0313 18.3047 62.4074C18.0226 62.7834 17.782 63.2087 17.5913 63.6716C17.3052 64.366 17.1312 65.1432 17.0946 65.9671C17.0601 66.7463 17.1485 67.5678 17.3808 68.4013C17.6643 69.4174 18.1277 70.398 18.7372 71.2746C19.3343 72.1328 20.072 72.8917 20.9185 73.4865C21.5829 73.9536 22.3162 74.3187 23.1021 74.5496C23.8431 74.7674 24.6309 74.8661 25.4521 74.8189L25.5357 74.8142L25.5125 74.7334C15.8508 72.5649 16.4365 61.0362 21.3575 61.7247C23.7232 62.0557 25.8477 64.9306 25.8477 64.9306L25.8483 64.9284ZM58.6378 84.2374C56.6892 84.9248 54.6113 85.445 52.483 85.778C50.4319 86.0989 48.3363 86.2444 46.2663 86.1966C44.2624 86.1504 42.2815 85.9232 40.3873 85.4989C35.0247 84.2978 31.1544 81.6168 28.7623 77.97C26.5962 74.6677 25.6432 70.5745 25.8922 66.0721C25.9253 65.8356 25.9613 65.6273 26.0003 65.4558C26.0003 65.4558 26.6974 78.8053 37.7978 83.5229C48.8981 88.2405 59.5203 83.8396 59.5203 83.8396C59.5203 83.8396 59.1992 83.9933 58.6378 84.2374ZM71.1065 65.2591C71.7672 64.0337 72.6344 62.8188 73.6762 61.8723C74.8605 60.7964 76.2707 60.0667 77.8603 60.061C78.3015 60.0594 78.7336 60.1153 79.1472 60.2252C79.564 60.3362 79.9623 60.502 80.3326 60.7192C80.7054 60.9377 81.0513 61.2096 81.3606 61.5312C81.6624 61.8451 81.9289 62.206 82.1514 62.6105C82.6813 63.5745 82.9676 64.7879 82.9036 66.2148C82.8457 67.4999 82.5034 68.9586 81.7986 70.5641C81.6594 70.8811 81.5011 71.1925 81.3265 71.4963L81.2387 71.5147C84.9551 60.8836 76.7191 57.3788 71.0733 65.4637L71.1065 65.2591ZM26.4683 57.6816C27.0016 54.7916 28.1469 52.9678 28.3696 52.6343L28.3272 52.5972L28.4139 52.552C28.8804 52.3078 29.3651 52.0754 29.864 51.8555C29.864 51.8555 26.2029 57.0888 26.3753 63.2274C26.0698 61.1105 26.1806 59.2399 26.4683 57.6816Z" fill="#FDE5D9"/>
<path fill-rule="evenodd" clip-rule="evenodd" d="M42.8432 71.4401L41.9045 72.3295C42.7568 73.5057 44.0633 73.9108 45.3831 73.5661C46.7029 73.2214 47.2391 71.7875 45.5481 72.1048C43.8572 72.4219 42.8432 71.4401 42.8432 71.4401ZM19.4426 64.6799C19.7005 64.6675 19.9521 64.6837 20.1966 64.7261C20.8135 64.8331 21.3836 65.1058 21.8888 65.4971L22.0264 65.6037L21.853 65.6169C21.3321 65.6568 20.8517 65.8964 20.4915 66.2567C20.2052 66.5432 19.9948 66.9063 19.9001 67.3062C19.8056 67.7058 19.8265 68.1425 20.0026 68.5774C20.2054 69.0781 20.6137 69.5772 21.2876 70.0159L21.2716 69.9861C21.3937 70.1379 21.4896 70.2182 21.4896 70.2182C18.0226 68.9214 17.8305 65.2173 19.4426 64.6799ZM42.6857 63.9828C42.6857 63.9828 42.6678 59.7254 39.9987 56.7453C39.9987 56.7453 40.9594 56.5349 41.3779 56.7919C41.3779 56.7919 39.8243 54.5656 37.6229 53.7378C35.4218 52.9098 28.1034 53.9755 28.3918 61.1344L42.6857 63.9828ZM28.3272 52.5973L28.4139 52.5521C28.9745 52.2589 29.5608 51.9825 30.1671 51.7243C30.7811 51.4629 31.417 51.2195 32.0688 50.9958C34.6105 50.1234 37.5088 49.4806 40.5962 49.0618C43.7999 48.6277 47.209 48.435 50.636 48.4782C53.2813 48.5118 55.9342 48.6859 58.5092 48.9979C61.0409 49.3047 63.4995 49.7449 65.8038 50.3162L65.8699 50.3326L65.8524 50.3986C65.6416 51.1879 65.313 52.5738 65.148 54.0768C64.9833 55.5758 64.9807 57.1917 65.4197 58.4451C65.7286 59.3266 66.1152 59.8271 66.5357 60.0638C66.9505 60.2967 67.4027 60.2735 67.8474 60.1074L67.964 60.064L67.9358 60.1852C67.711 61.1526 67.5842 62.2682 67.7104 63.437C67.8364 64.6045 68.2152 65.8264 69.0005 67.0079L69.7676 68.1621L69.8261 68.3707C69.8261 68.3707 69.7314 70.1651 70.2677 71.5506C70.2677 71.5506 71.5979 63.0915 77.1662 62.5022C81.1277 62.0828 81.7911 65.821 81.0159 69.0992C79.7205 74.5787 72.0666 78.2685 69.9708 73.818C69.9708 73.818 69.9718 73.8767 69.9848 73.9813L69.9555 73.9292C69.7297 74.1726 69.6035 74.462 69.5672 74.7716C69.5253 75.1295 69.6031 75.5161 69.785 75.8912L69.7997 75.922L69.7834 75.9522C68.4498 78.4123 66.1196 80.5223 63.2034 82.1777C62.1644 82.7674 61.0505 83.2994 59.8809 83.7689C68.588 78.9206 64.6911 67.6203 59.4658 69.4179C55.5354 70.7702 51.6426 69.7898 51.6426 69.7898C48.0455 68.4084 45.6489 62.5077 49.4334 56.7919C49.4334 56.7919 49.6919 53.2725 54.4861 53.4274C59.2805 53.5826 61.7065 57.3447 61.7065 57.3447C61.7065 57.3447 61.6622 52.0471 51.5646 49.8533C41.4671 47.6593 28.3272 52.5973 28.3272 52.5973Z" fill="#D46D6F"/>
<path fill-rule="evenodd" clip-rule="evenodd" d="M40.4476 58.4384C39.1491 57.0567 37.3509 56.175 35.2854 56.175C33.7245 56.175 32.3165 56.6784 31.1617 57.5206C29.9339 58.4159 28.9915 59.6944 28.4547 61.1577L28.4422 61.1917L26.7988 61.5772L27.9523 63.968V63.983C27.9523 66.0475 28.6631 67.6918 29.8758 68.8309C31.1375 70.0161 32.9445 70.6565 35.0616 70.6565C37.1923 70.6565 39.1564 70.0044 40.5476 68.7743C41.8237 67.6462 42.6186 66.0299 42.6186 63.983C42.6186 61.8785 41.8063 59.8845 40.4476 58.4384Z" fill="#E8BD98"/>
<path fill-rule="evenodd" clip-rule="evenodd" d="M41.3813 56.69C41.5912 56.4547 42.3848 55.4362 42.4728 53.4043L41.5493 53.6359L40.7799 51.7772C39.8909 51.5322 38.9928 51.361 38.1107 51.2726C36.1176 51.0726 34.2059 51.2953 32.6621 52.0451C31.1236 52.7923 29.9493 54.0651 29.4244 55.9669C29.3238 56.3317 29.2469 56.7203 29.1957 57.1327C29.4855 56.7986 29.8089 56.4881 30.1591 56.2042C31.5539 55.0726 33.3818 54.352 35.2319 54.2183C37.0846 54.0847 38.9605 54.5391 40.4482 55.7582C40.7801 56.0303 41.0929 56.3402 41.3813 56.69Z" fill="#E8BD98"/>
<path fill-rule="evenodd" clip-rule="evenodd" d="M39.7885 68.2479C38.5819 69.3448 36.8894 69.9439 35.0616 69.9439C33.2453 69.9439 31.7076 69.3574 30.6296 68.3047C29.5726 67.2726 28.959 65.7939 28.959 63.983C28.959 62.203 29.6222 60.67 30.7455 59.5822C31.8678 58.495 33.4489 57.853 35.2854 57.853C37.1217 57.853 38.703 58.495 39.8255 59.5822C40.9486 60.67 41.6118 62.203 41.6118 63.983C41.6118 65.7791 40.9104 67.2278 39.7885 68.2479ZM60.1816 68.3047C59.1036 69.3574 57.5661 69.9439 55.7496 69.9439C53.9219 69.9439 52.2295 69.3448 51.0229 68.2479C49.901 67.2278 49.1993 65.7791 49.1993 63.983C49.1993 62.203 49.8626 60.67 50.9859 59.5822C52.1082 58.495 53.6894 57.853 55.526 57.853C57.3623 57.853 58.9433 58.495 60.0658 59.5822C61.1889 60.67 61.8524 62.203 61.8524 63.983C61.8524 65.7939 61.2386 67.2726 60.1816 68.3047Z" fill="white"/>
<path fill-rule="evenodd" clip-rule="evenodd" d="M28.8509 41.835C29.2824 42.1283 29.7417 42.3767 30.2266 42.5731L30.3845 42.6373L30.2256 42.6981C28.6159 43.3148 27.1488 44.0192 25.8633 44.8113C24.6292 45.5718 23.5628 46.4132 22.6985 47.3352C22.6048 47.4351 22.5137 47.5347 22.4253 47.6342C22.3377 47.7322 22.2546 47.8285 22.1755 47.9227L22.1016 48.0107L22.0617 47.9027C21.8184 47.2436 21.639 46.4807 21.5292 45.6691C21.2919 43.9152 21.3792 41.9313 21.8424 40.268C22.3085 38.5939 23.1568 37.2415 24.4402 36.7649C24.6374 36.6917 24.8453 36.6392 25.0641 36.6094L25.1184 36.6021L25.1361 36.6544C25.4113 37.4616 25.7617 38.2281 26.1815 38.9315C26.5907 39.6171 27.0669 40.2435 27.6046 40.79C27.9902 41.1819 28.4064 41.5327 28.8509 41.835Z" fill="#935C29"/>
<path fill-rule="evenodd" clip-rule="evenodd" d="M23.9907 55.8626C24.4029 55.3858 24.8833 54.9268 25.4209 54.4889L25.6056 54.3385L25.526 54.5632C25.2939 55.2188 25.09 55.9876 24.9561 56.8742C24.8221 57.7616 24.7583 58.7667 24.8067 59.8934L24.814 60.0632L24.6931 59.9439C24.3159 59.572 23.9618 59.1112 23.6743 58.6751C23.3068 58.1172 23.0467 57.5958 22.9857 57.3484L22.9796 57.3237L22.9916 57.3008C23.2544 56.8061 23.5907 56.3258 23.9907 55.8626Z" fill="#3B2015"/>
<path fill-rule="evenodd" clip-rule="evenodd" d="M69.3988 60.908C69.6955 59.1653 70.3465 57.5518 70.7229 56.7169C70.0782 57.4657 69.2714 57.9871 68.5647 58.236C68.2672 58.3409 67.9861 58.3977 67.741 58.4035C67.4896 58.4092 67.2748 58.361 67.1166 58.2554C67.0022 58.1792 66.9175 58.0738 66.8701 57.9381C66.5766 57.0999 66.5256 56.0391 66.5958 54.9728C66.7041 53.3259 67.101 51.6636 67.3363 50.7928L67.354 50.7271L67.4189 50.7456C67.7953 50.8526 68.1656 50.9632 68.5287 51.0767C68.8903 51.1896 69.2476 51.3069 69.6 51.4277C72.1972 52.3191 74.4753 53.4029 76.2723 54.6722C77.9578 55.8628 79.2209 57.2177 79.9279 58.731L79.9926 58.8696L79.8473 58.8234C79.5304 58.7227 79.2042 58.6465 78.8713 58.5959C78.5392 58.5456 78.2012 58.5207 77.8604 58.5219C76.166 58.5282 74.6675 59.1493 73.3831 60.1155C71.8214 61.2902 70.5751 62.9754 69.6756 64.6876L69.6035 64.8248L69.5531 64.6781C69.1537 63.5165 69.1826 62.177 69.3988 60.908Z" fill="#5F2E15"/>
<path fill-rule="evenodd" clip-rule="evenodd" d="M38.61 40.734C36.1256 40.1188 33.6018 38.285 31.503 34.6784C31.5774 36.0491 31.9273 37.241 32.4803 38.2536C33.1244 39.4336 34.0449 40.3713 35.1271 41.0664L35.258 41.1507L35.107 41.188C34.9298 41.2317 34.7607 41.2745 34.6001 41.316C34.444 41.3563 34.2768 41.4005 34.0991 41.4486L34.093 41.4498C33.0348 41.6348 32.0601 41.5582 31.1823 41.2749C30.237 40.9699 29.4043 40.4254 28.6999 39.7096C28.2 39.2018 27.7616 38.6073 27.39 37.9499C27.0092 37.2763 26.6984 36.536 26.4637 35.7546C26.2273 34.9675 26.068 34.1395 25.9922 33.2961C25.9176 32.4643 25.9239 31.6182 26.0168 30.7821C26.147 29.6116 26.4474 28.4592 26.933 27.3924C27.388 26.3928 28.0057 25.4681 28.7983 24.6738L28.9468 24.5252L28.9113 24.7327C28.6641 26.1843 28.7011 27.6419 29.0643 29.0304C29.3818 30.2435 29.9484 31.4046 30.792 32.4637C30.7053 32.1591 30.6284 31.8561 30.5604 31.5548C29.6614 27.5613 30.374 23.8482 32.2531 20.8452C34.1317 17.8436 37.1762 15.5521 40.9415 14.4002C41.3679 14.2699 41.8037 14.1538 42.2477 14.0533L42.4512 14.0073L42.3124 14.1633C40.6623 16.0178 39.7225 18.1802 39.2496 20.3621C38.6561 23.1016 38.798 25.8726 39.1949 28.1056C39.7707 26.4645 40.3857 24.9864 41.2858 23.6587C42.2307 22.2649 43.4885 21.0383 45.3422 19.9655L45.4981 19.8753L45.4384 20.0455C45.1146 20.9722 44.9136 21.8647 44.8114 22.7178C44.699 23.6545 44.7055 24.5439 44.7986 25.3794L44.7988 25.3852C44.8047 25.6021 44.8278 25.8252 44.8689 26.0538C44.9093 26.2785 44.9671 26.5097 45.0435 26.7464L45.0449 26.7505C45.4554 28.3982 46.2715 30.0352 47.3602 31.2299C48.2737 32.2324 49.3788 32.9229 50.5957 33.0446C50.1781 32.6286 48.8642 31.2492 47.7961 29.3713C47.1511 28.2375 46.5952 26.9211 46.3786 25.5234L46.3779 25.5133C46.372 24.6051 46.9163 23.836 47.8559 23.2425C49.0245 22.5044 50.8097 22.0367 52.9055 21.9123C54.997 21.7883 57.4005 22.0055 59.8113 22.636C64.912 23.9702 70.0472 27.156 72.3381 32.876C72.2761 31.7728 72.3105 30.5519 72.6787 29.4931C73.1 28.2819 73.9553 27.2853 75.5952 26.9199L75.7096 26.8944L75.6732 27.0058C75.394 27.8638 75.1044 29.0815 75.0721 30.5041C75.0485 31.5428 75.1621 32.6918 75.5167 33.8899L75.5403 33.9703L75.4568 33.9758C74.4654 34.0402 73.4705 34.2901 72.52 34.7467C71.6268 35.1757 70.772 35.7879 69.9948 36.6007L69.9037 36.6961L69.8808 36.5658C68.8453 30.6721 63.308 28.9224 61.7025 28.5352C63.8787 29.7741 65.3786 31.2123 66.4121 32.6011C68.3303 35.1795 68.6432 37.5916 68.6938 38.2508L68.6953 38.2725L68.6835 38.2915C68.5737 38.4654 68.466 38.646 68.3611 38.8328C68.3205 38.9049 68.2805 38.9777 68.2412 39.0511L68.3685 38.9335C68.5054 38.8083 68.6439 38.6849 68.7839 38.5635L68.792 38.5566L68.8006 38.5529C69.2255 38.3645 69.6759 38.2285 70.1332 38.1489C71.078 37.9849 72.053 38.0623 72.8964 38.4166C73.7429 38.7726 74.4569 39.4071 74.8751 40.3555C74.9664 40.5626 75.0436 40.7847 75.1048 41.0222C75.1989 39.8533 74.8524 38.9264 74.2311 38.2518C73.6043 37.5709 72.6964 37.1444 71.6784 36.9827C71.542 36.9612 71.4014 36.944 71.2575 36.9318L71.0423 36.9135L71.2299 36.8066C73.1588 35.7092 74.9164 35.402 76.4299 35.6586C77.8113 35.8928 78.9884 36.5966 79.9055 37.5977C80.821 38.5967 81.4781 39.8926 81.8222 41.3136C82.3356 43.4329 82.1533 45.8322 81.0946 47.9429L81.0487 48.0339L80.9836 47.9557C80.7755 47.7058 80.541 47.4509 80.278 47.1889C80.0142 46.9263 79.7213 46.6563 79.3965 46.3767C78.5064 45.6109 77.468 44.9087 76.3049 44.2702C75.0999 43.6086 73.7604 43.015 72.3137 42.4893C70.1411 41.6996 67.7197 41.0587 65.1445 40.5668C62.4782 40.0576 59.6469 39.7078 56.7553 39.5179L56.5549 39.5046L56.7231 39.3947C58.4277 38.2806 58.9043 36.8145 59.0301 36.2408C57.9548 37.5089 56.5701 38.2642 55.2454 38.7126C53.8561 39.1826 52.5324 39.3151 51.7014 39.3481L51.1908 39.3487L50.8305 39.3514C50.3014 39.3558 49.7712 39.3658 49.2414 39.381C48.7144 39.3962 48.1864 39.4168 47.6585 39.4424L47.514 39.4495L47.6025 39.3346C48.1144 38.6709 48.5231 37.9041 48.7969 37.0345C49.0105 36.3563 49.1422 35.6156 49.1769 34.8129C48.529 36.8106 46.9771 38.6498 44.9713 39.7889C44.046 40.3143 43.0239 40.6913 41.9494 40.8664C40.8741 41.0418 39.7461 41.0153 38.61 40.734Z" fill="#5F2E15"/>
<path fill-rule="evenodd" clip-rule="evenodd" d="M69.041 51.2406C69.2286 51.302 69.4151 51.3643 69.5999 51.4277C72.1971 52.3191 74.4752 53.4029 76.2722 54.6722C77.9578 55.8628 79.2208 57.2177 79.9278 58.731L79.9925 58.8696L79.8473 58.8234C79.5303 58.7227 79.2041 58.6465 78.8712 58.5959C78.5391 58.5456 78.2011 58.5207 77.8603 58.5219C76.1659 58.5282 74.6674 59.1493 73.383 60.1155C72.6377 60.6762 71.9642 61.3533 71.3658 62.0941C70.9055 58.8267 72.5794 54.2621 72.5794 54.2621C72.5794 54.2621 68.9668 57.7196 68.2699 56.5425C67.7199 55.6135 68.6321 52.5078 69.041 51.2406Z" fill="#3B2015"/>
<path fill-rule="evenodd" clip-rule="evenodd" d="M58.9884 36.2898C59.5954 35.063 59.1843 33.8084 59.1843 33.8084C56.5971 38.0473 50.1585 38.0338 48.4425 37.9507C48.2092 38.4534 47.9265 38.9147 47.6026 39.3349L47.514 39.4498L47.6585 39.4427C48.1865 39.417 48.7145 39.3965 49.2415 39.3813C49.7713 39.3661 50.3014 39.356 50.8306 39.3516L51.1909 39.3489L51.7015 39.3483C52.5325 39.3153 53.8562 39.1828 55.2455 38.7128C56.5532 38.2704 57.9191 37.5284 58.9884 36.2898ZM74.9445 43.5787C73.2111 39.2028 67.9997 39.3726 67.9997 39.3726C67.0955 36.124 63.2381 34.6958 63.2381 34.6958C64.8333 37.2333 64.7784 39.3295 64.7784 39.3295C63.1407 37.7328 59.7964 37.3087 58.6884 37.2098C58.3669 37.8751 57.7819 38.7029 56.7231 39.3949L56.555 39.5048L56.7554 39.5181C59.647 39.708 62.4783 40.0578 65.1446 40.567C67.7197 41.059 70.1412 41.6998 72.3138 42.4895C73.2369 42.8249 74.116 43.188 74.9445 43.5787ZM74.6606 39.9382C74.7387 40.0701 74.8106 40.2091 74.8752 40.3557C74.9665 40.5628 75.0437 40.7849 75.1049 41.0224C75.1955 39.8963 74.8771 38.9949 74.2983 38.3272C75.4589 38.5957 77.3401 39.2669 78.1132 40.8728C78.9252 42.5598 79.0577 44.8741 79.0646 46.0997C78.2518 45.4409 77.3263 44.8311 76.305 44.2704C75.9849 44.0947 75.6553 43.9238 75.3169 43.7577C75.3502 42.85 75.2876 41.3154 74.6606 39.9382ZM28.851 41.835C29.2825 42.1284 29.7418 42.3768 30.2267 42.5732L30.3845 42.6374L30.2257 42.6982C28.6159 43.3149 27.1489 44.0193 25.8634 44.8114C25.5358 45.0131 25.2202 45.2208 24.9168 45.4338C24.5137 42.5349 25.8177 40.3688 26.5116 39.45C26.8406 39.935 27.2058 40.3846 27.6046 40.7901C27.9903 41.1819 28.4064 41.5328 28.851 41.835ZM38.6101 40.7342C36.1284 40.1198 33.6078 38.2893 31.5102 34.6907C31.4815 34.5973 31.4525 34.5043 31.4254 34.409C35.4865 40.0095 45.1422 39.5104 49.2527 34.3049C49.2527 34.3049 49.225 34.5243 49.1604 34.8636C48.5027 36.8418 46.9603 38.6597 44.9714 39.7891C44.0461 40.3145 43.024 40.6916 41.9495 40.8667C40.8742 41.042 39.7462 41.0155 38.6101 40.7342Z" fill="#3B2015"/>
<path fill-rule="evenodd" clip-rule="evenodd" d="M22.9153 47.1099C22.8417 47.1845 22.7694 47.2595 22.6985 47.3352C22.6048 47.4351 22.5137 47.5347 22.4253 47.6342C22.3377 47.7322 22.2546 47.8285 22.1755 47.9227L22.1016 48.0107L22.0617 47.9027C21.8184 47.2436 21.639 46.4807 21.5292 45.6691C21.2919 43.9152 21.3792 41.9313 21.8424 40.268C22.3085 38.5939 23.1568 37.2415 24.4402 36.7649C24.6374 36.6917 24.8453 36.6392 25.0641 36.6094L25.1184 36.6021L25.1361 36.6544C25.2652 37.033 25.4109 37.403 25.5725 37.7613C24.2181 38.5617 21.2927 41.0555 22.9153 47.1099Z" fill="#B0895C"/>
<path fill-rule="evenodd" clip-rule="evenodd" d="M72.7716 37.2774C72.4289 37.1422 72.0615 37.0437 71.6784 36.9829C71.542 36.9614 71.4014 36.9442 71.2575 36.932L71.0423 36.9136L71.2299 36.8068C73.1588 35.7093 74.9164 35.4021 76.4299 35.6588C77.8113 35.8929 78.9884 36.5967 79.9055 37.5979C80.821 38.5968 81.4781 39.8927 81.8222 41.3138C82.3356 43.4331 82.1533 45.8324 81.0946 47.943L81.0786 47.9746L81.0019 47.978V47.9778C81.0025 47.974 81.8543 41.9552 79.1425 38.8075C76.9563 36.2698 73.8825 36.9268 72.7716 37.2774ZM61.9472 28.6773C61.5299 28.4756 61.2763 28.3761 61.2763 28.3761C66.958 32.7336 67.9996 39.3725 67.9996 39.3725C72.2091 37.5519 75.1237 41.4287 75.1237 41.4287C75.1017 41.1564 75.0566 40.8994 74.9938 40.6563C74.9574 40.5527 74.9178 40.4526 74.8751 40.3557C74.4569 39.4072 73.7429 38.7727 72.8964 38.4168C72.053 38.0624 71.078 37.985 70.1332 38.1491C69.6759 38.2286 69.2255 38.3647 68.8006 38.553L68.792 38.5568L68.7839 38.5637C68.6439 38.6851 68.5054 38.8085 68.3685 38.9336L68.2412 39.0513C68.2805 38.9779 68.3205 38.905 68.3611 38.8329C68.466 38.6462 68.5737 38.4655 68.6835 38.2916L68.6953 38.2727L68.6938 38.2509C68.6432 37.5917 68.3303 35.1796 66.4121 32.6013C65.4179 31.2651 63.9919 29.8834 61.9472 28.6773ZM46.9133 27.511C46.673 26.876 46.485 26.2095 46.3786 25.5235L46.3779 25.5134C46.372 24.6053 46.9163 23.8361 47.8559 23.2427C49.0245 22.5045 50.8097 22.0368 52.9055 21.9124C54.997 21.7885 57.4005 22.0056 59.8113 22.6362C64.912 23.9704 70.0472 27.1562 72.3381 32.8761C72.2761 31.7729 72.3105 30.552 72.6787 29.4933C73.1 28.2821 73.9553 27.2855 75.5952 26.9201L75.7096 26.8946L75.6732 27.0059C75.394 27.8639 75.1044 29.0817 75.0721 30.5043C75.0485 31.5429 75.1621 32.6919 75.5167 33.8901L75.5403 33.9704L75.4568 33.9759C75.1253 33.9975 74.7936 34.0397 74.4632 34.1035C74.2363 33.0186 73.8955 30.816 74.3089 28.7618C74.3089 28.7618 72.797 29.6323 72.4348 33.3118C72.4348 33.3118 66.5808 25.3476 59.0321 23.7356C51.4833 22.1239 47.7065 24.0055 46.9133 27.511ZM30.7795 32.4201C30.8827 32.6356 30.9481 32.7586 30.9481 32.7586C29.7559 21.1486 38.6533 17.2201 38.6533 17.2201C34.8788 27.2107 40.118 34.2435 40.118 34.2435C39.7067 27.5773 43.2117 23.2393 43.2117 23.2393C41.9742 32.7541 50.7744 33.1257 50.7744 33.1257C50.7039 33.0994 50.6346 33.071 50.5659 33.0415C49.3609 32.9118 48.2662 32.2244 47.3602 31.23C46.2715 30.0354 45.4554 28.3984 45.0449 26.7507L45.0435 26.7465C44.9671 26.5098 44.9093 26.2786 44.8689 26.054C44.8278 25.8254 44.8047 25.6023 44.7988 25.3853L44.7986 25.3796C44.7055 24.5441 44.699 23.6547 44.8114 22.7179C44.9136 21.8649 45.1146 20.9723 45.4384 20.0456L45.4981 19.8754L45.3422 19.9657C43.4885 21.0385 42.2307 22.265 41.2858 23.6588C40.3857 24.9865 39.7707 26.4646 39.1949 28.1058C38.798 25.8727 38.6561 23.1017 39.2496 20.3623C39.7225 18.1804 40.6623 16.018 42.3124 14.1634L42.4512 14.0074L42.2477 14.0534C41.8037 14.1539 41.3679 14.27 40.9415 14.4003C37.1762 15.5523 34.1317 17.8438 32.2531 20.8454C30.374 23.8484 29.6614 27.5615 30.5604 31.555C30.625 31.8418 30.698 32.1302 30.7795 32.4201ZM35.1854 41.1041L35.258 41.1509L35.107 41.1882C34.9298 41.2318 34.7607 41.2747 34.6001 41.3161C34.444 41.3564 34.2768 41.4006 34.0991 41.4488L34.093 41.45C33.0348 41.635 32.0601 41.5584 31.1823 41.2751C30.237 40.97 29.4043 40.4256 28.6999 39.7097C28.2 39.2019 27.7616 38.6075 27.39 37.9501C27.0092 37.2765 26.6984 36.5361 26.4637 35.7547C26.2273 34.9676 26.068 34.1396 25.9922 33.2962C25.9176 32.4645 25.9239 31.6183 26.0168 30.7822C26.147 29.6117 26.4474 28.4594 26.933 27.3925C27.388 26.393 28.0057 25.4682 28.7983 24.674L28.9468 24.5253L28.9113 24.7328C28.742 25.7272 28.706 26.7242 28.8168 27.7001C28.0449 28.8597 26.97 31.1727 27.465 34.6195C28.2073 39.7908 33.7191 41.4425 35.0911 41.1232C35.1234 41.1155 35.1547 41.1096 35.1854 41.1041Z" fill="#B0895C"/>
<path fill-rule="evenodd" clip-rule="evenodd" d="M35.163 68.6422C37.7917 68.6422 39.9355 66.4922 39.9355 63.8559C39.9355 61.2197 37.7917 59.0695 35.163 59.0695C32.5341 59.0695 30.39 61.2197 30.39 63.8559C30.39 66.4922 32.5341 68.6422 35.163 68.6422Z" fill="#4A389B"/>
<path fill-rule="evenodd" clip-rule="evenodd" d="M39.5398 65.7663C38.8041 67.4588 37.1216 68.6422 35.1628 68.6422C33.204 68.6422 31.5214 67.4588 30.7859 65.7663C31.3271 63.8533 33.0817 62.452 35.1628 62.452C37.2438 62.452 38.9985 63.8533 39.5398 65.7663Z" fill="#7042A4"/>
<path fill-rule="evenodd" clip-rule="evenodd" d="M35.163 66.5727C36.655 66.5727 37.872 65.3522 37.872 63.8558C37.872 62.3595 36.655 61.139 35.163 61.139C33.6707 61.139 32.4537 62.3595 32.4537 63.8558C32.4537 65.3522 33.6707 66.5727 35.163 66.5727Z" fill="#100F0D"/>
<path fill-rule="evenodd" clip-rule="evenodd" d="M32.3481 64.1658C33.6344 64.1658 34.6835 63.114 34.6835 61.824C34.6835 60.5341 33.6344 59.4822 32.3481 59.4822C31.062 59.4822 30.0129 60.5341 30.0129 61.824C30.0129 63.114 31.062 64.1658 32.3481 64.1658Z" fill="white"/>
<path fill-rule="evenodd" clip-rule="evenodd" d="M38.2238 66.2137C39.5101 66.2137 40.559 65.7916 40.559 65.2742C40.559 64.7567 39.5101 64.3347 38.2238 64.3347C36.9375 64.3347 35.8884 64.7567 35.8884 65.2742C35.8884 65.7916 36.9375 66.2137 38.2238 66.2137Z" fill="white"/>
<path fill-rule="evenodd" clip-rule="evenodd" d="M55.4022 68.6422C58.0311 68.6422 60.1749 66.4922 60.1749 63.8559C60.1749 61.2197 58.0311 59.0695 55.4022 59.0695C52.7734 59.0695 50.6294 61.2197 50.6294 63.8559C50.6294 66.4922 52.7734 68.6422 55.4022 68.6422Z" fill="#4A389B"/>
<path fill-rule="evenodd" clip-rule="evenodd" d="M59.779 65.7663C59.0435 67.4588 57.3609 68.6422 55.4021 68.6422C53.4433 68.6422 51.7608 67.4588 51.0253 65.7663C51.5664 63.8533 53.3211 62.452 55.4021 62.452C57.4832 62.452 59.2378 63.8533 59.779 65.7663Z" fill="#7042A4"/>
<path fill-rule="evenodd" clip-rule="evenodd" d="M55.4022 66.5727C56.8944 66.5727 58.1114 65.3522 58.1114 63.8558C58.1114 62.3595 56.8944 61.139 55.4022 61.139C53.9101 61.139 52.6931 62.3595 52.6931 63.8558C52.6931 65.3522 53.9101 66.5727 55.4022 66.5727Z" fill="#100F0D"/>
<path fill-rule="evenodd" clip-rule="evenodd" d="M52.5876 64.1658C53.8739 64.1658 54.9228 63.114 54.9228 61.824C54.9228 60.5341 53.8739 59.4822 52.5876 59.4822C51.3015 59.4822 50.2524 60.5341 50.2524 61.824C50.2524 63.114 51.3015 64.1658 52.5876 64.1658Z" fill="white"/>
<path fill-rule="evenodd" clip-rule="evenodd" d="M58.4632 66.2137C59.7495 66.2137 60.7984 65.7916 60.7984 65.2742C60.7984 64.7567 59.7495 64.3347 58.4632 64.3347C57.1769 64.3347 56.1278 64.7567 56.1278 65.2742C56.1278 65.7916 57.1769 66.2137 58.4632 66.2137Z" fill="white"/>
<path fill-rule="evenodd" clip-rule="evenodd" d="M37.8539 73.0595C39.8155 77.7856 50.1906 78.1427 52.7528 73.3935L51.8478 72.8842L52.3711 71.948L55.1596 73.5179L54.6364 74.4541L53.6857 73.9189C50.7828 79.2682 39.8968 79.3833 37.358 73.266L37.8539 73.0595Z" fill="#100F0D"/>
<path fill-rule="evenodd" clip-rule="evenodd" d="M44.7585 25.6036C44.542 23.944 44.6613 22.0675 45.3755 20.0238C41.6876 22.1581 40.3718 24.9023 39.1749 28.3667C38.4103 24.3316 38.4463 18.4079 42.2625 14.1189C33.6099 16.0783 28.2346 23.838 30.9481 32.7588C24.112 24.7321 33.7109 10.4638 47.1919 12.3638C43.2921 15.0415 41.3225 16.8597 40.6506 21.94C43.0375 18.9202 45.458 17.8243 48.6972 16.958C47.2238 19.3731 46.1247 21.698 46.3718 24.8887C46.7151 29.3214 50.7619 33.1143 50.7745 33.1258C47.6418 32.9609 45.2117 29.0774 44.7585 25.6036Z" fill="#100F0D"/>
<path fill-rule="evenodd" clip-rule="evenodd" d="M49.2527 34.305C49.3356 45.3673 31.7253 45.4052 31.4253 34.409C37.6487 45.4293 47.7548 40.3881 49.2527 34.305Z" fill="#100F0D"/>
<path fill-rule="evenodd" clip-rule="evenodd" d="M81.7614 49.9622L80.3877 49.0045C85.3851 41.7875 78.3366 29.3955 67.9996 39.3724C73.9278 27.4929 90.929 36.723 81.7614 49.9622Z" fill="#100F0D"/>
<path fill-rule="evenodd" clip-rule="evenodd" d="M44.98 26.767C42.1883 18.1134 63.599 16.5388 71.5725 28.2455C72.9587 25.3361 75.7968 24.965 78.2608 25.2001C76.7688 28.0696 76.0752 30.8407 77.2645 34.1465L75.6478 34.505C74.5357 31.4136 75.0905 28.5802 75.6096 26.9854C72.3842 27.7044 72.2456 30.9042 72.4348 33.3118C67.1878 19.0822 44.5678 20.0501 46.5697 26.2553L44.98 26.767Z" fill="#100F0D"/>
<path fill-rule="evenodd" clip-rule="evenodd" d="M82.2707 58.8912C82.0395 59.4691 81.7251 59.7042 81.3574 59.9171L80.4796 60.4252L80.1504 59.461C78.9752 56.017 74.9654 53.3399 69.5785 51.4912C64.1454 49.6266 57.3613 48.6304 50.6352 48.5451C43.9143 48.46 37.2631 49.2839 32.0901 51.0591C27.9402 52.4835 24.4463 54.7035 23.0505 57.3324C23.1568 57.7628 23.8897 59.0575 24.74 59.8961L24.4364 60.2779L22.5123 59.4091L21.4872 58.3811C21.0405 57.9561 20.5501 57.4891 20.5501 55.4551C20.5501 51.6188 19.8875 50.2364 22.6499 47.2893C24.5258 45.2876 27.3453 43.668 30.7616 42.4264C32.5167 41.7883 34.4339 41.2476 36.463 40.8038C37.634 41.3522 39.3225 41.8639 41.3098 41.6452L41.322 41.6438C37.6781 42.149 34.2638 42.9347 31.3308 44.0008C28.0554 45.1913 25.3973 46.7199 23.7273 48.5812C21.6478 50.8992 22.2248 52.4784 22.2248 55.4551C22.2248 55.5755 22.2266 55.6865 22.2302 55.7891C23.9624 53.028 27.2986 50.9319 31.5538 49.4716C36.9002 47.6368 43.7495 46.7849 50.6549 46.8723C57.5552 46.9598 64.5238 47.9848 70.1149 49.9036C75.0509 51.5977 78.9496 54.0056 80.8698 57.1091C80.8721 57.0076 80.8733 56.8992 80.8733 56.7828C80.8733 52.5907 81.7344 50.4674 78.3009 47.5446C76.6561 46.1446 74.413 44.9625 71.7674 44.0008C66.1914 41.9741 58.8777 40.9607 51.5491 40.9607C48.225 40.9607 44.9039 41.1692 41.7468 41.5862C43.8976 41.2446 45.3941 40.219 46.2436 39.4575C47.9973 39.3399 49.7736 39.2812 51.5491 39.2812C59.0508 39.2812 66.5678 40.3296 72.3365 42.4264C75.1869 43.4623 77.6217 44.7613 79.4398 46.3259C83.5194 49.8363 82.548 51.8279 82.548 56.7828C82.548 57.8169 82.4455 58.4534 82.2707 58.8912Z" fill="#100F0D"/>
<path fill-rule="evenodd" clip-rule="evenodd" d="M30.8819 23.2062C27.9321 24.7984 26.4234 27.7298 26.0834 30.7896C25.8972 32.4658 26.06 34.179 26.5277 35.7359C26.9886 37.2696 27.7431 38.6423 28.7475 39.6628C30.1008 41.038 31.9308 41.7736 34.1247 41.3764L34.419 43.0229C31.619 43.5301 29.2836 42.5918 27.5569 40.8371C26.3562 39.617 25.4621 38.0023 24.925 36.2146C24.3949 34.4504 24.2104 32.5076 24.4219 30.6058C24.8177 27.042 26.599 23.6149 30.0905 21.7301L30.8819 23.2062Z" fill="#100F0D"/>
<path fill-rule="evenodd" clip-rule="evenodd" d="M25.7361 36.6571C21.0862 36.3173 20.5393 45.5926 22.6387 48.954L21.2258 49.8396C18.1018 44.8375 19.6174 33.4683 26.122 35.0301L25.7361 36.6571Z" fill="#100F0D"/>
<path fill-rule="evenodd" clip-rule="evenodd" d="M26.1876 63.7639C24.7024 74.2579 29.3978 82.9686 40.4017 85.4334C44.2449 86.2942 48.4444 86.3419 52.4728 85.7118C60.2423 84.4962 67.3339 80.7815 69.9181 75.5465L71.4162 76.2878C68.5824 82.0279 60.9929 86.0719 52.728 87.3648C48.5033 88.0257 44.0906 87.9736 40.0421 87.0669C29.4919 84.7037 21.6166 75.7161 26.1876 63.7639Z" fill="#100F0D"/>
<path fill-rule="evenodd" clip-rule="evenodd" d="M21.6914 60.7058C20.8069 60.6894 19.9923 60.9789 19.308 61.4904C18.6022 62.0179 18.0299 62.7825 17.6529 63.6972C17.1017 65.0349 16.9712 66.6832 17.4452 68.3832C18.0022 70.3801 19.2586 72.2381 20.9567 73.4317C22.4446 74.4772 24.2788 75.0069 26.2791 74.6549L26.5669 76.3079C24.0967 76.7429 21.8345 76.0908 20.0017 74.8026C17.9835 73.3841 16.4934 71.1862 15.8361 68.8294C15.2571 66.7539 15.424 64.723 16.1091 63.0607C16.6019 61.8653 17.3639 60.8553 18.3136 60.1455C19.2845 59.4198 20.4472 59.0094 21.7176 59.0331C22.6854 59.0508 23.7067 59.3207 24.74 59.896C24.4912 54.0999 27.1937 51.5298 27.2018 51.5205L28.458 52.6225C28.4503 52.6312 25.4564 56.8575 26.4687 63.4C25.0649 62.1541 23.7108 60.7431 21.6914 60.7058Z" fill="#100F0D"/>
<path fill-rule="evenodd" clip-rule="evenodd" d="M67.5785 50.1896C67.5742 50.204 65.9924 55.2306 66.933 57.9159C67.2748 58.8914 69.7633 58.1169 71.0638 56.1571C71.0567 56.1683 68.4319 61.2117 69.6165 64.6563C71.2654 61.5179 74.0754 58.4691 77.8603 58.4549C79.0368 58.4506 80.1627 58.7526 81.1426 59.3273C82.1246 59.9028 82.9613 60.7505 83.558 61.8358C84.7858 64.069 84.9823 67.3077 83.268 71.2125C82.2057 73.6322 80.1918 75.7667 77.9462 76.9872C76.9209 77.5443 75.8415 77.9154 74.7737 78.0432C73.6691 78.175 72.5767 78.0483 71.5648 77.6013C69.6938 76.7753 68.9005 74.852 69.9708 73.8179C70.588 74.96 71.3715 75.6836 72.2387 76.0664C72.9622 76.3858 73.7595 76.4746 74.5774 76.3767C75.4324 76.2747 76.3098 75.97 77.1546 75.511C79.0878 74.4605 80.822 72.6217 81.7374 70.537C83.2156 67.1697 83.0906 64.4579 82.0927 62.6428C81.6482 61.8342 81.0267 61.2036 80.2989 60.7772C79.5693 60.3494 78.7328 60.1245 77.8603 60.1279C74.2894 60.1411 71.627 63.8562 70.4167 66.8906L69.8261 68.3706L68.9448 67.0448C67.3606 64.6617 67.4183 62.1173 67.8707 60.1699C66.9462 60.5152 65.9865 60.2647 65.3567 58.4669C64.2315 55.2553 65.9776 49.7136 65.9826 49.6976L67.5785 50.1896Z" fill="#100F0D"/>
<path fill-rule="evenodd" clip-rule="evenodd" d="M74.329 71.5603C74.0429 70.0258 74.4341 68.2954 75.27 66.9616C76.7878 67.019 77.9527 68.6454 76.8813 70.2183C79.8425 68.5048 78.4558 65.6985 76.5228 65.5502C77.4776 64.8104 78.6669 64.5023 79.9634 64.9532C75.8803 61.2784 70.8041 67.663 74.329 71.5603Z" fill="#100F0D"/>
<path fill-rule="evenodd" clip-rule="evenodd" d="M24.8796 71.7855C24.8796 70.0776 24.215 67.6045 23.101 66.9617C21.583 67.0191 20.4181 68.6455 21.4896 70.2184C18.5284 68.5049 19.9151 65.6986 21.8481 65.5503C20.8933 64.8106 19.7041 64.5024 18.4073 64.9533C22.4907 61.2785 27.3611 67.4756 24.8796 71.7855Z" fill="#100F0D"/>
<path fill-rule="evenodd" clip-rule="evenodd" d="M35.2855 57.92C31.6478 57.92 29.026 60.4602 29.026 63.9828C29.026 67.6035 31.5004 69.8767 35.0616 69.8767C38.555 69.8767 41.5449 67.672 41.5449 63.9828C41.5449 60.46 38.9231 57.92 35.2855 57.92ZM35.2855 56.1076C39.5507 56.1076 42.6858 59.8318 42.6858 63.9828C42.6858 68.3006 39.1812 70.7236 35.0616 70.7236C30.8739 70.7236 27.8853 68.2329 27.8853 63.9828L26.7024 61.5308L28.3919 61.1338V61.1344C29.4427 58.2694 32.036 56.1076 35.2855 56.1076Z" fill="#100F0D"/>
<path fill-rule="evenodd" clip-rule="evenodd" d="M55.5259 57.92C59.1634 57.92 61.7852 60.4602 61.7852 63.9828C61.7852 67.6035 59.311 69.8767 55.7496 69.8767C52.2564 69.8767 49.2662 67.672 49.2662 63.9828C49.2662 60.46 51.8883 57.92 55.5259 57.92ZM55.5259 56.1076C51.2607 56.1076 48.1256 59.8318 48.1256 63.9828C48.1256 68.3006 51.63 70.7236 55.7496 70.7236C59.9374 70.7236 62.926 68.2329 62.926 63.9828L64.109 61.5308L62.4195 61.1338L62.4193 61.1344C61.3684 58.2694 58.7753 56.1076 55.5259 56.1076Z" fill="#100F0D"/>
<path fill-rule="evenodd" clip-rule="evenodd" d="M29.1049 57.3447C31.8802 53.938 38.1675 52.8119 41.3779 56.792C41.3779 56.792 42.4634 55.75 42.543 53.3177L41.5888 53.557L40.8291 51.7216C35.4324 50.2235 29.6949 51.4286 29.1049 57.3447Z" fill="#100F0D"/>
<path fill-rule="evenodd" clip-rule="evenodd" d="M61.7065 57.3447C58.931 53.938 52.6439 52.8119 49.4335 56.792C49.4335 56.792 48.348 55.75 48.2684 53.3177L49.2226 53.557L49.9823 51.7216C55.379 50.2235 61.1165 51.4286 61.7065 57.3447Z" fill="#100F0D"/>
<path fill-rule="evenodd" clip-rule="evenodd" d="M44.2945 69.1408C40.1218 69.5128 41.0638 74.164 45.0633 73.0752C42.6643 72.9698 42.0208 70.3534 44.2945 69.1408Z" fill="#100F0D"/>
<path fill-rule="evenodd" clip-rule="evenodd" d="M50.8305 39.2846C51.0429 39.2864 56.3108 39.5837 59.1392 36.0026C59.1392 36.0026 58.672 40.9613 50.7648 40.8456L50.8305 39.2846Z" fill="#100F0D"/>
<path fill-rule="evenodd" clip-rule="evenodd" d="M68.6367 38.431C68.6367 38.431 68.5521 32.2904 61.2764 28.3761C61.2764 28.3761 68.8072 29.6216 69.9661 36.6678L69.3405 37.4868L70.024 36.8797C72.9087 36.5735 75.6413 38.1509 75.1238 41.4287C74.5659 38.1993 71.2633 37.5274 68.8159 38.6198L68.9726 37.7896L68.6367 38.431Z" fill="#100F0D"/>
</g>
<defs>
<linearGradient id="paint0_linear_2_5" x1="0" y1="0" x2="100" y2="100" gradientUnits="userSpaceOnUse">
<stop stop-color="#B966FE"/>
<stop offset="1" stop-color="#9537E4"/>
</linearGradient>
<clipPath id="clip0_2_5">
<rect width="72.3711" height="78.9691" fill="white" transform="translate(13.8145 10.5155)"/>
</clipPath>
</defs>
</svg>
